<?xml version="1.0" encoding="UTF-8"?>
<svg width="451px" height="461px" viewBox="0 0 451 461" version="1.1" xmlns="http://www.w3.org/2000/svg" xmlns:xlink="http://www.w3.org/1999/xlink">
    <!-- Generator: Sketch 50.2 (55047) - http://www.bohemiancoding.com/sketch -->
    <title>Group 3</title>
    <desc>Created with Sketch.</desc>
    <defs></defs>
    <g id="Page-1" stroke="none" stroke-width="1" fill="none" fill-rule="evenodd">
        <g id="pocket-logotipo_dermabile" transform="translate(-2800.000000, -662.000000)" fill="#E88981">
            <g id="Group-3" transform="translate(2800.000000, 662.000000)">
                <path d="M415.75,375.67 C396.79,400.39 367.98,408.52 339.35,416.81 C324.86,421.01 310.15,424.6 295.82,429.33 C279.58,434.69 264.87,442.75 249.17,449.29 C195.49,471.68 134.95,447.95 90.2,415.77 C47.13,384.8 8.39,335.103 3.25,280.941 C-0.01,246.625 10.97,214.134 21.67,182.04 C31.92,151.3 43.9,121.368 58.39,92.376 C72.78,63.584 91.51,39.035 120.19,23.353 C148.82,7.701 181.5,2.562 213.79,2.797 C255.15,-0.278 296.04,25.567 326.67,50.866 C358.24,76.943 382.91,111.242 404.78,145.583 C427.25,180.858 446.98,220.513 448.58,263.032 C450.09,303.308 440.55,343.33 415.75,375.67 Z M450.21,254.165 C444.86,191.728 402.87,133.217 364.62,86.003 C330.94,44.437 271.84,-3.407 214.97,0.479 C150.89,0.542 92.23,23.053 61.38,82.092 C43.62,116.069 29,151.293 17.26,187.788 C5.64,223.899 -4.92,259.854 3.67,297.9 C18.11,361.85 73.06,415.91 131.45,442.04 C162.2,455.79 195.69,466.03 229.36,458.12 C246.36,454.13 261.01,445.52 276.92,438.72 C294.43,431.23 312.71,426.82 331.03,421.87 C367.22,412.11 402.89,400.89 424.32,367.81 C446.03,334.284 453.59,293.571 450.21,254.165 Z" id="Fill-27"></path>
                <path d="M375.4,367.3 C348.7,394.55 308.99,394.67 274.22,402.15 C255.26,406.23 237.9,415.23 218.68,418.3 C200.45,421.22 181.83,419.88 164.09,414.82 C132.03,405.66 101.77,387.48 81.12,361.13 C70.11,347.09 59.33,331.499 51.92,315.209 C43.43,296.567 41.65,277.337 39.56,257.219 C41.43,228.803 51.17,202.863 59.93,176.012 C68.35,150.231 76.08,124.035 85.68,98.667 C102.22,54.996 139.82,33.589 185.54,31.323 C235.86,28.828 279.61,56.512 314.27,90.695 C333.11,109.281 350.22,130.385 365.67,151.849 C380.07,171.849 394.26,193.698 400.3,217.878 C403.68,231.45 404.1,245.916 405.84,259.786 C407.54,273.327 408.44,286.847 406.93,300.457 C404.11,325.756 393.23,349.09 375.4,367.3 Z M404.25,225.947 C396.2,176.533 355.67,131.84 322.88,96.396 C290.16,61.028 242.61,26.569 192.11,29.302 C164.95,29.049 136.73,35.784 114.98,52.705 C93.86,69.132 85.66,91.936 77.45,116.457 C66.71,148.537 55.91,180.606 45.63,212.839 C35.84,243.559 34.66,274.383 45.56,305.052 C65.08,359.93 110.95,403.6 167.5,418.04 C199.47,426.2 226.43,419.13 256.8,409.28 C286.56,399.64 319.07,400.14 348.06,387.92 C413.83,360.2 414,285.783 404.25,225.947 Z" id="Fill-28"></path>
                <path d="M379.14,262.892 C374.28,318.715 343.15,373.93 280.94,373.77 C279.49,373.77 278.04,373.77 276.6,373.77 C263.8,373.34 251.29,375.07 238.82,377.33 C237.99,377.48 237.16,377.63 236.33,377.78 C235.45,377.95 234.56,378.11 233.67,378.28 C232.73,378.46 231.78,378.64 230.84,378.83 C187.82,387.12 126.83,379.34 104.89,335.252 C93.69,312.749 92.09,283.522 88.83,258.909 C87.08,245.632 87.41,232.527 90.58,219.476 C93.89,205.858 100.43,193.478 102.54,179.503 C106.61,152.602 99.93,124.966 110.86,98.814 C119.15,78.984 136.5,65.804 157.34,61.449 C210.82,50.269 256.13,88.01 295.04,119.114 C337.51,153.061 384.24,204.322 379.14,262.892 Z M326.97,145.622 C310.85,127.804 291.48,113.649 272.64,98.939 C238.65,72.391 197.51,48.649 152.93,60.283 C111.22,71.163 104.94,107.097 100.66,144.711 C98.88,160.39 101.82,175.029 97.27,190.682 C92.3,207.804 84.56,222.619 84.48,240.921 C84.41,258.028 88.26,275.393 90.91,292.242 C93.23,307.035 95.67,322.113 102.5,335.611 C115.62,361.55 142.97,374.96 170.29,381.2 C206.04,389.35 238.63,375.58 274.2,376.01 C297.46,376.01 319.37,372.1 338.08,357.35 C358.43,341.31 371.04,317.015 376.91,292.141 C382.96,266.553 383.9,239.772 374.58,214.882 C364.53,188.049 345.92,166.565 326.97,145.622 Z" id="Fill-29"></path>
                <path d="M328.49,295.81 C319.97,313.486 305.05,326.46 285.74,330.765 C274.12,333.356 262,332.592 250.23,334.394 C237.11,336.403 224.39,340.65 211.21,342.22 C189.26,344.82 159.58,338.8 147.22,318.137 C140.97,307.682 140.2,292.498 137.65,280.77 C134.79,267.627 133.88,254.99 132.29,241.724 C132.57,241.702 132,241.681 132.29,241.66 C132.12,221.454 139.44,202.322 139.94,182.217 C140.36,165.706 134.34,146.2 140.77,130.425 C155.2,95.074 203.03,99.015 230.48,114.024 C262.99,131.798 300.98,150.992 321.13,183.359 C342.66,217.95 346.29,258.851 328.49,295.81 Z M288.65,147.459 C253.43,124.581 200.34,80.634 156.58,109.392 C135.44,123.291 136.01,142.527 137.66,165.178 C139.58,191.537 130.5,215.825 130.52,241.945 C130.22,241.983 130.83,242.022 130.52,242.06 C131.68,250.429 131.59,258.863 133.16,267.153 C136.26,283.425 137.41,307.482 147.05,321.25 C157.56,336.249 178.67,343.74 196.22,344.74 C216.21,345.88 235.2,338.42 254.81,335.846 C271.16,333.702 287.12,334.894 302.19,326.964 C331.94,311.305 344.01,271.647 342.01,240.078 C339.71,203.837 319.19,167.294 288.65,147.459 Z" id="Fill-30"></path>
                <path d="M304.92,286.596 C296.58,301.807 283.43,309.793 266.53,312.397 C252.65,314.536 238.86,316.723 225.56,321.294 C212.84,325.668 199.68,327.881 186.56,323.712 C160.01,315.278 151.39,283.253 148.25,258.261 C146.38,243.373 150.01,229.735 152.82,215.256 C155.46,201.635 156.6,187.975 157.21,174.137 C157.73,162.274 159.07,151.309 169.62,144.133 C180.03,137.061 194.26,136.084 206.24,138.6 C212.47,139.909 218.77,141.528 224.6,144.03 C246.15,153.283 268.53,162.131 286.14,178.137 C303.19,193.634 308.54,211.462 311.94,233.655 C312.85,239.574 313.46,245.539 313.94,249.438 C313.82,263.952 310.92,275.677 304.92,286.596 Z M307.98,205.339 C298.62,183.572 280.44,168.967 260.11,157.88 C239.33,146.545 213.16,132.898 188.84,135.712 C169.08,137.998 156.83,149.105 155.63,169.272 C154.19,193.564 150.68,216.81 146.67,240.686 C146.08,244.236 145.92,247.847 146.19,251.436 C146.5,255.551 146.69,258.919 147.54,262.115 C153.12,283.244 156.15,310.205 176.92,321.803 C199.53,334.425 219.11,323.843 241.8,318.599 C266.85,312.811 291.03,313.78 305.83,289.166 C312.71,277.74 315.97,264.712 315.52,251.415 C315.02,236.734 313.84,218.952 307.98,205.339 Z" id="Fill-31"></path>
                <path d="M281.84,273.204 C277.21,281.607 270.59,287.683 261.09,290.23 C250.29,293.126 239.85,295.979 229.83,300.967 C220.41,305.658 211.74,308.873 201.1,306.683 C181.49,302.647 170.05,284.225 165.28,266.056 C159.55,244.233 168.53,221.912 174.83,201.153 C180.73,181.718 190.99,176.108 210.69,174.416 C234.37,175.223 261.4,184.699 275.6,204.588 C289.68,224.301 293.77,251.572 281.84,273.204 Z M258.18,185.565 C243.08,177.264 226.51,173.047 209.16,172.659 C207.2,172.659 205.22,172.524 203.27,172.68 C188.25,173.881 179.09,181.887 174.34,195.902 C168.37,213.507 160.94,234.741 161.59,253.442 C162.77,287.255 193.46,324.531 229.1,304.02 C234.76,300.762 241.13,298.665 247.32,296.431 C258.87,292.266 270.12,291.429 278.67,281.751 C287.18,272.125 291.3,258.394 291.34,245.726 C291.44,222.163 279.19,197.114 258.18,185.565 Z" id="Fill-32"></path>
            </g>
        </g>
    </g>
</svg>