<?xml version="1.0" encoding="UTF-8"?>
<svg width="1411px" height="395px" viewBox="0 0 1411 395" version="1.1" xmlns="http://www.w3.org/2000/svg" xmlns:xlink="http://www.w3.org/1999/xlink">
    <!-- Generator: Sketch 64 (93537) - https://sketch.com -->
    <title>Group 2</title>
    <desc>Created with Sketch.</desc>
    <g id="Page-1" stroke="none" stroke-width="1" fill="none" fill-rule="evenodd">
        <g id="Event-Photo" transform="translate(-255.000000, -342.000000)" fill-rule="nonzero">
            <g id="Group-2" transform="translate(255.000000, 342.000000)">
                <g id="Group">
                    <g transform="translate(1246.140893, 0.000000)" fill="#F09491" id="Path">
                        <path d="M116.965112,79.2059816 C110.625309,49.5082822 89.1815034,24.7662577 65.1193471,4.51947853 C64.9738832,4.60429448 64.8162973,4.67699387 64.6587113,4.76180982 L49.6395619,13.4372699 C52.1609364,15.2305215 54.633823,16.9995399 57.0339777,18.7079755 C74.6957216,31.2486196 87.5814003,48.9872699 92.8302234,70.154908 C97.7032646,89.7716258 95.3637199,112.163037 84.587268,129.526074 C71.4712715,150.657362 51.7366667,150.730061 30.5474227,153.904601 L64.6587113,173.594018 C65.6648368,174.175613 66.6952062,174.684509 67.7376976,175.157055 C106.079562,164.712577 124.711065,115.458742 116.965112,79.2059816 Z"></path>
                        <path d="M82.9992869,123.370859 C104.188531,79.3877301 80.4779124,40.5783742 45.6029381,15.7636503 L33.9779467,22.476227 C50.9851031,32.5572086 65.5072509,46.9153374 71.1197337,59.9406442 C78.6232474,77.3763804 79.7627148,103.536043 69.5317526,120.026687 C60.2220619,135.014877 44.6695447,136.977761 28.7897337,140.249233 C23.9894244,141.242791 19.0315292,142.684663 14.0130241,144.029601 C15.1646134,144.901994 16.3646907,145.701687 17.625378,146.428681 L24.5227921,150.415031 C26.0380412,150.148466 27.5654124,149.894018 29.0927835,149.67592 C51.5669588,146.452914 71.7137113,146.816411 82.9992869,123.370859 Z"></path>
                        <path d="M71.0227577,105.014264 C80.1384966,68.6403374 57.5067354,41.3538344 27.5290464,26.1960123 L17.6375,31.9029141 C15.5646392,33.102454 13.6493643,34.4958589 11.8916753,36.0588957 C44.075567,42.9047546 79.0353952,82.5501534 50.3183935,115.022546 C42.5239519,123.831288 25.8440893,126.484816 15.1646134,130.931595 C11.7219674,132.373466 8.36417526,133.427607 5.10335911,134.033436 C6.81256014,136.917178 8.93390893,139.546472 11.4310395,141.84862 C21.6741237,139.643405 31.9535739,136.081135 40.548067,134.251534 C56.7066838,130.798313 66.9255241,121.335276 71.0227577,105.014264 Z"></path>
                        <path d="M163.889347,62.0246933 C163.889347,52.0769939 159.634527,42.7472393 152.421942,36.2285276 C156.870713,44.5768405 160.786117,53.1917178 163.889347,62.0610429 L163.889347,62.0246933 Z"></path>
                        <path d="M50.2941495,107.437577 C67.4467698,76.3464724 35.8689777,43.0622699 8.26719931,39.8150307 C3.16384021,45.9581288 0.230317869,53.7854294 0.230317869,62.0246933 L0.230317869,116.306902 C0.230317869,120.971779 1.16371134,125.515491 2.90927835,129.683589 C6.58224227,129.11411 10.3885481,127.914571 14.3645619,126.339417 C26.6077749,121.541258 43.3724914,119.978221 50.2941495,107.437577 Z"></path>
                        <path d="M143.221349,30.0127301 L102.273256,6.38542945 C116.04384,22.6337423 128.408273,40.166411 135.172345,60.279908 C144.215352,87.1907975 145.960919,122.655982 136.263325,149.700153 C135.851177,150.863344 135.390541,152.002301 134.929905,153.117025 L146.506409,146.440798 C157.270739,140.225 163.901469,128.750613 163.901469,116.319018 L163.901469,80.7932515 C160.022431,63.4180982 152.882577,46.6124233 143.572887,30.6064417 C143.451667,30.4125767 143.330447,30.2065951 143.221349,30.0127301 Z"></path>
                        <path d="M131.729699,64.1087423 C124.456503,41.4386503 108.649424,20.2104294 92.5150515,1.72055215 C84.59939,-0.775460123 75.9927749,-0.363496933 68.3074313,2.94432515 C79.9930326,13.1949387 90.8422165,24.1846626 100.564055,36.7980061 C129.72957,74.6016871 132.493385,136.214417 91.8604639,168.238497 C86.5995189,172.382362 80.7688402,175.302454 74.5866237,177.39862 C82.950799,179.240337 91.8362199,177.980215 99.4730756,173.569785 L128.359785,156.897393 C130.444768,153.23819 132.287311,149.25184 133.851048,144.877761 C142.275833,121.262577 139.366555,87.8814417 131.729699,64.1087423 Z"></path>
                    </g>
                    <g transform="translate(0.000000, 135.000000)" fill="#25282A">
                        <path d="M253.264802,89.6319018 C211.698488,89.6319018 180.229794,122.067945 176.411366,162.513037 C172.532328,203.685123 194.848918,245.717485 237.651675,254.053681 C262.016881,258.803374 291.824863,252.951074 311.523101,237.357055 C314.12933,235.442638 314.783918,234.267331 314.868771,233.613037 C315.002113,232.655828 314.092964,231.407822 312.795911,229.735736 C311.571589,228.112117 310.468488,226.609663 309.365387,225.107209 L308.989605,224.586196 C307.983479,223.229141 306.977354,221.847853 305.886375,220.393865 C304.140808,217.994785 303.66805,218.043252 298.685911,220.926994 L297.255515,221.763037 C277.751229,233.625153 253.167826,239.053374 232.014948,228.221166 C213.880447,218.927761 200.958402,200.02592 199.746203,179.597393 L199.612861,177.392178 L318.493247,177.392178 C321.18433,177.392178 323.426899,175.235429 323.717826,172.37592 C329.948531,128.453374 298.055567,89.6319018 253.264802,89.6319018 Z M199.903789,158.878067 L200.158351,156.57592 C200.34018,154.976534 200.594742,153.413497 200.909914,151.862577 C205.043514,131.942945 220.559665,116.567025 240.039708,111.768865 C240.148806,111.744632 240.270026,111.720399 240.379124,111.696166 C241.664055,111.393252 242.97323,111.138804 244.294527,110.920706 C244.803651,110.83589 245.324897,110.787423 245.846143,110.714724 C246.888634,110.581442 247.919003,110.44816 248.973617,110.37546 C249.119081,110.363344 249.264545,110.33911 249.410009,110.326994 C249.713058,110.302761 250.003986,110.326994 250.294914,110.314877 C273.278213,109.24862 293.485576,125.290951 299.182912,146.870552 C299.195034,146.919018 299.207156,146.955368 299.219278,147.003834 C299.570816,148.36089 299.849622,149.754294 300.07994,151.159816 C300.116306,151.377914 300.176916,151.596012 300.213282,151.826227 C300.455722,153.425613 300.637552,155.06135 300.722405,156.697086 L300.831503,158.878067 L199.903789,158.878067 Z" id="Shape"></path>
                        <path d="M419.95433,93.0608896 C387.976512,93.0608896 373.199802,113.428834 373.054338,113.634816 L370.520842,117.245552 L366.096314,101.239571 C365.514459,98.6345092 363.69616,97.0957055 361.223273,97.0957055 L347.901203,97.0957055 L347.901203,252.890491 C347.901203,254.005215 348.810352,254.913957 349.925576,254.913957 L358.544313,254.913957 C365.805387,254.913957 371.696675,249.025307 371.696675,241.767485 L371.696675,140.618405 L371.987603,140.133742 C383.588351,120.311043 413.881211,110.654141 434.573454,119.850613 C436.609948,120.662423 438.125198,120.832055 439.179811,120.371626 C440.125326,119.959663 440.889012,118.966104 441.507234,117.354601 L446.356031,103.63865 C446.998497,101.833282 446.889399,100.427761 446.004493,99.1797546 C443.337655,95.3993865 433.361254,93.0608896 419.95433,93.0608896 Z" id="Path"></path>
                        <path d="M654.199725,93.6788344 C635.216684,93.6788344 614.524442,102.620859 595.929304,118.857055 C595.553522,119.184202 595.286838,119.414417 595.141375,119.535583 L593.298832,121.013804 L592.062388,119.014571 C571.297414,85.4880368 516.215077,86.0332822 490.86799,114.446626 L488.370859,117.257669 L483.679648,101.094172 C483.061426,98.6345092 481.849227,97.7378834 479.19451,97.7378834 L465.884562,97.7378834 L465.884562,253.532669 C465.884562,254.647393 466.793711,255.556135 467.908935,255.556135 L476.527672,255.556135 C483.800868,255.556135 489.692156,249.667485 489.692156,242.397546 L489.692156,141.127301 L490.116426,140.569939 C501.63232,125.121319 522.348806,115.670399 541.392457,116.76089 C567.903256,118.287577 578.534244,140.303374 578.534244,164.488037 L578.534244,253.532669 C578.534244,254.647393 579.443393,255.556135 580.558617,255.556135 L589.57738,255.556135 C596.838454,255.556135 602.729742,249.667485 602.729742,242.409663 L602.729742,164.003374 C602.729742,156.551687 602.063033,149.112117 600.741735,141.781595 L600.535662,140.666871 L602.160009,139.164417 C617.809502,124.503374 638.71994,113.319785 660.854699,117.390951 C683.704656,121.595399 690.747534,143.817178 690.747534,164.500153 L690.747534,253.544785 C690.747534,254.659509 691.656684,255.568252 692.771907,255.568252 L701.79067,255.568252 C709.063866,255.568252 714.943033,249.679601 714.943033,242.421779 L714.943033,164.51227 C714.918789,117.5 694.49323,93.6788344 654.199725,93.6788344 Z" id="Path"></path>
                        <path d="M64.3799055,71.3601227 L0.96975945,71.3601227 L0.96975945,255.544018 L64.3799055,255.544018 C114.661933,255.544018 156.785859,213.46319 156.77374,163.191564 C156.761615,112.980521 114.455859,71.3601227 64.3799055,71.3601227 Z M118.516727,205.59954 C105.849244,223.011043 85.0842698,232.995092 61.5676031,232.995092 L23.9773024,232.995092 L23.9773024,93.6424847 L71.6894674,93.6424847 C96.9153351,93.6424847 119.001607,109.490951 126.638462,133.069785 C135.499639,160.465337 132.626727,186.213037 118.516727,205.59954 Z" id="Shape"></path>
                        <path d="M801.40921,150.105675 C820.174055,150.105675 838.126727,155.812577 842.611864,157.448313 C842.611864,121.559049 838.9389,103.614417 806.706521,103.614417 C779.783574,103.614417 761.418754,113.404601 757.74579,114.628374 C754.484974,115.852147 752.448479,114.216411 751.624184,111.369018 L749.587689,106.473926 C748.363368,102.802607 749.999837,101.166871 752.036332,100.355061 C753.260653,99.5432515 774.074115,88.1173313 807.930842,88.1173313 C857.703746,88.1173313 859.740241,117.88773 859.740241,159.483896 L859.740241,255.313804 L849.545644,255.313804 C846.684854,255.313804 845.472655,253.678067 844.648359,250.830675 L843.01189,236.145399 C832.405146,245.935583 812.415979,259.384969 786.305206,259.384969 C756.109321,259.384969 732.859338,238.592945 732.859338,205.151227 C732.87146,173.757209 758.570086,150.105675 801.40921,150.105675 Z M788.353823,243.488037 C813.240275,243.488037 834.865911,228.402914 842.611864,218.200767 L842.611864,173.345245 C837.302431,170.897699 820.986229,164.778834 801.40921,164.778834 C770.401151,164.778834 749.599804,180.687883 749.599804,204.739264 C749.587689,228.402914 765.916014,243.488037 788.353823,243.488037 Z" id="Shape"></path>
                        <path d="M895.645584,9.0809816 C895.645584,4.10107362 899.682208,0.0662576687 904.664347,0.0662576687 C908.119115,0.0662576687 911.258711,0.0662576687 911.258711,0.0662576687 C912.325447,0.0662576687 913.19823,0.938650307 913.19823,2.00490798 L913.19823,104.426227 C913.19823,104.426227 932.775249,88.1173313 963.783308,88.1173313 C1009.88325,88.1173313 1043.7521,125.230368 1043.7521,173.345245 C1043.7521,221.060276 1010.70754,259.397086 968.680593,259.397086 C937.260387,259.397086 916.871194,241.040491 911.973909,235.333589 L910.749588,250.018865 C910.33744,253.690184 908.300945,255.32592 905.040129,255.32592 L895.657706,255.32592 L895.657706,9.0809816 L895.645584,9.0809816 Z M967.044124,243.076074 C1001.313,243.076074 1026.19945,211.669939 1026.19945,173.745092 C1026.19945,135.008436 999.276503,105.637883 961.734691,105.637883 C932.363101,105.637883 913.586134,122.770706 913.586134,122.770706 L913.586134,214.117485 C914.41043,215.753221 931.963076,243.076074 967.044124,243.076074 Z" id="Shape"></path>
                        <path d="M1064.55344,40.3538344 C1064.55344,32.5992331 1070.67504,26.0805215 1078.421,26.0805215 C1086.16695,26.0805215 1092.28856,32.5992331 1092.28856,40.3538344 C1092.28856,47.6964724 1086.16695,53.8153374 1078.421,53.8153374 C1070.66292,53.8032209 1064.55344,47.6843558 1064.55344,40.3538344 Z M1069.45072,253.508436 L1069.45072,101.203221 C1069.45072,96.2233129 1073.48735,92.1884969 1078.46948,92.1884969 L1085.59722,92.1884969 C1086.59122,92.1884969 1087.40339,93.0003067 1087.40339,93.993865 L1087.40339,246.29908 C1087.40339,251.278988 1083.36677,255.313804 1078.38463,255.313804 L1071.2569,255.313804 C1070.25077,255.313804 1069.45072,254.501994 1069.45072,253.508436 Z" id="Shape"></path>
                        <path d="M1124.93308,253.508436 L1124.93308,9.0809816 C1124.93308,4.10107362 1128.96971,0.0662576687 1133.95185,0.0662576687 L1141.07958,0.0662576687 C1142.07358,0.0662576687 1142.88576,0.878067485 1142.88576,1.87162577 L1142.88576,246.29908 C1142.88576,251.278988 1138.84913,255.313804 1133.86699,255.313804 L1126.73926,255.313804 C1125.73314,255.313804 1124.93308,254.501994 1124.93308,253.508436 Z" id="Path"></path>
                        <path d="M1248.9532,88.1173313 C1291.79232,88.1173313 1322.80038,119.523466 1322.80038,162.743252 C1322.80038,169.27408 1322.80038,178.652301 1316.67877,178.652301 L1186.53705,178.652301 C1188.17352,213.717638 1213.46,243.08819 1250.17752,243.08819 C1271.80315,243.08819 1288.5315,234.521779 1298.31395,228.003067 C1301.98692,225.555521 1303.62338,225.143558 1305.65988,228.003067 L1309.73287,233.709969 C1310.95719,235.345706 1310.54504,237.781135 1308.0964,240.240798 C1299.9383,248.395245 1274.22755,259.409202 1248.94107,259.409202 C1199.16817,259.409202 1168.57226,221.072393 1168.57226,173.357362 C1168.58438,126.853988 1199.18029,88.1173313 1248.9532,88.1173313 Z M1304.84771,163.967025 C1304.84771,132.161043 1285.67071,104.426227 1248.9532,104.426227 C1213.04785,104.426227 1188.97357,130.525307 1186.93708,163.967025 L1304.84771,163.967025 Z" id="Shape"></path>
                        <path d="M824.562216,35.2042945 C827.604837,31.5572086 829.774674,29.1217791 831.059605,27.9101227 C832.344536,26.6984663 834.065859,26.0805215 836.187208,26.0805215 C838.320679,26.0805215 840.138978,26.8802147 841.666349,28.4796012 C843.181598,30.0789877 843.945284,31.9449387 843.945284,34.0653374 C843.945284,35.7374233 843.448282,37.0338957 842.4664,37.942638 C841.472397,38.8513804 840.599613,39.6147239 839.835928,40.2205521 L800.815232,68.040184 L797.627148,68.040184 L824.562216,35.2042945 Z" id="Path"></path>
                    </g>
                </g>
            </g>
        </g>
    </g>
</svg>