<?xml version="1.0" encoding="UTF-8"?>
<svg width="598px" height="652px" viewBox="0 0 598 652" version="1.1" xmlns="http://www.w3.org/2000/svg" xmlns:xlink="http://www.w3.org/1999/xlink">
    <!-- Generator: Sketch 64 (93537) - https://sketch.com -->
    <title>Group</title>
    <desc>Created with Sketch.</desc>
    <g id="Page-1" stroke="none" stroke-width="1" fill="none" fill-rule="evenodd">
        <g id="dermabile-logo" transform="translate(-661.000000, -214.000000)" fill="#F09491" fill-rule="nonzero">
            <g id="Group" transform="translate(661.000000, 214.000000)">
                <path d="M426.36,289.63 C403.21,181.25 325.01,90.92 237.2,17.01 C236.65,17.32 236.08,17.59 235.53,17.9 L180.72,49.55 C189.92,56.09 198.92,62.55 207.71,68.79 C272.16,114.57 319.14,179.31 338.32,256.56 C356.1,328.18 347.55,409.9 308.24,473.27 C260.4,550.38 188.4,550.67 111.07,562.23 L235.54,634.09 C239.21,636.21 242.98,638.06 246.79,639.78 C386.64,601.75 454.63,421.96 426.36,289.63 Z" id="Path"></path>
                <path d="M302.44,450.83 C379.76,290.28 293.26,148.64 166,58.04 L123.59,82.53 C185.62,119.34 238.64,171.73 259.11,219.29 C286.5,282.94 290.65,378.4 253.3,438.61 C219.35,493.34 162.59,500.47 104.65,512.42 C87.15,516.03 69.04,521.32 50.75,526.23 C54.93,529.4 59.31,532.34 63.92,535.01 L89.1,549.55 C94.65,548.58 100.2,547.66 105.78,546.86 C187.73,535.08 261.23,536.41 302.44,450.83 Z" id="Path"></path>
                <path d="M258.71,383.82 C291.95,251.05 209.4,151.46 100.03,96.13 L63.93,116.98 C56.36,121.35 49.36,126.45 42.97,132.14 C160.41,157.14 287.92,301.83 183.18,420.36 C154.76,452.52 93.9,462.19 54.92,478.44 C42.35,483.68 30.12,487.56 18.2,489.76 C24.43,500.28 32.2,509.88 41.27,518.26 C78.63,510.19 116.16,497.2 147.51,490.52 C206.49,477.96 243.79,443.43 258.71,383.82 Z" id="Path"></path>
                <path d="M597.56,226.92 C597.56,190.63 582.03,156.57 555.72,132.78 C571.96,163.26 586.22,194.7 597.56,227.06 L597.56,226.92 Z" id="Path"></path>
                <path d="M183.08,392.68 C245.67,279.21 130.44,157.69 29.76,145.86 C11.13,168.3 0.44,196.83 0.44,226.91 L0.44,425.06 C0.44,442.11 3.86,458.66 10.21,473.9 C23.6,471.82 37.49,467.42 52.02,461.7 C96.67,444.14 157.84,438.44 183.08,392.68 Z" id="Path"></path>
                <path d="M522.13,110.08 L372.72,23.82 C422.96,83.12 468.07,147.14 492.74,220.54 C525.75,318.76 532.09,448.23 496.71,546.93 C495.19,551.18 493.54,555.32 491.84,559.41 L534.08,535.02 C573.36,512.34 597.56,470.43 597.56,425.07 L597.56,295.42 C583.43,231.98 557.35,170.66 523.4,112.25 C522.98,111.53 522.55,110.8 522.13,110.08 Z" id="Path"></path>
                <path d="M480.22,234.51 C453.69,151.78 396.01,74.28 337.14,6.81 C308.24,-2.29 276.87,-0.8 248.8,11.29 C291.46,48.7 331,88.83 366.47,134.84 C472.87,272.84 482.96,497.74 334.7,614.61 C315.5,629.75 294.23,640.39 271.69,648.05 C302.21,654.77 334.63,650.16 362.49,634.08 L467.88,573.23 C475.48,559.88 482.2,545.33 487.9,529.36 C518.69,443.12 508.05,321.32 480.22,234.51 Z" id="Path"></path>
            </g>
        </g>
    </g>
</svg>