<?xml version="1.0" encoding="UTF-8"?>
<svg width="1164px" height="326px" viewBox="0 0 1164 326" version="1.1" xmlns="http://www.w3.org/2000/svg" xmlns:xlink="http://www.w3.org/1999/xlink">
    <!-- Generator: Sketch 64 (93537) - https://sketch.com -->
    <title>Group 21</title>
    <desc>Created with Sketch.</desc>
    <g id="Page-1" stroke="none" stroke-width="1" fill="none" fill-rule="evenodd">
        <g id="Artboard" transform="translate(-471.000000, -1019.000000)">
            <g id="Group-22" transform="translate(93.000000, 642.000000)">
                <g id="Group-21" transform="translate(378.000000, 377.000000)">
                    <path d="M1124.493,65.3687 C1119.259,40.8627 1101.577,20.4397 1081.722,3.7277 C1081.597,3.7967 1081.468,3.8577 1081.344,3.9297 L1068.95,11.0847 C1071.03,12.5647 1073.065,14.0247 1075.052,15.4357 C1089.625,25.7857 1100.247,40.4247 1104.584,57.8907 C1108.604,74.0847 1106.671,92.5627 1097.783,106.8907 C1086.967,124.3267 1070.686,124.3907 1053.2,127.0067 L1081.344,143.2557 C1082.173,143.7337 1083.025,144.1537 1083.888,144.5427 C1115.512,135.9427 1130.885,95.2897 1124.493,65.3687" id="Fill-3" fill="#F09491"></path>
                    <path d="M1096.475,101.8184 C1113.957,65.5164 1094.399,33.4904 1065.624,13.0054 L1056.035,18.5414 C1070.061,26.8634 1082.049,38.7094 1086.677,49.4654 C1092.87,63.8564 1093.808,85.4414 1085.363,99.0554 C1077.686,111.4294 1064.851,113.0424 1051.752,115.7454 C1047.794,116.5624 1043.702,117.7564 1039.565,118.8684 C1040.51,119.5854 1041.5,120.2514 1042.543,120.8534 L1048.238,124.1414 C1049.492,123.9214 1050.748,123.7144 1052.008,123.5324 C1070.537,120.8674 1087.156,121.1684 1096.475,101.8184" id="Fill-5" fill="#F09491"></path>
                    <path d="M1086.586,86.6675 C1094.103,56.6475 1075.437,34.1295 1050.706,21.6175 L1042.543,26.3315 C1040.83,27.3195 1039.249,28.4735 1037.805,29.7585 C1064.357,35.4115 1093.19,68.1275 1069.508,94.9275 C1063.082,102.1995 1049.32,104.3855 1040.508,108.0595 C1037.665,109.2445 1034.9,110.1215 1032.205,110.6195 C1033.614,112.9975 1035.37,115.1685 1037.422,117.0645 C1045.868,115.2405 1054.357,112.3015 1061.443,110.7925 C1074.778,107.9535 1083.212,100.1445 1086.586,86.6675" id="Fill-6" fill="#F09491"></path>
                    <path d="M1163.202,51.1904 C1163.202,42.9844 1159.691,35.2834 1153.742,29.9044 C1157.414,36.7944 1160.639,43.9054 1163.202,51.2224 L1163.202,51.1904 Z" id="Fill-7" fill="#F09491"></path>
                    <path d="M1069.486,88.6704 C1083.639,63.0134 1057.583,35.5374 1034.82,32.8634 C1030.608,37.9384 1028.19,44.3894 1028.19,51.1904 L1028.19,95.9934 C1028.19,99.8484 1028.964,103.5914 1030.399,107.0364 C1033.426,106.5654 1036.567,105.5724 1039.853,104.2794 C1049.947,100.3064 1063.779,99.0154 1069.486,88.6704" id="Fill-8" fill="#F09491"></path>
                    <path d="M1146.148,24.772 L1112.365,5.267 C1123.724,18.675 1133.925,33.152 1139.502,49.746 C1146.964,71.953 1148.4,101.228 1140.399,123.545 C1140.054,124.506 1139.683,125.443 1139.298,126.367 L1148.849,120.853 C1157.73,115.726 1163.202,106.249 1163.202,95.994 L1163.202,66.679 C1160.006,52.335 1154.109,38.468 1146.435,25.261 C1146.34,25.099 1146.244,24.935 1146.148,24.772" id="Fill-9" fill="#F09491"></path>
                    <path d="M1136.671,52.9072 C1130.671,34.2012 1117.631,16.6772 1104.318,1.4222 C1097.784,-0.6358 1090.692,-0.2998 1084.344,2.4362 C1093.988,10.8942 1102.929,19.9692 1110.95,30.3722 C1135.008,61.5762 1137.289,112.4272 1103.766,138.8532 C1099.425,142.2762 1094.615,144.6822 1089.519,146.4142 C1096.419,147.9352 1103.751,146.8912 1110.049,143.2552 L1133.879,129.4962 C1135.597,126.4782 1137.117,123.1882 1138.406,119.5772 C1145.371,100.0752 1142.965,72.5332 1136.671,52.9072" id="Fill-10" fill="#F09491"></path>
                    <path d="M164.9072,242.9473 L165.1192,241.0433 C165.2682,239.7263 165.4762,238.4303 165.7412,237.1563 C169.1502,220.7123 181.9472,208.0233 198.0172,204.0693 C198.1102,204.0473 198.2062,204.0283 198.3002,204.0063 C199.3622,203.7513 200.4412,203.5413 201.5302,203.3643 C201.9532,203.2963 202.3822,203.2513 202.8082,203.1943 C203.6642,203.0813 204.5222,202.9743 205.3912,202.9113 C205.5112,202.9023 205.6282,202.8803 205.7492,202.8723 C205.9952,202.8563 206.2352,202.8753 206.4812,202.8633 C225.4442,201.9863 242.1082,215.2223 246.8082,233.0373 C246.8182,233.0743 246.8322,233.1093 246.8422,233.1473 C247.1352,234.2693 247.3582,235.4173 247.5532,236.5723 C247.5852,236.7573 247.6352,236.9343 247.6632,237.1203 C247.8672,238.4433 248.0092,239.7853 248.0792,241.1443 L248.1682,242.9473 L164.9072,242.9473 Z M208.9322,185.8023 C174.6472,185.8023 148.6792,212.5723 145.5372,245.9523 C142.3382,279.9303 160.7502,314.6233 196.0592,321.5053 C216.1622,325.4233 240.7542,320.5923 256.9952,307.7293 C259.1492,306.1473 259.6842,305.1783 259.7592,304.6433 C259.8692,303.8553 259.1182,302.8193 258.0452,301.4403 C257.0352,300.0953 256.1252,298.8563 255.2172,297.6163 L254.9032,297.1853 C254.0752,296.0623 253.2422,294.9293 252.3412,293.7303 C250.9032,291.7463 250.5102,291.7893 246.3962,294.1703 L245.2182,294.8563 C229.1322,304.6413 208.8462,309.1313 191.4002,300.1813 C176.4452,292.5103 165.7852,276.9133 164.7782,260.0513 L164.6702,258.2333 L262.7402,258.2333 C264.9582,258.2333 266.8102,256.4553 267.0482,254.0943 C272.1862,217.8403 245.8772,185.8023 208.9322,185.8023 L208.9322,185.8023 Z" id="Fill-11" fill="#FFFFFF"></path>
                    <path d="M346.4395,188.625 C320.0555,188.625 307.8655,205.434 307.7465,205.604 L305.6535,208.588 L302.0075,195.382 C301.5315,193.229 300.0295,191.964 297.9835,191.964 L286.9995,191.964 L286.9995,320.548 C286.9995,321.468 287.7455,322.214 288.6645,322.214 L295.7705,322.214 C301.7655,322.214 306.6265,317.354 306.6265,311.358 L306.6265,227.879 L306.8665,227.476 C316.4365,211.115 341.4265,203.145 358.5015,210.738 C360.1775,211.406 361.4325,211.548 362.3035,211.169 C363.0825,210.824 363.7105,210.013 364.2205,208.683 L368.2165,197.366 C368.7465,195.88 368.6545,194.714 367.9305,193.684 C365.7345,190.563 357.4985,188.625 346.4395,188.625" id="Fill-12" fill="#FFFFFF"></path>
                    <path d="M539.6826,189.1436 C524.0216,189.1436 506.9516,196.5216 491.6176,209.9206 C491.3096,210.1926 491.0846,210.3856 490.9646,210.4846 L489.4446,211.7036 L488.4266,210.0506 C471.2986,182.3796 425.8516,182.8336 404.9436,206.2816 L402.8786,208.5986 L399.0056,195.2536 C398.4976,193.2266 397.4976,192.4826 395.3076,192.4826 L384.3236,192.4826 L384.3236,321.0666 C384.3236,321.9866 385.0686,322.7326 385.9886,322.7326 L393.0946,322.7326 C399.0916,322.7326 403.9536,317.8716 403.9536,311.8736 L403.9536,228.2926 L404.3006,227.8336 C413.8046,215.0896 430.8866,207.2826 446.5966,208.1886 C468.4656,209.4496 477.2336,227.6186 477.2336,247.5816 L477.2336,321.0666 C477.2336,321.9866 477.9786,322.7326 478.8986,322.7326 L486.3366,322.7326 C492.3316,322.7326 497.1926,317.8726 497.1926,311.8766 L497.1926,247.1696 C497.1926,241.0196 496.6426,234.8806 495.5486,228.8286 L495.3826,227.9086 L496.7216,226.6676 C509.6286,214.5676 526.8806,205.3416 545.1406,208.6996 C563.9936,212.1646 569.8046,230.5046 569.8046,247.5816 L569.8046,321.0666 C569.8046,321.9866 570.5496,322.7326 571.4696,322.7326 L578.9116,322.7326 C584.9076,322.7326 589.7666,317.8726 589.7666,311.8766 L589.7666,247.5816 C589.7666,208.8046 572.9146,189.1436 539.6826,189.1436" id="Fill-13" fill="#FFFFFF"></path>
                    <path d="M97.7686,281.5117 C87.3146,295.8807 70.1916,304.1237 50.7866,304.1237 L19.7756,304.1237 L19.7756,189.1137 L59.1396,189.1137 C79.9516,189.1137 98.1686,202.1897 104.4706,221.6537 C111.7836,244.2547 109.4056,265.5127 97.7686,281.5117 M53.1066,170.7247 L0.7976,170.7247 L0.7976,322.7327 L53.1066,322.7327 C94.5886,322.7327 129.3336,287.9997 129.3276,246.5107 C129.3216,205.0737 94.4156,170.7247 53.1066,170.7247" id="Fill-14" fill="#FFFFFF"></path>
                    <path d="M650.349,312.7783 C670.879,312.7783 688.717,300.3253 695.113,291.9113 L695.113,254.8893 C690.737,252.8703 677.274,247.8213 661.12,247.8213 C635.54,247.8213 618.3746,260.9473 618.3746,280.8043 C618.3746,300.3253 631.838,312.7783 650.349,312.7783 M661.12,235.7053 C676.602,235.7053 691.411,240.4173 695.113,241.7623 C695.113,212.1443 692.082,197.3363 665.494,197.3363 C643.282,197.3363 628.135,205.4143 625.107,206.4243 C622.413,207.4333 620.7316,206.0873 620.0576,203.7303 L618.3746,199.6923 C617.3656,196.6633 618.7116,195.3173 620.3936,194.6443 C621.4036,193.9703 638.57,184.5473 666.503,184.5473 C707.565,184.5473 709.247,209.1163 709.247,243.4453 L709.247,322.5393 L700.833,322.5393 C698.478,322.5393 697.468,321.1923 696.794,318.8363 L695.449,306.7203 C686.698,314.7983 670.206,325.9043 648.665,325.9043 C623.761,325.9043 604.5756,308.7393 604.5756,281.1403 C604.5756,255.2253 625.78,235.7053 661.12,235.7053" id="Fill-15" fill="#FFFFFF"></path>
                    <path d="M797.76,312.4414 C826.031,312.4414 846.562,286.5254 846.562,255.2254 C846.562,223.2524 824.348,199.0194 793.385,199.0194 C769.153,199.0194 753.67,213.1554 753.67,213.1554 L753.67,288.5454 C754.344,289.8914 768.817,312.4414 797.76,312.4414 L797.76,312.4414 Z M738.862,119.3174 C738.862,115.2094 742.192,111.8794 746.299,111.8794 L751.735,111.8794 C752.618,111.8794 753.334,112.5954 753.334,113.4784 L753.334,198.0094 C753.334,198.0094 769.489,184.5464 795.069,184.5464 C833.099,184.5464 861.034,215.1744 861.034,254.8894 C861.034,294.2664 833.773,325.9044 799.108,325.9044 C773.191,325.9044 756.363,310.7584 752.324,306.0464 L751.315,318.1634 C750.979,321.1924 749.295,322.5394 746.603,322.5394 L738.862,322.5394 L738.862,119.3174 Z" id="Fill-16" fill="#FFFFFF"></path>
                    <path d="M882.235,321.0508 L882.235,195.3508 C882.235,191.2418 885.565,187.9128 889.672,187.9128 L895.556,187.9128 C896.378,187.9128 897.044,188.5788 897.044,189.4008 L897.044,315.1008 C897.044,319.2088 893.714,322.5388 889.605,322.5388 L883.722,322.5388 C882.901,322.5388 882.235,321.8728 882.235,321.0508 M878.196,145.1268 C878.196,138.7308 883.245,133.3468 889.64,133.3468 C896.034,133.3468 901.082,138.7308 901.082,145.1268 C901.082,151.1838 896.034,156.2328 889.64,156.2328 C883.245,156.2328 878.196,151.1838 878.196,145.1268" id="Fill-17" fill="#FFFFFF"></path>
                    <path d="M928.009,321.0508 L928.009,119.3168 C928.009,115.2098 931.339,111.8798 935.446,111.8798 L941.329,111.8798 C942.152,111.8798 942.818,112.5458 942.818,113.3668 L942.818,315.1008 C942.818,319.2088 939.488,322.5388 935.379,322.5388 L929.496,322.5388 C928.675,322.5388 928.009,321.8728 928.009,321.0508" id="Fill-18" fill="#FFFFFF"></path>
                    <path d="M1076.433,247.1484 C1076.433,220.8954 1060.615,198.0094 1030.324,198.0094 C1000.706,198.0094 980.848,219.5494 979.166,247.1484 L1076.433,247.1484 Z M1030.324,184.5464 C1065.662,184.5464 1091.242,210.4624 1091.242,246.1384 C1091.242,251.5234 1091.242,259.2644 1086.194,259.2644 L978.829,259.2644 C980.176,288.2094 1001.042,312.4414 1031.333,312.4414 C1049.171,312.4414 1062.97,305.3744 1071.047,299.9894 C1074.078,297.9694 1075.423,297.6324 1077.107,299.9894 L1080.471,304.7014 C1081.481,306.0464 1081.145,308.0654 1079.125,310.0864 C1072.394,316.8164 1051.19,325.9044 1030.324,325.9044 C989.263,325.9044 964.02,294.2664 964.02,254.8894 C964.02,216.5204 989.263,184.5464 1030.324,184.5464 L1030.324,184.5464 Z" id="Fill-19" fill="#FFFFFF"></path>
                    <path d="M680.219,140.8755 C682.728,137.8645 684.516,135.8585 685.584,134.8525 C686.649,133.8495 688.061,133.3465 689.819,133.3465 C691.574,133.3465 693.08,134.0055 694.337,135.3225 C695.589,136.6405 696.219,138.1795 696.219,139.9345 C696.219,141.3175 695.811,142.3815 694.996,143.1345 C694.178,143.8875 693.457,144.5175 692.831,145.0175 L660.643,167.9815 L658.007,167.9815 L680.219,140.8755 Z" id="Fill-20" fill="#FFFFFF"></path>
                </g>
            </g>
        </g>
    </g>
</svg>