<?xml version="1.0" encoding="UTF-8"?>
<svg width="1690px" height="100px" viewBox="0 0 1690 100" version="1.1" xmlns="http://www.w3.org/2000/svg" xmlns:xlink="http://www.w3.org/1999/xlink">
    <!-- Generator: Sketch 64 (93537) - https://sketch.com -->
    <title>Fill 13</title>
    <desc>Created with Sketch.</desc>
    <g id="Page-1" stroke="none" stroke-width="1" fill="none" fill-rule="evenodd">
        <g id="ornaments_ornaments" transform="translate(-182.000000, -3360.000000)" fill="#D9D9D6">
            <path d="M1400.35,3423.19 C1397.73,3424.18 1394.37,3425.41 1390.27,3426.88 C1386.18,3428.36 1382.16,3429.26 1378.22,3429.59 C1379.46,3424.99 1379.81,3420.38 1379.31,3415.78 L1421.33,3415.78 C1416.24,3417.73 1403.37,3421.98 1400.35,3423.19 Z M1372.82,3429.59 C1368.23,3428.93 1365.44,3426.31 1364.46,3421.72 C1364.79,3421.39 1364.94,3420.57 1364.94,3419.26 C1364.94,3418.6 1364.62,3417.95 1363.96,3417.29 C1363.31,3416.63 1362.33,3416.39 1361.01,3416.56 C1359.71,3416.72 1359.05,3417.46 1359.05,3418.77 C1359.05,3420.41 1359.22,3421.55 1359.54,3422.21 C1358.89,3425.48 1357.49,3428.19 1355.35,3430.32 C1353.23,3432.45 1350.36,3433.19 1346.75,3432.54 C1342.16,3431.88 1339.3,3429.17 1338.15,3424.43 C1337.39,3421.29 1337.04,3418.41 1337.06,3415.78 L1374.41,3415.78 C1374.85,3420.45 1374.33,3425.05 1372.82,3429.59 Z M1367.4,3441.39 C1366.1,3443.36 1364.62,3445.15 1362.98,3446.8 C1359.71,3449.75 1356.02,3451.79 1351.92,3452.94 C1347.82,3454.09 1343.56,3454.58 1339.13,3454.42 C1334.71,3454.25 1330.28,3453.51 1325.85,3452.21 C1321.43,3450.89 1317.42,3449.58 1313.81,3448.27 C1310.53,3447.29 1307.41,3446.06 1304.46,3444.58 C1301.51,3443.11 1298.56,3441.55 1295.61,3439.91 C1299.55,3439.58 1303.32,3437.78 1306.92,3434.5 C1309.55,3432.21 1311.35,3429.42 1312.33,3426.15 C1313.31,3422.86 1313.81,3419.42 1313.81,3415.82 L1331.51,3415.82 C1330.86,3424.01 1333.31,3430.4 1338.88,3435 C1343.48,3438.27 1347.9,3439.18 1352.16,3437.7 C1356.43,3436.23 1359.71,3433.52 1362,3429.59 C1363.64,3432.21 1366.59,3433.85 1370.85,3434.5 C1369.86,3437.12 1368.72,3439.42 1367.4,3441.39 Z M1281.35,3430.57 C1278.08,3427.94 1274.88,3425.48 1271.76,3423.19 C1268.65,3420.9 1265.62,3418.44 1262.67,3415.82 L1308.4,3415.82 C1308.4,3420.41 1307.41,3424.5 1305.45,3428.11 C1302.83,3432.7 1299.23,3434.91 1294.63,3434.75 C1290.04,3434.58 1281.35,3430.57 1281.35,3430.57 Z M1239.06,3397.87 C1233.49,3393.77 1227.43,3389.92 1220.87,3386.31 L1229.72,3380.41 C1236.28,3376.48 1243.66,3373.12 1251.85,3370.34 C1260.05,3367.54 1268.32,3365.91 1276.68,3365.42 C1285.04,3364.92 1293.08,3365.98 1300.77,3368.61 C1308.48,3371.23 1315.12,3375.82 1320.69,3382.38 C1324.3,3386.31 1326.76,3390.74 1328.07,3395.66 C1329.38,3400.56 1330.36,3405.63 1331.01,3410.86 L1329.14,3410.86 L1329.14,3410.9 L1312.82,3410.9 C1312.82,3410.24 1311.93,3404.41 1306.92,3400.08 C1304.44,3397.94 1301.35,3396.89 1298.07,3396.39 C1294.8,3395.9 1291.6,3396.31 1288.48,3397.63 C1285.37,3398.93 1282.82,3401.07 1280.86,3404.02 C1279.88,3405.65 1280.12,3406.88 1281.6,3407.71 C1283.07,3408.52 1284.31,3408.11 1285.29,3406.48 C1288.24,3401.88 1292.17,3400.08 1297.09,3401.07 C1302.01,3402.05 1305.45,3405 1307.41,3409.92 L1307.41,3410.9 L1255.78,3410.9 C1250.21,3406.3 1244.64,3401.97 1239.06,3397.87 Z M1191.85,3410.9 C1195.79,3407.29 1199.73,3403.77 1203.66,3400.33 C1207.59,3396.89 1211.7,3393.52 1215.95,3390.25 C1221.53,3392.87 1226.77,3395.98 1231.69,3399.59 C1236.61,3403.2 1241.52,3406.97 1246.44,3410.9 L1191.85,3410.9 Z M1183.99,3410.9 L1097.94,3410.9 C1110.07,3404.67 1122.2,3398.28 1134.33,3391.72 C1146.45,3385.16 1159.08,3381.4 1172.18,3380.41 C1179.73,3379.75 1186.62,3380.17 1192.84,3381.64 C1199.07,3383.12 1205.3,3385.16 1211.52,3387.79 C1205.3,3392.71 1198.91,3398.12 1192.35,3404.02 C1191.04,3405 1189.73,3406.06 1188.42,3407.21 C1187.11,3408.36 1185.63,3409.59 1183.99,3410.9 Z M1135.31,3440.9 C1120.23,3447.78 1104.33,3450.89 1087.61,3450.24 C1077.45,3449.91 1067.53,3447.54 1057.86,3443.11 C1048.19,3438.69 1040.08,3432.21 1033.52,3423.69 C1033.19,3423.36 1032.7,3422.53 1032.04,3421.23 C1041.88,3424.18 1051.31,3424.92 1060.31,3423.44 C1069.34,3421.96 1078.1,3419.42 1086.63,3415.82 L1177.6,3415.82 C1164.49,3425.65 1150.39,3434.01 1135.31,3440.9 Z M1070.89,3415.82 C1064.67,3417.46 1058.35,3418.44 1051.96,3418.77 C1045.56,3419.09 1038.93,3418.11 1032.04,3415.82 L1070.89,3415.82 Z M1341.83,3403.03 C1344.13,3400.74 1346.75,3399.1 1349.7,3398.12 C1352.65,3397.13 1355.69,3396.89 1358.8,3397.38 C1361.92,3397.87 1364.79,3399.26 1367.4,3401.56 C1370.34,3404.25 1372.36,3407.35 1373.47,3410.86 L1337.63,3410.86 C1338.37,3407.72 1339.77,3405.1 1341.83,3403.03 Z M993.441,3418.77 C987.049,3418.44 980.739,3417.46 974.512,3415.82 L1012.87,3415.82 C1006.31,3418.11 999.832,3419.09 993.441,3418.77 Z M1011.39,3423.69 C1005.17,3432.21 997.216,3438.69 987.541,3443.11 C977.871,3447.54 967.792,3449.91 957.301,3450.24 C940.913,3450.89 925.173,3447.78 910.091,3440.9 C895.017,3434.01 880.917,3425.65 867.804,3415.82 L958.279,3415.82 C966.808,3419.42 975.664,3421.96 984.836,3423.44 C994.017,3424.92 1003.36,3424.18 1012.87,3421.23 C1012.21,3422.53 1011.72,3423.36 1011.39,3423.69 Z M860.918,3410.9 C859.28,3409.59 857.893,3408.36 856.74,3407.21 C855.592,3406.06 854.203,3405 852.558,3404.02 C849.289,3401.07 846.166,3398.28 843.218,3395.66 C840.263,3393.03 837.153,3390.41 833.872,3387.79 C839.774,3385.16 845.921,3383.12 852.312,3381.64 C858.705,3380.17 865.514,3379.75 872.721,3380.41 C886.167,3381.4 898.868,3385.16 910.831,3391.72 C922.803,3398.28 934.846,3404.67 946.971,3410.9 L860.918,3410.9 Z M798.466,3410.9 C803.384,3406.97 808.387,3403.2 813.466,3399.59 C818.554,3395.98 823.717,3392.87 828.955,3390.25 C833.22,3393.52 837.316,3396.89 841.248,3400.33 C845.181,3403.77 849.117,3407.29 853.05,3410.9 L798.466,3410.9 Z M789.126,3410.9 L737.496,3410.9 L737.984,3409.92 C739.631,3405 742.902,3402.05 747.82,3401.07 C752.735,3400.08 756.669,3401.88 759.621,3406.48 C760.606,3408.11 761.836,3408.52 763.31,3407.71 C764.785,3406.88 765.03,3405.65 764.044,3404.02 C762.08,3401.07 759.545,3398.93 756.425,3397.63 C753.313,3396.31 750.201,3395.9 747.083,3396.39 C743.973,3396.89 741.107,3398.12 738.478,3400.08 C735.858,3402.05 734.525,3404.3 733.067,3408.44 C732.917,3408.87 732.415,3410.24 732.083,3410.9 L714.38,3410.9 C714.711,3405.65 715.612,3400.58 717.085,3395.66 C718.558,3390.74 720.943,3386.31 724.217,3382.38 C729.795,3375.82 736.511,3371.23 744.375,3368.61 C752.247,3365.98 760.356,3364.92 768.716,3365.42 C777.077,3365.91 785.361,3367.54 793.549,3370.34 C801.751,3373.12 809.128,3376.48 815.677,3380.41 L824.533,3386.31 C817.978,3389.92 811.83,3393.77 806.09,3397.87 C800.359,3401.97 794.702,3406.3 789.126,3410.9 Z M763.554,3430.57 L763.066,3430.57 C759.128,3433.19 754.949,3434.58 750.523,3434.75 C746.1,3434.91 742.579,3432.7 739.954,3428.11 C737.664,3424.83 736.511,3420.74 736.511,3415.82 L782.733,3415.82 L763.554,3430.57 Z M740.441,3444.58 C737.496,3446.06 734.383,3447.29 731.102,3448.27 C727.497,3449.58 723.478,3450.89 719.054,3452.21 C714.629,3453.51 710.205,3454.25 705.775,3454.42 C701.348,3454.58 697.095,3454.09 692.993,3452.94 C688.899,3451.79 685.208,3449.75 681.93,3446.8 C680.292,3445.15 678.818,3443.36 677.502,3441.39 C676.195,3439.42 675.043,3437.12 674.059,3434.5 C677.992,3433.85 680.945,3432.21 682.909,3429.59 C685.541,3433.52 688.899,3436.23 692.993,3437.7 C697.095,3439.18 701.435,3438.27 706.023,3435 C708.975,3432.7 711.025,3429.83 712.169,3426.39 C713.321,3422.95 713.729,3419.42 713.396,3415.82 L731.592,3415.82 C731.27,3419.42 731.68,3422.86 732.821,3426.15 C733.974,3429.42 735.858,3432.21 738.478,3434.5 C742.09,3437.78 745.691,3439.58 749.293,3439.91 C746.344,3441.55 743.398,3443.11 740.441,3444.58 Z M670.781,3415.78 L707.875,3415.78 C707.942,3418.41 707.655,3421.29 707.007,3424.43 C706.023,3429.17 703.072,3431.88 698.155,3432.54 C694.549,3433.19 691.765,3432.45 689.795,3430.32 C687.827,3428.19 686.52,3425.48 685.862,3422.21 L685.862,3418.77 C685.862,3417.46 685.292,3416.72 684.14,3416.56 C682.997,3416.39 682.098,3416.63 681.434,3417.29 C680.781,3417.95 680.45,3418.6 680.45,3419.26 L680.45,3421.72 C680.126,3424.34 679.222,3426.22 677.748,3427.38 C676.272,3428.52 674.551,3429.26 672.583,3429.59 C671.074,3425.05 670.478,3420.45 670.781,3415.78 Z M677.502,3401.56 C683.083,3396.96 689.055,3395.82 695.451,3398.12 C701.515,3400.29 705.414,3404.56 707.195,3410.86 L671.574,3410.86 C672.592,3407.35 674.567,3404.25 677.502,3401.56 Z M654.636,3426.88 C650.542,3425.41 647.183,3424.18 644.554,3423.19 C641.545,3421.98 629.088,3417.73 624.061,3415.78 L665.887,3415.78 C665.513,3420.38 665.76,3424.99 666.681,3429.59 C662.75,3429.26 658.74,3428.36 654.636,3426.88 Z M1871.51,3422.06 C1870.88,3419.5 1869.36,3417.31 1866.97,3415.47 C1863.97,3413.42 1860.56,3412.06 1856.74,3411.4 C1852.92,3410.74 1825.43,3410.68 1822,3410.83 L1821.98,3410.86 L1378.43,3410.86 C1377.56,3407.51 1376.19,3404.4 1374.29,3401.56 C1370.69,3395.98 1365.52,3392.78 1358.8,3391.97 C1352.08,3391.15 1346.1,3392.71 1340.85,3396.64 C1338.88,3398.61 1337.09,3400.9 1335.44,3403.53 C1332.83,3391.06 1327.25,3381.07 1318.73,3373.53 C1310.2,3365.98 1299.23,3361.73 1285.78,3360.74 C1278.24,3360.08 1270.53,3360.58 1262.67,3362.22 C1254.8,3363.86 1247.43,3366.15 1240.54,3369.1 C1235.95,3371.07 1231.61,3373.36 1227.5,3375.99 C1223.41,3378.61 1219.56,3381.23 1215.95,3383.86 C1213.66,3382.87 1211.45,3381.89 1209.32,3380.9 C1207.18,3379.92 1204.81,3379.1 1202.18,3378.45 C1188.74,3374.18 1175.63,3373.45 1162.84,3376.23 C1150.06,3379.02 1137.76,3383.53 1125.97,3389.76 C1119.08,3393.03 1112.28,3396.56 1105.56,3400.33 C1098.84,3404.09 1092.03,3407.62 1085.15,3410.9 L959.759,3410.9 C952.875,3407.62 946.073,3404.09 939.35,3400.33 C932.637,3396.56 925.997,3393.03 919.435,3389.76 C907.311,3383.53 894.85,3379.02 882.06,3376.23 C869.277,3373.45 856.168,3374.18 842.723,3378.45 C838.467,3379.75 833.872,3381.56 828.955,3383.86 C825.353,3381.23 821.579,3378.61 817.645,3375.99 C813.713,3373.36 809.452,3371.07 804.862,3369.1 C797.655,3366.15 790.192,3363.86 782.485,3362.22 C774.788,3360.58 766.999,3360.08 759.128,3360.74 C745.691,3361.73 734.713,3365.98 726.186,3373.53 C717.662,3381.07 712.255,3391.06 709.954,3403.53 C708.322,3400.9 706.354,3398.61 704.057,3396.64 C698.814,3392.71 692.917,3391.15 686.353,3391.97 C679.796,3392.78 674.551,3395.98 670.616,3401.56 C668.725,3404.4 667.392,3407.51 666.61,3410.86 L232.782,3410.86 L232.767,3410.83 C229.337,3410.68 217.294,3410.66 209.955,3410.75 C205.814,3410.81 201.845,3410.74 198.021,3411.4 C194.204,3412.06 190.794,3413.42 187.792,3415.47 C185.398,3417.31 183.884,3419.5 183.256,3422.06 C182.629,3424.62 182.575,3427.14 183.111,3429.63 C183.636,3432.12 184.796,3434.47 186.579,3436.69 C188.366,3438.91 190.42,3440.45 192.75,3441.31 C197.398,3443.03 201.976,3442.86 206.491,3440.79 C211,3438.71 213.53,3435.07 214.083,3429.87 C214.162,3428.17 213.372,3427.11 211.706,3426.69 C210.042,3426.26 209.162,3426.9 209.083,3428.6 C208.713,3432.41 206.857,3435.06 203.502,3436.56 C200.139,3438.06 196.792,3437.9 193.449,3436.05 C191.721,3434.98 190.37,3433.54 189.399,3431.7 C188.419,3429.87 187.921,3427.96 187.904,3425.96 C187.876,3423.96 188.44,3422.18 189.584,3420.61 C190.722,3419.04 192.639,3418.3 195.068,3417.45 C203.859,3414.36 234.976,3415.78 234.976,3415.78 L594.32,3415.78 C593.905,3416.25 593.516,3416.75 593.168,3417.29 C591.693,3419.58 590.795,3422.04 590.464,3424.67 C590.144,3427.29 590.464,3429.99 591.45,3432.78 C592.433,3435.56 593.909,3437.78 595.876,3439.42 C599.807,3442.69 604.316,3444.09 609.398,3443.6 C614.486,3443.11 618.173,3440.4 620.462,3435.49 C621.122,3433.84 620.631,3432.54 618.985,3431.55 C617.35,3430.57 616.204,3430.89 615.544,3432.54 C613.907,3436.14 611.285,3438.11 607.674,3438.44 C604.073,3438.76 600.961,3437.45 598.333,3434.5 C597.029,3432.86 596.201,3430.98 595.876,3428.85 C595.549,3426.71 595.709,3424.67 596.366,3422.7 C597.029,3420.74 598.17,3419.18 599.807,3418.03 C601.452,3416.88 603.58,3416.47 606.201,3416.8 C612.76,3417.46 638.983,3426.47 645.539,3429.1 C648.49,3430.4 652.017,3431.55 656.114,3432.54 C660.213,3433.52 664.225,3434.18 668.156,3434.5 C670.125,3439.75 673.247,3444.66 677.502,3449.26 C683.736,3455.48 690.948,3458.92 699.141,3459.58 C707.339,3460.24 715.697,3459.34 724.217,3456.88 C732.745,3454.42 740.939,3450.89 748.804,3446.31 C756.669,3441.71 763.554,3437.46 769.458,3433.52 C773.067,3430.89 776.833,3428.11 780.767,3425.16 C784.7,3422.21 788.473,3419.09 792.074,3415.82 L859.443,3415.82 C861.087,3417.13 862.641,3418.35 864.116,3419.51 C865.589,3420.65 867.15,3421.88 868.789,3423.19 C876.653,3428.76 884.851,3433.93 893.375,3438.69 C901.904,3443.43 910.914,3447.29 920.418,3450.24 C932.219,3453.84 944.435,3455.56 957.048,3455.4 C969.675,3455.24 981.559,3452.21 992.702,3446.31 C997.62,3443.68 1002.46,3440.41 1007.21,3436.47 C1011.21,3433.17 1018.8,3420.96 1021.13,3417.15 C1024.31,3421.07 1034.23,3433.19 1038.19,3436.47 C1042.95,3440.41 1047.62,3443.68 1052.2,3446.31 C1063.68,3452.21 1075.73,3455.24 1088.35,3455.4 C1100.97,3455.56 1113.18,3453.84 1124.98,3450.24 C1134.49,3447.29 1143.42,3443.43 1151.78,3438.69 C1160.14,3433.93 1168.42,3428.76 1176.61,3423.19 L1185.46,3415.82 L1253.32,3415.82 C1261.19,3422.7 1268.73,3428.6 1275.94,3433.52 C1281.85,3437.46 1288.73,3441.71 1296.6,3446.31 C1304.46,3450.89 1312.58,3454.42 1320.94,3456.88 C1329.29,3459.34 1337.66,3460.24 1346.02,3459.58 C1354.38,3458.92 1361.68,3455.48 1367.9,3449.26 C1371.83,3445.32 1374.78,3440.41 1376.75,3434.5 C1380.68,3434.18 1384.7,3433.52 1388.8,3432.54 C1392.9,3431.55 1396.59,3430.4 1399.86,3429.1 C1406.09,3426.47 1432.65,3417.46 1439.2,3416.8 C1441.83,3416.47 1443.95,3416.88 1445.59,3418.03 C1447.23,3419.18 1448.38,3420.74 1449.03,3422.7 C1449.69,3424.67 1449.86,3426.71 1449.53,3428.85 C1449.2,3430.98 1448.38,3432.86 1447.07,3434.5 C1444.45,3437.45 1441.25,3438.76 1437.48,3438.44 C1433.71,3438.11 1431.01,3436.14 1429.36,3432.54 C1428.71,3430.89 1427.64,3430.57 1426.17,3431.55 C1424.69,3432.54 1424.29,3433.84 1424.94,3435.49 C1427.23,3440.4 1430.92,3443.11 1436,3443.6 C1441.09,3444.09 1445.59,3442.69 1449.53,3439.42 C1451.49,3437.78 1452.97,3435.56 1453.95,3432.78 C1454.93,3429.99 1455.26,3427.29 1454.93,3424.67 C1454.61,3422.04 1453.7,3419.58 1452.23,3417.29 C1451.88,3416.75 1451.48,3416.25 1451.05,3415.78 L1819.79,3415.78 C1819.79,3415.78 1853.47,3415.95 1859.69,3417.45 C1862.21,3417.99 1864.04,3419.04 1865.18,3420.61 C1866.32,3422.18 1866.89,3423.96 1866.86,3425.96 C1866.84,3427.96 1866.34,3429.87 1865.36,3431.71 C1864.39,3433.54 1863.04,3434.98 1861.31,3436.06 C1857.97,3437.9 1854.62,3438.06 1851.26,3436.56 C1847.9,3435.06 1846.05,3432.41 1845.68,3428.6 C1845.6,3426.9 1844.72,3426.26 1843.06,3426.69 C1841.39,3427.11 1840.6,3428.17 1840.68,3429.87 C1841.23,3435.07 1843.76,3438.71 1848.27,3440.79 C1852.79,3442.86 1857.36,3443.03 1862.01,3441.31 C1864.34,3440.45 1866.4,3438.91 1868.18,3436.7 C1869.97,3434.47 1871.13,3432.12 1871.65,3429.63 C1872.19,3427.14 1872.13,3424.62 1871.51,3422.06 L1871.51,3422.06 Z" id="Fill-13"></path>
        </g>
    </g>
</svg>