<?xml version="1.0" encoding="UTF-8"?>
<svg width="1014px" height="1014px" viewBox="0 0 1014 1014" version="1.1" xmlns="http://www.w3.org/2000/svg" xmlns:xlink="http://www.w3.org/1999/xlink">
    <!-- Generator: Sketch 64 (93537) - https://sketch.com -->
    <title>graphic-white</title>
    <desc>Created with Sketch.</desc>
    <g id="graphic-white" stroke="none" stroke-width="1" fill="none" fill-rule="evenodd">
        <g id="Group" transform="translate(507.500000, 507.000000) rotate(360.000000) translate(-507.500000, -507.000000) translate(1.000000, 0.000000)" fill="#FFFFFF">
            <path d="M1011.26438,558.489354 C999.217814,421.178257 904.80721,292.504424 818.769482,188.670751 C743.025893,97.2594512 610.127564,-7.95771274 482.233265,0.587828203 C338.116906,0.72694166 206.205002,50.2329878 136.82236,180.070176 C96.8933012,254.792447 64.0124041,332.254183 37.6071994,412.515005 C11.4818202,491.928915 -12.2658244,570.998864 7.05151116,654.670258 C39.5206427,795.310906 163.088434,914.203993 294.409422,971.654793 C363.55132,1001.90203 438.877517,1024.42313 514.586715,1007.0263 C552.821188,998.24075 585.78275,979.316734 621.553509,964.359744 C660.93855,947.893909 702.043189,938.180426 743.246314,927.314289 C824.634874,905.849542 904.850981,881.160725 953.02942,808.415088 C1001.85974,734.686484 1018.86656,645.150923 1011.26438,558.489354 M933.757419,825.709489 C891.123902,880.075334 826.335712,897.943005 761.944594,916.179098 C729.351964,925.409505 696.277847,933.299225 664.049459,943.70216 C627.529893,955.488586 594.455776,973.215615 559.150871,987.613094 C438.430421,1036.84244 302.282053,984.656551 201.627745,913.882961 C104.773749,845.778516 17.6520495,736.485787 6.09635278,617.375622 C-1.22444371,541.907336 23.4517836,470.454995 47.5183354,399.872496 C70.5687612,332.270999 97.5107931,266.444346 130.10186,202.68605 C162.469379,139.366496 204.58389,85.3797734 269.086001,50.8918658 C333.461486,16.4696931 406.961783,5.16939997 479.571015,5.68763582 C572.593436,-1.07694713 664.555959,55.7608368 733.433664,111.398576 C804.429601,168.746952 859.903823,244.17702 909.090571,319.697283 C959.615479,397.273673 1003.98735,484.482523 1007.586,577.989697 C1010.99393,666.563694 989.545859,754.570536 933.757419,825.709489" id="Fill-9"></path>
            <path d="M907.586107,495.8486 C889.498105,387.189121 798.384699,288.911646 724.689021,210.971712 C651.152709,133.199919 544.265229,57.424431 430.756261,63.4347435 C369.717654,62.8783463 306.297936,77.6886 257.400804,114.896898 C209.930151,151.019915 191.501544,201.162918 173.049501,255.084531 C148.90873,325.627746 124.630466,396.144975 101.539633,467.026003 C79.5357672,534.57629 76.8671737,602.358918 101.380267,669.79762 C145.240195,790.470081 248.34196,886.489867 375.447005,918.242721 C447.309978,936.195702 507.895487,920.654794 576.168045,899.001161 C643.064121,877.784697 716.120774,878.885263 781.279452,852.017699 C929.116094,791.060107 929.491072,627.425834 907.586107,495.8486 M842.732098,806.677442 C782.716868,866.607839 693.465853,866.872281 615.325123,883.316569 C572.705748,892.286181 533.683037,912.065795 490.487133,918.825104 C449.506724,925.237428 407.656053,922.3087 367.797454,911.166999 C295.736055,891.025116 227.713483,851.056232 181.295893,793.119082 C156.547344,762.229867 132.325327,727.953355 115.657555,692.132993 C96.5836736,651.1415 92.5760961,608.855314 87.888871,564.615623 C92.0823751,502.129468 113.971716,445.088056 133.679935,386.044226 C152.600701,329.352856 169.973119,271.747404 191.559353,215.965529 C228.719674,119.935043 313.238154,72.8629244 415.98994,67.8798067 C529.092681,62.3937916 627.43535,123.268841 705.335469,198.434432 C747.69236,239.305168 786.135417,285.713891 820.86463,332.909824 C853.226795,376.891187 885.135861,424.933944 898.696003,478.106561 C906.304932,507.94871 907.250189,539.759649 911.154647,570.260609 C914.966924,600.035501 917.008991,629.764537 913.599816,659.693814 C907.262688,715.32589 882.823496,766.644359 842.732098,806.677442" id="Fill-10"></path>
            <path d="M733.323372,318.415948 C697.074749,279.237851 653.51012,248.113335 611.147629,215.76756 C534.700052,157.393235 442.197906,105.189398 341.924848,130.770104 C248.145527,154.693932 234.001248,233.705846 224.393518,316.413634 C220.390037,350.888587 226.985385,383.078456 216.767988,417.496855 C205.590756,455.14494 188.173034,487.721515 188.002073,527.964966 C187.846315,565.580953 196.502025,603.764007 202.458005,640.811398 C207.688637,673.339062 213.167825,706.491876 228.522059,736.173503 C258.023699,793.204291 319.529739,822.700972 380.981066,836.409943 C461.371158,854.343644 534.664098,824.065908 614.650871,824.998283 C666.963443,824.998283 716.224552,816.414318 758.310348,783.975306 C804.066653,748.70707 832.43181,695.283504 845.641266,640.589767 C859.230591,584.32475 861.353484,525.436854 840.393438,470.70949 C817.796671,411.708487 775.92973,364.466109 733.323372,318.415948 M850.640537,576.275754 C839.708735,699.022175 769.712688,820.432702 629.812825,820.085736 C626.55345,820.076565 623.295639,820.084208 620.044081,820.084208 C591.272479,819.133491 563.138682,822.940944 535.098681,827.897817 C533.229035,828.227969 531.360952,828.564236 529.491306,828.903559 C527.498163,829.26581 525.50502,829.632646 523.513441,830.002539 C521.385859,830.398417 519.261403,830.795822 517.135384,831.197814 C420.392143,849.438739 283.251415,832.321249 233.89651,735.383277 C208.703186,685.90167 205.117092,621.638097 197.791706,567.517542 C193.839812,538.323501 194.582355,509.506995 201.717025,480.81124 C209.162781,450.868242 223.863577,423.644417 228.615854,392.914249 C237.765552,333.766511 222.74898,272.99858 247.331074,215.492433 C265.968131,171.890904 304.991522,142.910851 351.845227,133.333371 C472.123186,108.750766 574.017334,191.736738 661.520209,260.130275 C757.022231,334.773782 862.108533,447.490293 850.640537,576.275754" id="Fill-11"></path>
            <path d="M647.595037,323.471494 C568.428215,273.216481 449.110854,176.678175 350.772575,239.851587 C303.247798,270.380847 304.527353,312.637447 308.237907,362.396186 C312.556211,420.298402 292.13957,473.651693 292.197377,531.031676 C291.513072,531.115661 292.883243,531.198119 292.197377,531.283631 C294.803357,549.66868 294.590879,568.194213 298.132701,586.405185 C305.08667,622.149141 307.670778,674.996996 329.354476,705.240707 C352.977035,738.188731 400.420572,754.654345 439.850873,756.842532 C484.789981,759.339173 527.466822,742.952963 571.532582,737.303073 C608.280348,732.592286 644.161017,735.212613 678.024706,717.792626 C744.900609,683.393955 772.019683,596.275696 767.523272,526.930161 C762.361306,447.317095 716.233259,367.044366 647.595037,323.471494 M737.132662,649.355655 C718.000263,688.184146 684.450604,716.684026 641.053525,726.140721 C614.934348,731.833368 587.694975,730.155198 561.253956,734.111648 C531.764815,738.526198 503.170894,747.865314 473.555204,751.299531 C424.210301,757.021191 357.498443,743.792812 329.727875,698.401286 C315.676201,675.435244 313.957629,642.079512 308.214472,616.317538 C301.777637,587.446597 299.737223,559.687311 296.159467,530.544564 C296.798464,530.497227 295.520471,530.451417 296.159467,530.40408 C295.781381,486.017319 312.237494,443.989768 313.371752,399.825948 C314.304468,363.556704 300.77774,320.706102 315.240309,286.053949 C347.651023,208.398493 455.157104,217.055042 516.85698,250.027498 C589.915058,289.071296 675.304674,331.233222 720.593746,402.336331 C768.991871,478.319724 777.136342,568.166727 737.132662,649.355655" id="Fill-12"></path>
            <path d="M690.966212,449.988141 C669.91469,402.135435 629.058518,370.028858 583.360168,345.654755 C536.643069,320.738156 477.825994,290.734323 423.162035,296.920302 C378.751183,301.94641 351.207485,326.363302 348.518428,370.699719 C345.279371,424.102691 337.390324,475.205786 328.382529,527.694921 C327.043469,535.49769 326.677844,543.436465 327.282531,551.326339 C327.977842,560.373028 328.416904,567.776949 330.3169,574.803414 C342.876251,621.253272 349.669988,680.522839 396.362086,706.018609 C447.182302,733.766882 491.202531,710.502221 542.208683,698.975333 C598.499201,686.251899 652.86316,688.380622 686.138097,634.271641 C701.58338,609.151797 708.917741,580.51108 707.908368,551.278966 C706.794307,519.00582 704.131812,479.914038 690.966212,449.988141 M684.092788,628.622045 C665.328761,662.059647 635.76788,679.616642 597.782015,685.341117 C566.5852,690.044784 535.594634,694.850838 505.707191,704.899998 C477.115058,714.515161 447.530739,719.382341 418.029233,710.216456 C358.346534,691.675328 338.979383,621.27161 331.926272,566.329784 C327.724717,533.599719 335.888764,503.618808 342.196565,471.788827 C348.132491,441.844592 350.694986,411.816309 352.055921,381.395289 C353.223106,355.314235 356.238725,331.209087 379.966805,315.433923 C403.351136,299.887983 435.33545,297.737866 462.271336,303.269794 C476.280684,306.148842 490.43222,309.707919 503.533757,315.209284 C551.983665,335.550581 602.286694,355.000962 641.864744,390.186776 C680.186545,424.255506 692.227148,463.446619 699.861508,512.237613 C701.897442,525.249869 703.269314,538.361456 704.363062,546.932888 C704.08025,578.839277 697.563075,604.617756 684.092788,628.622045" id="Fill-13"></path>
            <path d="M579.634138,405.609978 C545.781193,387.349423 508.64924,378.071575 469.746872,377.218263 C465.345771,377.218263 460.919734,376.921592 456.543569,377.265669 C422.858937,379.908182 402.324621,397.518813 391.666289,428.351182 C378.279087,467.082031 361.625345,513.793941 363.090301,554.936389 C365.73813,629.321274 434.531829,711.323263 514.435815,666.203283 C527.129501,659.035774 541.42217,654.420553 555.301847,649.507132 C581.195719,640.342447 606.414776,638.502781 625.588553,617.211289 C644.656355,596.036019 653.888693,565.827577 653.998899,537.960389 C654.200386,486.124024 626.737141,431.016632 579.634138,405.609978 M632.688914,598.409386 C622.298637,616.894738 607.47609,630.261752 586.170334,635.864857 C561.944018,642.235636 538.542129,648.513132 516.079994,659.485369 C494.953462,669.804624 475.517863,676.87732 451.665578,672.058711 C407.713788,663.179992 382.050569,622.653825 371.35795,582.685826 C358.51621,534.677128 378.66091,485.570442 392.783707,439.902997 C406.005712,397.14721 428.999284,384.804781 473.170817,381.084161 C526.270787,382.859599 586.8545,403.704555 618.70482,447.461989 C650.271499,490.826411 659.443058,550.821227 632.688914,598.409386" id="Fill-14"></path>
        </g>
    </g>
</svg>