<svg id="Layer_3" height="512" viewBox="0 0 64 64" width="512" xmlns="http://www.w3.org/2000/svg" data-name="Layer 3"><path d="m21.6 27a10.126 10.126 0 0 0 7.936-3.816 3.16 3.16 0 0 1 4.938 0 10.115 10.115 0 0 0 7.926 3.816l20.6.014v-2l-20.6-.014a8.128 8.128 0 0 1 -6.371-3.065 5.16 5.16 0 0 0 -8.06 0 8.134 8.134 0 0 1 -6.375 3.065l-20.594.017v2z"/><path d="m60.122 30.724a5.829 5.829 0 0 0 -8.243 0l-1.172 1.176a3.919 3.919 0 0 1 -5.414 0l-1.171-1.171a5.829 5.829 0 0 0 -8.243 0l-1.172 1.171a3.919 3.919 0 0 1 -5.414 0l-1.171-1.171a5.829 5.829 0 0 0 -8.243 0l-1.172 1.171a3.919 3.919 0 0 1 -5.414 0l-1.171-1.171a5.829 5.829 0 0 0 -8.243 0l-3.586 3.581 1.414 1.414 3.586-3.586a3.921 3.921 0 0 1 5.414 0l1.171 1.171a5.827 5.827 0 0 0 8.243 0l1.172-1.171a3.921 3.921 0 0 1 5.414 0l1.171 1.171a5.827 5.827 0 0 0 8.243 0l1.172-1.171a3.921 3.921 0 0 1 5.414 0l1.171 1.171a5.827 5.827 0 0 0 8.243 0l1.172-1.171a3.921 3.921 0 0 1 5.414 0l3.586 3.586 1.414-1.414z"/><path d="m8 35.017a4 4 0 1 0 4 4 4 4 0 0 0 -4-4zm0 6a2 2 0 1 1 2-2 2 2 0 0 1 -2 2z"/><path d="m24 35.017a4 4 0 1 0 4 4 4 4 0 0 0 -4-4zm0 6a2 2 0 1 1 2-2 2 2 0 0 1 -2 2z"/><path d="m40 35.017a4 4 0 1 0 4 4 4 4 0 0 0 -4-4zm0 6a2 2 0 1 1 2-2 2 2 0 0 1 -2 2z"/><path d="m56 35.017a4 4 0 1 0 4 4 4 4 0 0 0 -4-4zm0 6a2 2 0 1 1 2-2 2 2 0 0 1 -2 2z"/><path d="m16 41.915a3 3 0 1 0 3 3 3 3 0 0 0 -3-3zm0 4a1 1 0 1 1 1-1 1 1 0 0 1 -1 1z"/><path d="m32 42.017a3 3 0 1 0 3 3 3 3 0 0 0 -3-3zm0 4a1 1 0 1 1 1-1 1 1 0 0 1 -1 1z"/><path d="m48 42.017a3 3 0 1 0 3 3 3 3 0 0 0 -3-3zm0 4a1 1 0 1 1 1-1 1 1 0 0 1 -1 1z"/><circle cx="24" cy="51.017" r="2"/><circle cx="40" cy="51.017" r="2"/><circle cx="56" cy="51.017" r="2"/><circle cx="8" cy="51.017" r="2"/><path d="m31.177 23.432c-.655.948-2.177 3.29-2.177 4.568a3 3 0 0 0 6 0c0-1.278-1.522-3.62-2.177-4.568a1.038 1.038 0 0 0 -1.646 0zm.823 5.568a1 1 0 0 1 -1-1 7.457 7.457 0 0 1 1-2.147 7.445 7.445 0 0 1 1 2.147 1 1 0 0 1 -1 1z"/><path d="m23 15.172h2v5.657h-2z" transform="matrix(.707 -.707 .707 .707 -5.698 22.243)"/><path d="m31 12h2v6h-2z"/><path d="m37.172 17h5.657v2h-5.657z" transform="matrix(.707 -.707 .707 .707 -1.012 33.556)"/></svg>