<svg height="511pt" viewBox="0 -40 511.99911 511" width="511pt" xmlns="http://www.w3.org/2000/svg"><path d="m511.570312 198.535156c-1.296874-4.675781-5.269531-7.929687-10.128906-8.292968l-2.367187-.175782c-10.75-.800781-21.863281-1.625-32.285157-3.730468-23.53125-4.757813-45.988281-15.730469-67.390624-26.171876-12.609376-6.152343-24.988282-12.765624-37.363282-19.371093-15.035156-8.03125-29.03125-17.4375-45.941406-20.746094-17.113281-3.351563-35.550781.480469-58.011719 12.0625-1.304687.671875-2.863281.675781-4.164062 0-22.464844-11.582031-40.898438-15.414063-58.015625-12.0625-9.574219 1.875-18.023438 6.023437-26.550782 10.472656l-1.425781.746094c-3.675781 1.917969-5.097656 6.457031-3.175781 10.128906 1.917969 3.671875 6.457031 5.097657 10.128906 3.175781l1.414063-.738281c7.800781-4.070312 14.878906-7.558593 22.496093-9.050781 13.621094-2.667969 28.949219.722656 48.246094 10.675781 5.613282 2.890625 12.316406 2.890625 17.925782 0 19.296874-9.953125 34.625-13.34375 48.246093-10.675781 14.714844 2.882812 28.699219 12.285156 41.757813 19.257812 22.066406 11.78125 44.882812 23.960938 69.128906 33.550782 1.695312.671875 3.386719 1.347656 5.082031 2.027344 3.335938 1.339843 6.710938 2.683593 10.132813 3.988281-20.972656-1.222657-41.117188-4.503907-61.695313-8.992188-25.636719-5.597656-50.945312-10.023437-77.125-8.75-9.148437.445313-18.300781 1.59375-27.152343 3.996094-6.226563 1.691406-13.96875 3.800781-20.730469 3.285156-8.277344-.632812-15.117188-4.003906-23.066407-5.261719-12.503906-1.980468-24.613281-2.523437-37.007812-1.660156-17.832031 1.242188-34.652344 4.585938-50.921875 7.816406-4.933594.980469-10.03125 1.996094-15.054687 2.925782-15.519532 2.882812-33.347657 5.074218-53.773438 6.605468 3.390625-1.292968 6.738281-2.625 10.042969-3.953124 1.695312-.679688 3.386719-1.355469 5.078125-2.027344 20.03125-7.921875 38.964844-17.5625 56.441406-26.800782 3.667969-1.9375 5.066406-6.480468 3.128906-10.144531-1.9375-3.664062-6.480468-5.0625-10.144531-3.128906-28.652344 15.148437-60.078125 32.34375-92.117187 38.820313-10.421876 2.105468-21.539063 2.933593-32.285157 3.730468l-2.386719.179688c-4.84375.359375-8.8125 3.617187-10.109374 8.292968-1.304688 4.683594.421874 9.53125 4.390624 12.34375 5.300782 3.761719 10.359376 8.207032 15.25 12.503907l.410157.359375c28.894531 25.382812 63.382812 53.71875 107.070312 68.710937 18.972657 6.511719 38.921875 9.800781 58.183594 9.796875 14.964844 0 29.515625-1.984375 42.847656-5.984375 17.941407-5.378906 36.902344-5.378906 54.835938 0 30.496093 9.148438 67.320312 7.757813 101.03125-3.8125 2.527343-.863281 5.082031-1.796875 7.597656-2.773437 3.863281-1.496094 5.785156-5.84375 4.289063-9.710938-1.5-3.863281-5.84375-5.785156-9.710938-4.289062-17.230469 6.675781-33.558594 10.292968-52.128906 11.257812-15.691406.8125-31.675782-.527344-46.765625-5.050781-20.757813-6.230469-42.703125-6.226563-63.460938 0-27.152343 8.144531-61.488281 6.785156-91.84375-3.632813-41.101562-14.105468-74.222656-41.355468-102.039062-65.792968l-.40625-.355469c-.503907-.445313-1.023438-.890625-1.527344-1.335937 41.011719-1.117188 74.148437-4.089844 100.84375-9.046876 5.113281-.949218 10.261719-1.972656 15.238281-2.960937 15.8125-3.140625 32.160156-6.386719 49.042969-7.566406 11.246094-.78125 22.242187-.289063 33.613281 1.511719 8.25 1.304687 15.910156 4.761718 24.277344 5.402343 9.328125.710938 18.855469-1.875 25.804688-3.765625 30.976562-8.414062 66.53125-1.746094 97.140624 4.933594 10.101563 2.203125 20.546876 4.480469 31.351563 6.121094 20.597656 3.128906 43.914063 3.84375 66.464844 4.535156 4.03125.125 7.960937.25 11.839843.382812-.683593.597657-1.378906 1.199219-2.054687 1.792969l-.402344.351563c-19.34375 16.996094-40.558593 34.636718-64.578125 48.535156-3.589844 2.074219-4.8125 6.667969-2.738281 10.257812 1.390625 2.402344 3.914063 3.75 6.503906 3.75 1.277344 0 2.570313-.328124 3.753907-1.011718 25.144531-14.550782 47.046874-32.75 66.96875-50.25l.402343-.355469c4.894531-4.296875 9.953125-8.746094 15.257813-12.507813 3.964844-2.816406 5.6875-7.660156 4.386718-12.347656zm0 0"/><path d="m119.714844 332.988281c-4.007813-1-8.164063-2.351562-12.347656-4.019531-3.851563-1.535156-8.21875.339844-9.753907 4.191406-1.535156 3.851563.34375 8.21875 4.195313 9.753906 4.808594 1.917969 9.613281 3.480469 14.28125 4.640626.609375.152343 1.21875.226562 1.816406.226562 3.367188 0 6.429688-2.28125 7.28125-5.695312 1-4.023438-1.449219-8.097657-5.472656-9.097657zm0 0"/><path d="m240.058594 325.9375c-4.566406.140625-9.269532.421875-14.378906.851562-4.132813.347657-7.199219 3.980469-6.851563 8.109376.332031 3.917968 3.609375 6.878906 7.472656 6.878906.210938 0 .421875-.011719.636719-.027344 4.847656-.410156 9.289062-.671875 13.589844-.808594 4.144531-.128906 7.398437-3.59375 7.269531-7.734375-.128906-4.144531-3.601563-7.421875-7.738281-7.269531zm0 0"/><path d="m198.46875 329.902344-5.390625.726562c-2.828125.382813-5.65625.761719-8.484375 1.132813-4.109375.539062-7.003906 4.3125-6.464844 8.421875.5 3.777344 3.722656 6.53125 7.433594 6.53125.328125 0 .65625-.023438.988281-.066406 2.84375-.375 5.691407-.757813 8.535157-1.140626l5.367187-.722656c4.109375-.546875 6.996094-4.324218 6.449219-8.433594-.546875-4.109374-4.328125-7-8.433594-6.449218zm0 0"/><path d="m158.15625 334.632812c-4.8125.355469-9.25.566407-13.566406.636719-4.148438.070313-7.449219 3.488281-7.378906 7.632813.070312 4.105468 3.417968 7.378906 7.503906 7.378906h.128906c4.605469-.078125 9.324219-.296875 14.421875-.675781 4.132813-.308594 7.238281-3.90625 6.929687-8.042969-.304687-4.132812-3.90625-7.238281-8.039062-6.929688zm0 0"/><path d="m43.421875 283.339844c-2.941406-2.925782-7.691406-2.914063-10.617187.023437-2.925782 2.9375-2.917969 7.6875.023437 10.613281 3.441406 3.429688 6.933594 6.761719 10.375 9.90625 1.4375 1.3125 3.25 1.960938 5.058594 1.960938 2.035156 0 4.066406-.824219 5.546875-2.445312 2.792968-3.0625 2.578125-7.808594-.484375-10.605469-3.28125-2.996094-6.613281-6.175781-9.902344-9.453125zm0 0"/><path d="m84.664062 317.152344c-3.652343-2.320313-7.390624-4.890625-11.117187-7.640625-3.332031-2.460938-8.035156-1.753907-10.496094 1.582031-2.460937 3.335938-1.753906 8.035156 1.582031 10.496094 4.003907 2.957031 8.035157 5.726562 11.984376 8.234375 1.246093.792969 2.640624 1.171875 4.015624 1.171875 2.484376 0 4.914063-1.230469 6.34375-3.480469 2.222657-3.5 1.1875-8.140625-2.3125-10.363281zm0 0"/><path d="m464.953125 286.539062-1.300781 1.144532c-3.035156 2.679687-6.097656 5.378906-9.191406 8.058594-3.132813 2.714843-3.472657 7.453124-.757813 10.589843 1.484375 1.710938 3.574219 2.589844 5.675781 2.589844 1.742188 0 3.492188-.601563 4.914063-1.832031 3.128906-2.710938 6.21875-5.4375 9.289062-8.140625l1.296875-1.144531c3.113282-2.742188 3.410156-7.484376.667969-10.597657-2.738281-3.109375-7.484375-3.40625-10.59375-.667969zm0 0"/><path d="m433.9375 312.398438c-3.851562 2.839843-7.480469 5.324218-11.097656 7.589843-3.511719 2.203125-4.570313 6.839844-2.367188 10.347657 1.425782 2.273437 3.867188 3.519531 6.367188 3.519531 1.363281 0 2.742187-.371094 3.980468-1.148438 3.9375-2.46875 7.871094-5.160156 12.027344-8.226562 3.335938-2.460938 4.046875-7.160157 1.589844-10.496094-2.460938-3.335937-7.164062-4.046875-10.5-1.585937zm0 0"/><path d="m281.609375 326.539062c-5.199219-.199218-10.300781-.304687-14.164063-.375-.042968 0-.089843 0-.136718 0-4.082032 0-7.429688 3.269532-7.503906 7.367188-.074219 4.148438 3.226562 7.570312 7.371093 7.644531 3.789063.066407 8.792969.171875 13.855469.367188.097656.003906.195312.003906.292969.003906 4.011719 0 7.339843-3.171875 7.496093-7.214844.160157-4.144531-3.066406-7.632812-7.210937-7.792969zm0 0"/><path d="m400.132812 331.261719c-.664062.238281-1.332031.472656-2.003906.695312-3.449218 1.15625-7.003906 2.148438-10.566406 2.957031-4.042969.914063-6.582031 4.933594-5.664062 8.976563.789062 3.484375 3.882812 5.851563 7.3125 5.851563.550781 0 1.109374-.0625 1.667968-.1875 4.046875-.917969 8.089844-2.046876 12.015625-3.359376.777344-.261718 1.546875-.527343 2.3125-.804687 3.902344-1.398437 5.929688-5.699219 4.527344-9.601563-1.402344-3.902343-5.699219-5.929687-9.601563-4.527343zm0 0"/><path d="m362.417969 337.679688c-4.339844-.003907-8.769531-.25-13.164063-.734376-4.121094-.460937-7.828125 2.515626-8.285156 6.636719-.453125 4.121094 2.519531 7.828125 6.640625 8.285157 4.933594.542968 9.914063.820312 14.800781.824218h.003906c4.144532 0 7.503907-3.355468 7.507813-7.5.003906-4.148437-3.355469-7.511718-7.503906-7.511718zm0 0"/><path d="m323.785156 331.640625c-4.492187-1.097656-9.359375-2.03125-14.464844-2.773437-4.113281-.589844-7.910156 2.25-8.503906 6.351562-.597656 4.105469 2.246094 7.914062 6.351563 8.507812 4.628906.671876 9.023437 1.511719 13.050781 2.496094.597656.148438 1.199219.21875 1.789062.21875 3.378907 0 6.445313-2.296875 7.285157-5.726562.984375-4.027344-1.480469-8.089844-5.507813-9.074219zm0 0"/><path d="m316.957031 97.464844c.425781 0 .863281-.039063 1.300781-.113282 4.015626-.703124 8.128907-1.230468 12.226563-1.570312 4.132813-.34375 7.203125-3.96875 6.863281-8.101562-.34375-4.132813-3.964844-7.195313-8.101562-6.863282-4.546875.378906-9.113282.964844-13.570313 1.742188-4.085937.714844-6.820312 4.601562-6.105469 8.6875.636719 3.648437 3.804688 6.21875 7.386719 6.21875zm0 0"/><path d="m356.15625 95.953125c4.058594.375 8.207031.921875 12.324219 1.628906.429687.070313.855469.105469 1.273437.105469 3.589844 0 6.765625-2.582031 7.390625-6.242188.699219-4.085937-2.046875-7.964843-6.132812-8.664062-4.496094-.769531-9.027344-1.367188-13.46875-1.777344-4.128907-.386718-7.785157 2.652344-8.167969 6.78125-.382812 4.125 2.652344 7.78125 6.78125 8.167969zm0 0"/><path d="m393.667969 103.804688c3.921875 1.257812 7.902343 2.675781 11.839843 4.207031.894532.351562 1.816407.515625 2.722657.515625 3.003906 0 5.839843-1.816406 6.996093-4.785156 1.503907-3.863282-.40625-8.214844-4.269531-9.71875-4.21875-1.644532-8.488281-3.160157-12.691406-4.511719-3.949219-1.269531-8.175781.902343-9.445313 4.847656-1.269531 3.945313.902344 8.175781 4.847657 9.445313zm0 0"/><path d="m462.261719 139.570312c6.191406 4.589844 9.679687 7.675782 9.714843 7.707032 1.429688 1.269531 3.210938 1.890625 4.980469 1.890625 2.070313 0 4.132813-.851563 5.617188-2.519531 2.753906-3.097657 2.472656-7.84375-.625-10.597657-.160157-.140625-3.964844-3.511719-10.742188-8.539062-3.332031-2.46875-8.03125-1.773438-10.5 1.558593-2.472656 3.328126-1.773437 8.03125 1.554688 10.5zm0 0"/><path d="m278.621094 108.757812c.609375 0 1.226562-.074218 1.839844-.226562 3.6875-.929688 7.332031-2.113281 10.828124-3.511719.773438-.308593 1.546876-.609375 2.320313-.902343 3.878906-1.472657 5.828125-5.808594 4.355469-9.683594s-5.804688-5.824219-9.683594-4.351563c-.851562.324219-1.707031.65625-2.566406 1-2.878906 1.152344-5.882813 2.125-8.921875 2.890625-4.019531 1.011719-6.457031 5.089844-5.445313 9.113282.859375 3.402343 3.914063 5.671874 7.273438 5.671874zm0 0"/><path d="m429.320312 118.90625c3.691407 1.9375 7.40625 4.011719 11.046876 6.160156 1.195312.710938 2.511718 1.046875 3.808593 1.046875 2.570313 0 5.070313-1.320312 6.472657-3.691406 2.109374-3.566406.925781-8.171875-2.644532-10.28125-3.851562-2.273437-7.789062-4.472656-11.699218-6.527344-3.667969-1.925781-8.207032-.515625-10.136719 3.15625-1.929688 3.667969-.519531 8.207031 3.152343 10.136719zm0 0"/><path d="m237.550781 109.820312c4.628907.824219 9.382813 1.277344 14.132813 1.355469h.121094c4.089843 0 7.4375-3.28125 7.503906-7.386719.066406-4.144531-3.238282-7.558593-7.382813-7.625-3.953125-.0625-7.902343-.441406-11.746093-1.125-4.078126-.722656-7.976563 1.992188-8.703126 6.074219-.726562 4.082031 1.992188 7.980469 6.074219 8.707031zm0 0"/><path d="m84.195312 117.207031c1.121094 0 2.261719-.25 3.335938-.785156 3.789062-1.886719 7.636719-3.675781 11.441406-5.320313 3.804688-1.644531 5.554688-6.0625 3.910156-9.867187-1.644531-3.804687-6.058593-5.554687-9.867187-3.910156-4.050781 1.75-8.144531 3.652343-12.171875 5.65625-3.710938 1.847656-5.222656 6.355469-3.375 10.066406 1.3125 2.636719 3.964844 4.160156 6.726562 4.160156zm0 0"/><path d="m198.960938 98.367188c3.996093.863281 8.007812 1.921874 11.914062 3.148437.746094.234375 1.503906.347656 2.25.347656 3.191406 0 6.152344-2.054687 7.160156-5.261719 1.238282-3.957031-.960937-8.167968-4.917968-9.410156-4.34375-1.363281-8.796876-2.539062-13.242188-3.496094-4.050781-.875-8.046875 1.703126-8.917969 5.753907-.875 4.050781 1.703125 8.046875 5.753907 8.917969zm0 0"/><path d="m49.824219 137.75c1.496093 0 3.007812-.445312 4.324219-1.375 3.398437-2.398438 6.933593-4.769531 10.515624-7.039062 3.5-2.222657 4.539063-6.859376 2.316407-10.359376-2.21875-3.503906-6.855469-4.539062-10.359375-2.320312-3.789063 2.40625-7.535156 4.914062-11.136719 7.457031-3.386719 2.390625-4.191406 7.078125-1.796875 10.460938 1.460938 2.074219 3.78125 3.175781 6.136719 3.175781zm0 0"/><path d="m121.394531 102.519531c.695313 0 1.402344-.097656 2.105469-.300781 4.039062-1.175781 8.117188-2.21875 12.113281-3.09375 4.050781-.890625 6.613281-4.890625 5.726563-8.941406-.886719-4.050782-4.890625-6.609375-8.941406-5.726563-4.328126.949219-8.734376 2.078125-13.097657 3.347657-3.980469 1.160156-6.269531 5.328124-5.109375 9.308593.957032 3.277344 3.953125 5.40625 7.203125 5.40625zm0 0"/><path d="m160.738281 95.5625c.144531 0 .292969-.003906.441407-.015625 4.136718-.238281 8.257812-.308594 12.371093-.199219 4.152344.105469 7.59375-3.164062 7.703125-7.308594.105469-4.144531-3.164062-7.589843-7.308594-7.699218-4.535156-.117188-9.082031-.042969-13.636718.222656-4.136719.238281-7.296875 3.789062-7.058594 7.925781.230469 3.992188 3.539062 7.074219 7.488281 7.074219zm0 0"/><path d="m275.648438 396.238281-8.378907 9.246094v-22.441406c0-4.144531-3.363281-7.503907-7.507812-7.503907s-7.507813 3.359376-7.507813 7.503907v22.460937l-8.375-9.261718c-2.78125-3.074219-7.527344-3.3125-10.601562-.53125-3.074219 2.78125-3.3125 7.527343-.53125 10.601562l21.425781 23.691406c1.421875 1.574219 3.441406 2.472656 5.5625 2.472656h.003906c2.117188 0 4.136719-.894531 5.5625-2.464843l21.472657-23.691407c2.785156-3.070312 2.550781-7.820312-.519532-10.605468-3.074218-2.78125-7.820312-2.546875-10.605468.523437zm0 0"/><path d="m459.722656 374.582031c-3.9375-1.308593-8.183594.820313-9.492187 4.753907l-3.941407 11.839843-9.050781-20.53125c-1.671875-3.792969-6.101562-5.511719-9.898437-3.839843-3.792969 1.671874-5.511719 6.101562-3.839844 9.894531l9.0625 20.554687-11.398438-5.097656c-3.789062-1.691406-8.226562.007812-9.917968 3.792969-1.691406 3.785156.003906 8.222656 3.789062 9.914062l29.164063 13.035157c.972656.4375 2.019531.65625 3.0625.65625 1.03125 0 2.0625-.214844 3.023437-.636719 1.941406-.855469 3.429688-2.492188 4.101563-4.503907l10.089843-30.339843c1.304688-3.933594-.820312-8.183594-4.753906-9.492188zm0 0"/><path d="m90.835938 392.15625-11.398438 5.097656 9.0625-20.554687c1.671875-3.792969-.046875-8.222657-3.839844-9.894531-3.792968-1.671876-8.226562.046874-9.898437 3.839843l-9.050781 20.53125-3.941407-11.839843c-1.308593-3.933594-5.554687-6.0625-9.492187-4.753907-3.933594 1.308594-6.0625 5.554688-4.753906 9.492188l10.09375 30.339843c.667968 2.011719 2.15625 3.644532 4.097656 4.5.964844.425782 1.996094.636719 3.023437.636719 1.046875 0 2.089844-.21875 3.066407-.652343l29.160156-13.035157c3.785156-1.691406 5.484375-6.132812 3.789062-9.917969-1.691406-3.78125-6.128906-5.476562-9.917968-3.789062zm0 0"/><path d="m265.300781 2.964844c-1.421875-1.570313-3.445312-2.464844-5.5625-2.464844h-.003906c-2.121094 0-4.140625.898438-5.5625 2.472656l-21.425781 23.6875c-2.78125 3.078125-2.542969 7.824219.53125 10.605469 1.4375 1.296875 3.238281 1.9375 5.03125 1.9375 2.050781 0 4.089844-.832031 5.570312-2.46875l8.375-9.261719v22.460938c0 4.144531 3.363282 7.503906 7.507813 7.503906s7.507812-3.359375 7.507812-7.503906v-22.441406l8.382813 9.246093c2.78125 3.074219 7.527344 3.304688 10.601562.523438 3.070313-2.785157 3.304688-7.53125.519532-10.605469zm0 0"/><path d="m421.160156 40.820312 11.398438-5.09375-9.058594 20.550782c-1.671875 3.792968.046875 8.222656 3.839844 9.898437.984375.433594 2.011718.636719 3.023437.636719 2.882813 0 5.632813-1.671875 6.875-4.480469l9.050781-20.53125 3.9375 11.839844c1.046876 3.148437 3.976563 5.140625 7.121094 5.140625.789063 0 1.585938-.125 2.371094-.386719 3.933594-1.308593 6.0625-5.558593 4.753906-9.492187l-10.089844-30.339844c-.667968-2.011719-2.15625-3.648438-4.097656-4.5-1.941406-.855469-4.152344-.851562-6.089844.015625l-29.160156 13.035156c-3.785156 1.691407-5.480468 6.132813-3.789062 9.917969s6.128906 5.480469 9.914062 3.789062zm0 0"/><path d="m96.964844 27.113281-29.164063-13.035156c-1.9375-.863281-4.148437-.871094-6.089843-.015625-1.9375.855469-3.429688 2.488281-4.097657 4.5l-10.089843 30.339844c-1.308594 3.9375.820312 8.1875 4.753906 9.492187.785156.261719 1.585937.386719 2.371094.386719 3.144531 0 6.074218-1.992188 7.121093-5.140625l3.9375-11.839844 9.054688 20.53125c1.238281 2.808594 3.988281 4.480469 6.871093 4.480469 1.011719 0 2.039063-.203125 3.023438-.636719 3.796875-1.675781 5.515625-6.105469 3.839844-9.898437l-9.058594-20.550782 11.398438 5.09375c3.785156 1.691407 8.226562-.003906 9.917968-3.789062s-.007812-8.226562-3.789062-9.917969zm0 0"/></svg>