<svg height="512pt" viewBox="-103 0 512 512.00064" width="512pt" xmlns="http://www.w3.org/2000/svg"><path d="m272.507812 437.855469-67.675781-28.835938c-3.824219-1.628906-6.296875-5.371093-6.296875-9.53125v-10.003906c28.019532-13.992187 49.820313-35.277344 64.910156-63.421875 9.015626-16.816406 15.488282-35.75 19.355469-56.5 2.546875-1.292969 4.527344-2.996094 5.464844-3.882812 21.40625-19.332032 18.160156-79.855469 17.714844-86.765626-2.722657-37.039062-14.621094-56.398437-27.214844-76.894531-1.382813-2.25-2.773437-4.515625-4.167969-6.828125-.320312-.535156-.417968-1.179687-.257812-1.769531l1.550781-5.792969c1.222656-4.574218.492187-9.511718-2.003906-13.542968-13.050781-21.097657-29.675781-39.070313-49.410157-53.414063-26.882812-19.539063-61.390624-25.695313-92.304687-16.460937-19.898437 5.941406-35.289063 16.824218-45.746094 32.34375-2.308593 3.429687-1.402343 8.082031 2.027344 10.394531 3.429687 2.308593 8.082031 1.402343 10.390625-2.027344 5.496094-8.160156 12.769531-14.75 21.699219-19.722656 10.082031 15.175781 27.425781 23.667969 44.523437 31.046875 14.785156 6.382812 33.1875 14.328125 41.066406 29.148437 1.34375 2.53125 3.9375 3.976563 6.617188 3.976563 1.183594 0 2.386719-.28125 3.507812-.878906 3.652344-1.941407 5.039063-6.472657 3.097657-10.125-10.34375-19.460938-32.3125-28.945313-48.351563-35.867188-14.554687-6.285156-28.238281-12.882812-36.363281-23.363281.605469-.191407 1.203125-.394531 1.816406-.578125 26.464844-7.902344 56.082031-2.585938 79.214844 14.226562 18.15625 13.195313 33.460937 29.742188 45.484375 49.175782.332031.539062.429688 1.191406.265625 1.796874l-1.546875 5.792969c-1.203125 4.496094-.511719 9.367188 1.894531 13.367188 1.417969 2.351562 2.832031 4.65625 4.238281 6.941406 12.117188 19.71875 22.582032 36.75 25.03125 70.085937 1.445313 22.402344-.554687 61.375-11.789062 73.609376-4.09375-17.03125-22.890625-66.570313-105.847656-97.460938-.878906-.324219-88.050782-33.34375-84.652344-82.382812.285156-4.125-2.828125-7.699219-6.953125-7.984376-4.128906-.285156-7.703125 2.824219-7.988281 6.949219-.207032 2.984375-.160156 5.902344.09375 8.765625-9.445313 2.835938-18.011719 6.859375-25.597656 12.046875-13.894532 9.503907-17.65625 17.597657-18.210938 32.988281 0 .046876-.007812.09375-.007812.144532 0 .042968 0 .132812-.003907.246094-.046875 1.511718-.066406 3.085937-.0625 4.742187-6.644531-1.632813-13.003906.925781-17.644531 7.171875-3.8125 5.136719-10.464844 18.644531-12.152344 51.414062-.710937 13.855469.28125 27.261719 2.953125 39.851563 2.410157 11.347656 7.285157 21.832031 15.339844 32.992187 1.410156 1.953126 3.269531 3.402344 5.351563 4.3125 3.8125 21.613282 10.410156 41.300782 19.746093 58.710938 15.085938 28.136719 36.875 49.417969 64.882813 63.40625v10.023438c0 4.160156-2.46875 7.898437-6.296875 9.53125l-67.675781 28.832031c-16.648438 7.09375-27.402344 23.371093-27.402344 41.46875v25.1875c0 4.136719 3.351562 7.488281 7.488281 7.488281h277.816406c4.136719 0 7.488281-3.351562 7.488281-7.488281v-25.1875c0-18.097657-10.757812-34.375-27.40625-41.46875zm-215.699218-118.867188c-8.660156-16.15625-14.785156-34.527343-18.304688-54.792969 1.378906-1.519531 2.414063-3.378906 2.980469-5.476562 5.574219-20.589844 11.605469-37.445312 22.902344-52.769531 2.453125-3.328125 1.742187-8.015625-1.585938-10.46875s-8.011719-1.746094-10.46875 1.582031c-11.886719 16.125-18.433593 33.234375-24.164062 53.617188-5.371094-8.105469-8.605469-15.570313-10.339844-23.742188-2.402344-11.316406-3.292969-23.417969-2.648437-35.972656 1.035156-20.128906 4.65625-37.109375 9.21875-43.253906 1.34375-1.8125 1.792968-1.660157 2.3125-1.480469 1.277343.433593 2.558593.675781 3.828124.773437.480469 9.132813 1.445313 19.59375 3.363282 27.492188.832031 3.425781 3.894531 5.722656 7.269531 5.722656.582031 0 1.179687-.070312 1.769531-.214844 4.019532-.976562 6.484375-5.023437 5.511719-9.042968-3.734375-15.371094-3.398437-43.851563-3.394531-44.136719.003906-.039063-.003906-.078125-.003906-.117188.390624-11.269531 2.777343-14.75 11.707031-20.855469 6.03125-4.128906 12.886719-7.367187 20.453125-9.738281 7.796875 21.382813 27.285156 38.617188 46.253906 51.058594-5.070312 2.554687-10.125 4.632813-14.023438 6.230469l-.683593.28125c-10.921875 4.484375-21.132813 10.265625-30.347657 17.1875-3.308593 2.484375-3.976562 7.175781-1.492187 10.484375 2.480469 3.304687 7.175781 3.972656 10.484375 1.488281 8.199219-6.15625 17.296875-11.308594 27.042969-15.308594l.679687-.28125c6.625-2.714844 15.242188-6.261718 23.15625-11.164062 15.710938 8.679687 28.476563 13.511718 29.898438 14.039062 26.042968 9.695313 61.5625 27.675782 82.890625 58.277344 12.648437 18.148438 14.347656 32.40625 14.359375 32.503906.03125.300782.078125.601563.144531.898438.519531 2.335937 1.40625 4.085937 2.429687 5.398437-3.589843 19.078125-9.53125 36.425781-17.757812 51.777344-15.546875 29.003906-39.011719 49.917969-69.738281 62.171875-17.398438 6.941406-36.5625 6.941406-53.964844 0-30.726563-12.25-54.1875-33.167969-69.738281-62.167969zm228.128906 178.035157h-262.84375v-17.699219c0-12.085938 7.183594-22.957031 18.296875-27.691407l67.675781-28.835937c9.355469-3.988281 15.402344-13.136719 15.402344-23.308594v-3.5c9.746094 3.554688 19.898438 5.355469 30.058594 5.355469 10.152344 0 20.296875-1.796875 30.03125-5.347656v3.492187c0 10.171875 6.046875 19.320313 15.402344 23.308594l67.675781 28.835937c11.117187 4.734376 18.300781 15.605469 18.300781 27.691407zm0 0"/><path d="m95.898438 264.339844c0 12.570312 10.226562 22.792968 22.796874 22.792968 12.566407 0 22.792969-10.222656 22.792969-22.792968 0-4.132813-3.351562-7.484375-7.488281-7.484375s-7.488281 3.351562-7.488281 7.484375c0 4.3125-3.507813 7.820312-7.816407 7.820312-4.3125 0-7.820312-3.507812-7.820312-7.820312 0-4.132813-3.351562-7.484375-7.488281-7.484375s-7.488281 3.351562-7.488281 7.484375zm0 0"/><path d="m188.363281 287.132812c12.566407 0 22.792969-10.222656 22.792969-22.792968 0-4.132813-3.351562-7.484375-7.488281-7.484375-4.132813 0-7.484375 3.351562-7.484375 7.484375 0 4.3125-3.507813 7.820312-7.820313 7.820312s-7.820312-3.507812-7.820312-7.820312c0-4.132813-3.351563-7.484375-7.484375-7.484375-4.136719 0-7.488282 3.351562-7.488282 7.484375 0 12.570312 10.222657 22.792968 22.792969 22.792968zm0 0"/><path d="m114.703125 229.972656c3.097656 1.734375 6.273437 3.988282 9.996094 7.09375 1.398437 1.171875 3.101562 1.742188 4.796875 1.742188 2.140625 0 4.269531-.914063 5.75-2.6875 2.648437-3.175782 2.226562-7.898438-.949219-10.546875-4.449219-3.71875-8.351563-6.472657-12.285156-8.667969-3.609375-2.019531-8.171875-.730469-10.1875 2.878906-2.019531 3.609375-.730469 8.171875 2.878906 10.1875zm0 0"/><path d="m59.433594 259.621094c3.996094 0 7.316406-3.160156 7.476562-7.191406.125-3.179688 1.386719-6.46875 3.746094-9.78125 2.402344-3.367188 1.617188-8.042969-1.75-10.445313-3.367188-2.398437-8.042969-1.613281-10.441406 1.753906-4.082032 5.726563-6.277344 11.742188-6.515625 17.882813-.164063 4.132812 3.050781 7.613281 7.183593 7.777344.101563.003906.199219.003906.300782.003906zm0 0"/><path d="m103.691406 217.953125c-.660156-4.082031-4.503906-6.851563-8.589844-6.191406-5.367187.871093-11.015624 2.734375-16.320312 5.390625-3.699219 1.851562-5.195312 6.347656-3.34375 10.046875 1.3125 2.621093 3.953125 4.136719 6.699219 4.136719 1.128906 0 2.273437-.253907 3.347656-.792969 3.96875-1.984375 8.121094-3.367188 12.015625-4 4.082031-.660157 6.851562-4.507813 6.191406-8.589844zm0 0"/><path d="m209.554688 226.542969c3.894531.632812 8.046874 2.015625 12.015624 4 1.078126.539062 2.222657.792969 3.347657.792969 2.746093 0 5.386719-1.515626 6.703125-4.136719 1.847656-3.699219.351562-8.195313-3.34375-10.046875-5.308594-2.65625-10.953125-4.519532-16.324219-5.390625-4.09375-.664063-7.925781 2.109375-8.589844 6.191406-.660156 4.082031 2.109375 7.929687 6.191407 8.589844zm0 0"/><path d="m240.144531 252.429688c.160157 4.03125 3.480469 7.191406 7.480469 7.191406.097656 0 .199219 0 .296875-.003906 4.132813-.164063 7.351563-3.644532 7.1875-7.777344-.242187-6.140625-2.433594-12.15625-6.515625-17.882813-2.398438-3.367187-7.074219-4.152343-10.441406-1.75-3.367188 2.398438-4.152344 7.074219-1.753906 10.441407 2.359374 3.3125 3.621093 6.601562 3.746093 9.78125zm0 0"/><path d="m177.5625 238.808594c1.691406 0 3.394531-.570313 4.792969-1.738282 3.722656-3.109374 6.898437-5.363281 9.996093-7.09375 3.609376-2.019531 4.898438-6.582031 2.882813-10.191406-2.019531-3.609375-6.582031-4.898437-10.191406-2.878906-3.925781 2.195312-7.832031 4.953125-12.285157 8.667969-3.171874 2.652343-3.597656 7.375-.949218 10.546875 1.484375 1.773437 3.609375 2.6875 5.753906 2.6875zm0 0"/><path d="m123.976562 354.050781c-.933593-4.027343-4.957031-6.539062-8.984374-5.605469-4.027344.933594-6.535157 4.957032-5.605469 8.984376.460937 1.992187.804687 4.054687 1.019531 6.136718.394531 3.851563 3.648438 6.722656 7.4375 6.722656.257812 0 .515625-.015624.777344-.042968 4.113281-.421875 7.105468-4.097656 6.679687-8.210938-.277343-2.703125-.722656-5.386718-1.324219-7.984375zm0 0"/><path d="m113.167969 330.636719c-3.160157-4.320313-6.941407-8.421875-11.242188-12.195313-3.109375-2.726562-7.839843-2.414062-10.566406.691406-2.726563 3.109376-2.417969 7.839844.691406 10.566407 3.480469 3.050781 6.515625 6.339843 9.03125 9.777343 1.464844 2.007813 3.742188 3.070313 6.046875 3.070313 1.535156 0 3.082032-.472656 4.414063-1.445313 3.339843-2.441406 4.066406-7.125 1.625-10.464843zm0 0"/><path d="m81.238281 304.699219c-8.5-4.253907-14.96875-6.085938-15.242187-6.160157-3.980469-1.113281-8.097656 1.203126-9.21875 5.175782-1.121094 3.976562 1.195312 8.109375 5.167968 9.238281.050782.015625 5.457032 1.570313 12.589844 5.140625 1.074219.535156 2.21875.792969 3.34375.792969 2.746094 0 5.390625-1.515625 6.703125-4.140625 1.847657-3.695313.351563-8.195313-3.34375-10.046875zm0 0"/><path d="m192.039062 348.445312c-4.035156-.933593-8.050781 1.578126-8.984374 5.605469-.601563 2.597657-1.046876 5.28125-1.324219 7.984375-.425781 4.113282 2.566406 7.789063 6.683593 8.210938.257813.027344.515626.042968.773438.042968 3.789062 0 7.042969-2.871093 7.4375-6.722656.214844-2.082031.558594-4.144531 1.019531-6.136718.933594-4.027344-1.578125-8.050782-5.605469-8.984376zm0 0"/><path d="m241.035156 298.539062c-.273437.074219-6.738281 1.90625-15.238281 6.160157-3.699219 1.851562-5.195313 6.351562-3.347656 10.046875 1.3125 2.625 3.957031 4.140625 6.703125 4.140625 1.125 0 2.269531-.257813 3.34375-.792969 7.132812-3.570312 12.539062-5.125 12.59375-5.140625 3.972656-1.121094 6.289062-5.25 5.175781-9.226563-1.117187-3.980468-5.246094-6.304687-9.230469-5.1875zm0 0"/><path d="m205.105469 318.445312c-4.300781 3.769532-8.082031 7.871094-11.242188 12.191407-2.441406 3.339843-1.714843 8.023437 1.621094 10.464843 1.335937.976563 2.882813 1.445313 4.417969 1.445313 2.304687 0 4.582031-1.0625 6.046875-3.066406 2.515625-3.441407 5.550781-6.730469 9.03125-9.78125 3.109375-2.726563 3.417969-7.457031.691406-10.566407-2.726563-3.105468-7.457031-3.417968-10.566406-.6875zm0 0"/></svg>