<?xml version="1.0" encoding="UTF-8"?>
<svg width="503px" height="512px" viewBox="0 0 503 512" version="1.1" xmlns="http://www.w3.org/2000/svg" xmlns:xlink="http://www.w3.org/1999/xlink">
    <!-- Generator: Sketch 64 (93537) - https://sketch.com -->
    <title>botox</title>
    <desc>Created with Sketch.</desc>
    <g id="Page-1" stroke="none" stroke-width="1" fill="none" fill-rule="evenodd">
        <g id="botox" fill-rule="nonzero">
            <path d="M337.753906,264.839844 C337.753906,260.695312 334.394531,257.339844 330.253906,257.339844 C326.113281,257.339844 322.753906,260.695312 322.753906,264.839844 C322.753906,269.125 319.265625,272.613281 314.980469,272.613281 C310.695312,272.613281 307.207031,269.125 307.207031,264.839844 C307.207031,260.695312 303.847656,257.339844 299.707031,257.339844 C295.566406,257.339844 292.207031,260.695312 292.207031,264.839844 C292.207031,277.398438 302.421875,287.613281 314.980469,287.613281 C327.539062,287.613281 337.753906,277.394531 337.753906,264.839844 Z" id="Path" fill="#000000"></path>
            <path d="M407.277344,264.839844 C407.277344,260.695312 403.917969,257.339844 399.777344,257.339844 C395.632812,257.339844 392.277344,260.695312 392.277344,264.839844 C392.277344,269.125 388.789062,272.613281 384.503906,272.613281 C380.214844,272.613281 376.730469,269.125 376.730469,264.839844 C376.730469,260.695312 373.371094,257.339844 369.230469,257.339844 C365.085938,257.339844 361.730469,260.695312 361.730469,264.839844 C361.730469,277.398438 371.945312,287.613281 384.503906,287.613281 C397.058594,287.613281 407.277344,277.394531 407.277344,264.839844 Z" id="Path" fill="#000000"></path>
            <path d="M468.476562,437.957031 L454.988281,432.210938 C451.175781,430.582031 446.773438,432.359375 445.148438,436.167969 C443.523438,439.980469 445.296875,444.386719 449.109375,446.007812 L462.597656,451.757812 C473.679688,456.480469 480.84375,467.316406 480.84375,479.363281 L480.84375,497 L218.613281,497 L218.613281,479.363281 C218.613281,467.316406 225.777344,456.480469 236.859375,451.757812 L304.386719,422.984375 C313.734375,419 319.777344,409.859375 319.777344,399.699219 L319.777344,396.246094 C329.492188,399.785156 339.613281,401.578125 349.742188,401.578125 C359.859375,401.578125 369.972656,399.789062 379.679688,396.253906 L379.679688,399.699219 C379.679688,409.859375 385.71875,419 395.070312,422.984375 L416.988281,432.324219 C420.796875,433.949219 425.203125,432.171875 426.828125,428.363281 C428.453125,424.550781 426.679688,420.148438 422.867188,418.523438 L400.949219,409.183594 C397.140625,407.5625 394.679688,403.835938 394.679688,399.699219 L394.679688,389.730469 C422.640625,375.765625 444.390625,354.527344 459.449219,326.441406 C468.582031,309.402344 475.101562,290.1875 478.9375,269.109375 C481.554688,267.808594 483.589844,266.0625 484.546875,265.160156 C505.917969,245.859375 502.675781,185.457031 502.230469,178.554688 C499.511719,141.589844 487.640625,122.269531 475.070312,101.8125 C473.691406,99.570312 472.300781,97.308594 470.910156,94.996094 C470.59375,94.472656 470.5,93.835938 470.65625,93.253906 L472.203125,87.472656 C473.425781,82.902344 472.699219,77.96875 470.203125,73.9375 C457.179688,52.882812 440.585938,34.945312 420.890625,20.632812 C394.054688,1.128906 359.613281,-5.011719 328.757812,4.203125 C277.828125,19.410156 271.691406,62.253906 271.171875,66.945312 C270.328125,71.886719 270.160156,76.675781 270.566406,81.304688 C261.160156,84.132812 252.617188,88.128906 245.0625,93.292969 C231.1875,102.78125 227.433594,110.859375 226.878906,126.222656 C226.878906,126.273438 226.871094,126.324219 226.871094,126.378906 C226.871094,126.425781 226.867188,126.527344 226.867188,126.65625 C226.820312,128.140625 226.800781,129.691406 226.804688,131.320312 C220.175781,129.703125 213.832031,132.261719 209.203125,138.496094 C205.394531,143.625 198.753906,157.113281 197.070312,189.816406 C196.359375,203.648438 197.351562,217.027344 200.019531,229.589844 C202.421875,240.917969 207.289062,251.382812 215.328125,262.523438 C216.613281,264.304688 218.273438,265.675781 220.136719,266.59375 C222.082031,277.96875 224.792969,288.886719 228.289062,299.203125 C229.617188,303.125 233.878906,305.230469 237.796875,303.898438 C241.722656,302.570312 243.824219,298.3125 242.496094,294.386719 C239.253906,284.824219 236.742188,274.671875 234.933594,264.082031 C236.503906,262.496094 237.679688,260.492188 238.300781,258.203125 C244.628906,234.832031 251.316406,217.035156 265.089844,200.535156 C277.066406,186.1875 292.972656,174.671875 311.089844,167.234375 L311.765625,166.957031 C318.371094,164.25 326.964844,160.714844 334.863281,155.828125 C350.511719,164.46875 363.230469,169.28125 364.691406,169.824219 C390.671875,179.496094 426.109375,197.4375 447.386719,227.960938 C460.007812,246.070312 461.703125,260.289062 461.714844,260.390625 C461.746094,260.691406 461.792969,260.992188 461.859375,261.289062 C462.359375,263.523438 463.195312,265.21875 464.164062,266.511719 C460.605469,286.011719 454.613281,303.726562 446.230469,319.359375 C430.71875,348.289062 407.3125,369.160156 376.660156,381.382812 C359.304688,388.308594 340.1875,388.304688 322.828125,381.382812 C294.210938,369.972656 271.871094,350.992188 256.425781,324.972656 C254.3125,321.410156 249.710938,320.238281 246.148438,322.351562 C242.585938,324.464844 241.414062,329.070312 243.527344,332.628906 C258.378906,357.648438 278.949219,376.789062 304.78125,389.703125 L304.78125,399.699219 C304.78125,403.839844 302.320312,407.5625 298.511719,409.1875 L230.980469,437.960938 C214.359375,445.042969 203.617188,461.292969 203.617188,479.363281 L203.617188,504.5 C203.617188,508.640625 206.976562,512 211.117188,512 L488.347656,512 C492.488281,512 495.847656,508.640625 495.847656,504.5 L495.847656,479.363281 C495.84375,461.292969 485.101562,445.039062 468.476562,437.957031 L468.476562,437.957031 Z" id="Shape" fill="#000000"></path>
            <path d="M306.070312,153.074219 L305.390625,153.355469 C285.023438,161.714844 267.105469,174.707031 253.570312,190.921875 C237.5625,210.097656 230.238281,231.257812 224.96875,250.101562 C219.632812,242.035156 216.414062,234.605469 214.6875,226.472656 C212.292969,215.1875 211.40625,203.113281 212.050781,190.585938 C213.082031,170.503906 216.691406,153.566406 221.242188,147.4375 C222.1875,146.164062 222.671875,145.867188 223.0625,145.867188 C223.21875,145.867188 223.363281,145.917969 223.515625,145.96875 C224.785156,146.402344 226.058594,146.648438 227.320312,146.746094 C227.800781,155.855469 228.757812,166.28125 230.671875,174.15625 C231.503906,177.585938 234.574219,179.886719 237.953125,179.886719 C238.539062,179.886719 239.132812,179.820312 239.726562,179.671875 C243.753906,178.695312 246.222656,174.640625 245.246094,170.617188 C241.523438,155.28125 241.863281,126.867188 241.867188,126.578125 C241.867188,126.535156 241.863281,126.488281 241.863281,126.445312 C242.25,115.222656 244.632812,111.753906 253.527344,105.671875 C259.535156,101.566406 266.347656,98.332031 273.878906,95.964844 C281.644531,117.285156 301.078125,134.472656 320.007812,146.890625 C314.96875,149.425781 309.945312,151.488281 306.070312,153.074219 L306.070312,153.074219 Z" id="Path" fill="#F09491"></path>
            <path d="M323.4375,131.035156 C294.90625,111.035156 282.308594,90.253906 285.992188,69.269531 C286.023438,69.085938 286.050781,68.867188 286.070312,68.683594 C286.199219,67.378906 289.234375,40.796875 317.160156,25.21875 C327.226562,40.351562 344.527344,48.816406 361.578125,56.179688 C379.691406,63.996094 395.277344,71.582031 402.542969,85.25 C403.890625,87.789062 406.484375,89.234375 409.171875,89.234375 C410.355469,89.234375 411.5625,88.949219 412.683594,88.355469 C416.34375,86.410156 417.730469,81.871094 415.789062,78.210938 C405.460938,58.785156 383.535156,49.316406 367.523438,42.40625 C353.023438,36.148438 339.390625,29.574219 331.28125,19.144531 C331.871094,18.953125 332.441406,18.753906 333.046875,18.574219 C341.101562,16.167969 349.445312,14.988281 357.808594,14.988281 C376.871094,14.988281 396.03125,21.105469 412.070312,32.765625 C430.183594,45.929688 445.449219,62.4375 457.445312,81.828125 C457.773438,82.355469 457.871094,83 457.710938,83.597656 L456.164062,89.378906 C454.964844,93.875 455.65625,98.742188 458.0625,102.738281 C459.476562,105.085938 460.886719,107.382812 462.289062,109.664062 C474.378906,129.339844 484.820312,146.332031 487.265625,179.585938 C488.695312,201.921875 486.695312,240.75 475.542969,252.980469 C471.429688,235.925781 452.617188,186.554688 369.914062,155.761719 C369.675781,155.671875 345.835938,146.738281 323.4375,131.035156 Z" id="Path" fill="#F09491"></path>
            <path d="M223.6875,370.441406 C224.394531,367.367188 224.101562,364.222656 222.902344,361.371094 L232.25,355.527344 C239.394531,351.058594 241.570312,341.609375 237.101562,334.464844 L233.644531,328.9375 L259.371094,311.011719 C262.769531,308.644531 263.605469,303.96875 261.238281,300.570312 C258.871094,297.171875 254.195312,296.339844 250.796875,298.703125 L225.679688,316.203125 L222.617188,311.304688 C220.449219,307.84375 217.070312,305.433594 213.089844,304.515625 C209.113281,303.601562 205.015625,304.285156 201.554688,306.453125 L192.207031,312.296875 C190.167969,309.96875 187.46875,308.332031 184.394531,307.621094 C180.527344,306.730469 176.542969,307.398438 173.179688,309.503906 L141.71875,329.183594 C141.71875,329.183594 141.714844,329.183594 141.714844,329.1875 C141.714844,329.1875 141.714844,329.1875 141.710938,329.1875 L110.257812,348.863281 C110.253906,348.863281 110.253906,348.863281 110.253906,348.863281 L57.308594,381.980469 L51.820312,373.203125 C49.625,369.691406 44.996094,368.625 41.484375,370.824219 C37.972656,373.019531 36.90625,377.648438 39.105469,381.160156 L48.570312,396.292969 L55.144531,406.804688 L39.558594,416.554688 L38.3125,414.5625 C34.34375,408.210938 25.949219,406.277344 19.597656,410.25 L6.882812,418.203125 C3.808594,420.125 1.664062,423.132812 0.851562,426.667969 C0.0351562,430.203125 0.648438,433.84375 2.570312,436.917969 L27.867188,477.359375 C29.789062,480.433594 32.796875,482.578125 36.332031,483.390625 C37.351562,483.625 38.382812,483.742188 39.40625,483.742188 C41.921875,483.742188 44.394531,483.039062 46.582031,481.671875 L59.300781,473.71875 C65.648438,469.746094 67.582031,461.351562 63.609375,455 L62.363281,453.011719 L77.949219,443.261719 L93.992188,468.910156 C95.414062,471.183594 97.855469,472.433594 100.355469,472.433594 C101.714844,472.433594 103.089844,472.0625 104.328125,471.289062 C107.839844,469.09375 108.90625,464.464844 106.707031,460.953125 L101.21875,452.179688 L154.164062,419.0625 L217.085938,379.703125 C220.453125,377.597656 222.796875,374.308594 223.6875,370.441406 L223.6875,370.441406 Z M39.828125,468.203125 L16.039062,430.167969 L26.347656,423.71875 L30.820312,430.867188 L45.667969,454.605469 L50.136719,461.753906 L39.828125,468.203125 Z M54.410156,440.292969 L47.515625,429.269531 L63.097656,419.523438 L69.992188,430.542969 L54.410156,440.292969 Z M93.261719,439.460938 L71.839844,405.207031 C71.839844,405.207031 65.265625,394.695312 65.265625,394.695312 L84.015625,382.96875 L92.183594,396.023438 C93.605469,398.296875 96.050781,399.546875 98.550781,399.546875 C99.90625,399.546875 101.28125,399.179688 102.519531,398.402344 C106.03125,396.207031 107.097656,391.578125 104.902344,388.066406 L96.734375,375.011719 L111.851562,365.558594 L139.851562,410.320312 L93.261719,439.460938 Z" id="Shape" fill="#000000"></path>
            <path d="M200.339844,324.90625 L209.507812,319.167969 C209.539062,319.148438 209.605469,319.109375 209.71875,319.132812 C209.832031,319.160156 209.875,319.226562 209.894531,319.261719 L224.382812,342.421875 C224.402344,342.453125 224.445312,342.519531 224.417969,342.632812 C224.394531,342.746094 224.328125,342.789062 224.292969,342.808594 L215.125,348.542969 L200.339844,324.90625 Z" id="Path" fill="#F09491"></path>
            <path d="M152.566406,402.367188 L124.570312,357.601562 L143.308594,345.878906 L151.476562,358.9375 C152.898438,361.210938 155.339844,362.460938 157.839844,362.460938 C159.199219,362.460938 160.574219,362.089844 161.8125,361.316406 C165.324219,359.121094 166.390625,354.492188 164.191406,350.980469 L156.027344,337.925781 L181.011719,322.296875 L184.625,328.066406 L206.382812,362.855469 C206.382812,362.859375 206.386719,362.859375 206.386719,362.863281 L209.011719,367.0625 L152.566406,402.367188 Z" id="Path" fill="#F09491"></path>
        </g>
    </g>
</svg>