<?xml version="1.0" encoding="UTF-8"?>
<svg width="292px" height="309px" viewBox="0 0 292 309" version="1.1" xmlns="http://www.w3.org/2000/svg" xmlns:xlink="http://www.w3.org/1999/xlink">
    <!-- Generator: Sketch 64 (93537) - https://sketch.com -->
    <title>Group</title>
    <desc>Created with Sketch.</desc>
    <g id="Page-1" stroke="none" stroke-width="1" fill="none" fill-rule="evenodd">
        <g id="Artboard" transform="translate(-37.000000, -28.000000)" fill-rule="nonzero">
            <g id="Group" transform="translate(37.000000, 28.191858)">
                <path d="M49.2338429,82.174007 C52.0745951,82.174007 54.3697124,79.8720222 54.3697124,77.0381374 C54.3697124,50.07042 92.2466038,10.271833 126.271886,10.271833 L141.679495,10.271833 C164.898908,10.271833 187.09056,18.9112461 204.172756,34.6005939 C206.263789,36.5173591 209.508073,36.3821243 211.429299,34.2864783 C213.350643,32.1954457 213.21083,28.9442348 211.122063,27.0299348 C192.135193,9.60026087 167.471867,2.13162821e-14 141.679237,2.13162821e-14 L126.271628,2.13162821e-14 C88.6424324,2.13162821e-14 44.0977151,41.7590217 44.0977151,77.0380435 C44.0977151,79.8719283 46.3928324,82.174007 49.2335846,82.174007 L49.2338429,82.174007 Z" id="Path" fill="#000000"></path>
                <path d="M42.3136255,262.275746 C40.1813298,266.863633 38.9592864,271.951137 38.9592864,277.334703 L38.9592864,303.01405 C38.9592864,305.847935 41.2544038,308.14992 44.0951559,308.14992 L239.258199,308.14992 C242.098952,308.14992 244.394069,305.847935 244.394069,303.01405 L244.394069,277.334703 C244.394069,273.647911 243.809407,270.061724 242.724882,266.611007 C263.843578,261.997881 279.847534,250.382833 286.409708,234.495681 C294.379404,215.215333 293.214882,189.24955 283.518478,169.883507 C278.121236,159.107572 270.350695,150.101311 262.837652,141.395572 C261.395499,139.726385 259.955578,138.057257 258.538665,136.383492 C250.007252,126.299579 244.667121,117.133079 244.394186,102.716253 C244.394186,99.0959048 244.203883,95.4597091 243.830156,91.9056874 C243.532094,89.0855374 240.938926,87.0724526 238.185278,87.3338243 C235.36055,87.6318867 233.315359,90.1585526 233.613415,92.9832809 C233.952752,96.1840135 234.122418,99.4556504 234.122418,102.814803 C234.445702,120.31315 240.984527,131.539281 250.694548,143.023672 C252.1367,144.729485 253.597224,146.419333 255.060037,148.1137 C262.490907,156.725527 269.511494,164.855461 274.33569,174.492113 C282.644646,191.085374 283.708798,214.157461 276.924285,230.5852 C267.945611,252.2932 240.422633,257.025831 232.201133,257.959092 C209.798177,260.490342 195.495807,251.507266 177.627677,234.050005 L177.627677,205.433527 C177.627677,205.330351 177.577235,205.247808 177.570357,205.146927 C196.100574,193.265753 208.443096,172.538558 208.443096,148.938797 L208.443096,112.98771 C208.443096,110.153825 206.147978,107.85184 203.307226,107.85184 C200.466474,107.85184 198.171357,110.153825 198.171357,112.98771 L198.171357,148.938797 C198.171357,180.08858 172.826574,205.433362 141.676792,205.433362 C110.527009,205.433362 85.1822263,180.08858 85.1822263,148.938797 L85.1822263,107.565406 C104.913944,105.332212 120.851574,90.4104274 124.616313,71.178797 C130.21535,77.8554274 136.648922,83.786623 143.839139,88.8978404 C146.150281,90.5417883 149.351013,90.0029622 151.004118,87.6918209 C152.643487,85.3806796 152.102372,82.1707904 149.791231,80.5268426 C139.668578,73.3272339 131.224035,64.3327122 124.6871,53.7903861 C123.481081,51.8438035 121.128676,50.9198165 118.918433,51.5571926 C116.710478,52.1899904 115.185742,54.2030752 115.185742,56.4981926 L115.185742,62.4505187 C115.185742,81.8177361 99.4183285,97.5810404 80.0464154,97.5810404 C77.2056633,97.5810404 74.9105459,99.8830252 74.9105459,102.71691 L74.9105459,148.939736 C74.9105459,172.539497 87.2524807,193.266693 105.783285,205.147867 C105.776407,205.248753 105.725965,205.33129 105.725965,205.434466 L105.725965,241.385553 L74.9107478,241.385553 C64.3202913,241.385553 54.8098348,246.016992 48.2247695,253.331292 C47.8808482,253.173089 47.5667326,252.955276 47.1815717,252.875027 C32.5692891,249.701823 14.2961587,241.606049 10.8753761,229.213636 C9.35527605,223.717786 10.7011204,216.986157 14.8717282,209.193136 C18.8153717,201.823897 23.98775,195.259962 29.4722717,188.310397 C31.9209956,185.208214 34.3673717,182.10157 36.6988804,178.92144 C51.6433804,158.568136 57.4166848,131.815831 54.3510108,97.1290487 C54.1033856,94.3088987 51.5675456,92.2499726 48.7840804,92.465503 C45.9547739,92.7177124 43.8683195,95.2077052 44.1205348,98.0324335 C46.9659239,130.12252 41.8300543,154.588629 28.4264913,172.840042 C26.1611913,175.926142 23.7835478,178.941455 21.4106,181.951368 C15.8941478,188.946716 10.1897521,196.17802 5.81751301,204.342586 C0.358347794,214.53626 -1.26940003,223.822499 0.979699968,231.947738 C5.37729562,247.928803 24.7238521,257.932303 42.3143521,262.281651 L42.3136255,262.275746 Z" id="Path" fill="#000000"></path>
                <path d="M141.679495,215.704268 C150.774973,215.704268 159.44843,213.860872 167.358843,210.552374 L167.358843,241.38344 C167.358843,255.543766 155.839821,267.062787 141.679495,267.062787 C127.519169,267.062787 116.000147,255.543766 116.000147,241.38344 L116.000147,210.552374 C123.91056,213.860872 132.584017,215.704268 141.679495,215.704268 Z" id="Path" fill="#FFFFFF"></path>
                <path d="M74.9131907,251.655355 L107.24393,251.655355 C111.675921,266.487746 125.430191,277.334703 141.679495,277.334703 C159.352169,277.334703 174.056017,264.499724 177.045973,247.670507 C190.055278,259.416681 204.465647,268.640703 224.999734,268.640703 C227.377378,268.640703 229.874232,268.466447 232.421799,268.209653 C233.52921,271.114619 234.125323,274.170784 234.125323,277.335067 L234.125323,297.878545 L49.234019,297.878545 L49.234019,277.335067 C49.234019,263.17474 60.7530407,251.655719 74.9133668,251.655719 L74.9131907,251.655355 Z" id="Path" fill="#F09491"></path>
                <path d="M134.612539,137.001616 C133.436336,135.233879 131.047247,134.74782 129.270295,135.933179 C121.206686,141.309818 110.790556,141.309818 102.728708,135.933179 C100.956393,134.74782 98.5626668,135.233879 97.3864646,137.001616 C96.2102624,138.773931 96.6825864,141.160731 98.4549016,142.343859 C103.781062,145.897705 109.891162,147.674598 115.999619,147.674598 C122.105141,147.674598 128.217706,145.897705 133.544336,142.343859 C135.316652,141.163079 135.793554,138.77399 134.612773,137.001616 L134.612539,137.001616 Z" id="Path" fill="#000000"></path>
                <path d="M184.902973,142.34879 C186.675289,141.168009 187.152191,138.77892 185.97141,137.006546 C184.795208,135.238809 182.406119,134.75275 180.629167,135.938109 C172.565558,141.314748 162.149428,141.314748 154.08758,135.938109 C152.315265,134.75275 149.921539,135.238809 148.745336,137.006546 C147.569134,138.778861 148.041458,141.165661 149.813773,142.34879 C155.139934,145.902635 161.250034,147.679529 167.358491,147.679529 C173.464012,147.679529 179.576578,145.902635 184.903208,142.34879 L184.902973,142.34879 Z" id="Path" fill="#000000"></path>
                <path d="M252.540161,57.1513984 L248.665561,50.8881788 L242.857607,41.5006645 L242.857607,41.4979433 C242.857607,41.4979433 242.854926,41.4979433 242.854926,41.4952217 L238.984444,35.2372272 C238.104945,33.8111777 236.254788,33.3785 234.843162,34.2765649 C233.440803,35.1691956 233.017134,37.0538047 233.900648,38.4772415 L236.177152,42.1564477 L225.837677,48.7464137 L225.49848,48.195334 C225.07481,47.5095149 224.401792,47.0251081 223.624195,46.8455021 C222.851952,46.6590825 222.032791,46.8060418 221.357061,47.2360303 L165.831075,82.6242663 C165.158057,83.0542617 164.678065,83.7373289 164.503779,84.5265364 L161.909523,96.0354637 L155.404491,100.180057 C153.999887,101.072688 153.578463,102.957297 154.461977,104.380734 C155.023724,105.301929 155.99977,105.808142 156.999911,105.808142 C157.546933,105.808142 158.096599,105.658462 158.593992,105.341431 L165.092502,101.199276 L176.434864,103.829549 C176.654737,103.881258 176.879985,103.90575 177.105205,103.90575 C177.666952,103.90575 178.219329,103.747908 178.703302,103.439039 L181.786919,101.472813 L200.291234,89.6834687 L200.293915,89.6834687 L200.296596,89.6807471 L234.226893,68.0576605 C235.629252,67.1650298 236.052922,65.2804207 235.169407,63.8569839 L234.83021,63.3086212 L245.169686,56.7186552 L247.446189,60.4006481 C248.01329,61.3245601 248.993352,61.8266975 249.993527,61.8266975 C250.54055,61.8266975 251.090215,61.6770177 251.587608,61.3599866 C252.996694,60.4592047 253.423041,58.5759541 252.539492,57.1526915 L252.540161,57.1513984 Z" id="Path" fill="#000000"></path>
                <path d="M170.883637,87.3769458 L206.642273,63.8081416 L212.999887,74.4359647 L208.916692,77.1280854 L206.686719,73.4009191 C205.825197,71.9562804 204.006267,71.5179626 202.632437,72.4277341 C201.256086,73.3320007 200.84111,75.2411765 201.705255,76.6856388 L203.935227,80.412805 L199.852032,83.1049258 L197.622059,79.3749364 C196.760537,77.9302977 194.941607,77.4919799 193.567778,78.4017515 C192.191427,79.306018 191.77645,81.2151939 192.640595,82.6571859 L194.870568,86.3871753 L190.785019,89.079296 L188.555046,85.3493066 C187.693524,83.9046679 185.878562,83.4663501 184.500765,84.3761217 C183.124414,85.2803882 182.709437,87.1895641 183.573582,88.6315561 L185.803554,92.3615455 L181.720359,95.0509137 L179.490387,91.3237474 C178.628865,89.8791087 176.816524,89.4407909 175.433752,90.3505624 C174.057401,91.254829 173.645047,93.1640049 174.510502,94.6059969 L176.425284,97.8081416 L168.999887,96.0271687 L170.883637,87.3769458 Z" id="Path" fill="#F09491"></path>
                <polygon id="Path" fill="#FFFFFF" points="218.556886 70.8081416 211.999887 60.3651408 222.442888 53.8081416 228.999887 64.2511424"></polygon>
                <polygon id="Path" fill="#000000" points="231.625199 58.8081416 228.999887 54.5073657 239.374574 47.8081416 241.999887 52.1089174"></polygon>
                <path d="M141.679495,188.741833 C153.409234,188.741833 164.476886,177.80742 164.944691,177.339616 C166.448767,175.840118 166.448767,173.400609 164.944691,171.896533 C163.454349,170.397035 161.010262,170.392457 159.501608,171.887362 C156.949697,174.432347 148.757369,181.038014 141.679847,181.038014 C134.602325,181.038014 126.409586,174.432405 123.853391,171.892058 C122.342447,170.39256 119.898302,170.397138 118.410308,171.901229 C116.906232,173.405305 116.906232,175.840235 118.410308,177.344311 C118.882626,177.807455 129.949873,188.741833 141.680199,188.741833 L141.679495,188.741833 Z" id="Path" fill="#000000"></path>
            </g>
        </g>
    </g>
</svg>