<?xml version="1.0" encoding="UTF-8"?>
<svg width="513px" height="513px" viewBox="0 0 513 513" version="1.1" xmlns="http://www.w3.org/2000/svg" xmlns:xlink="http://www.w3.org/1999/xlink">
    <!-- Generator: Sketch 64 (93537) - https://sketch.com -->
    <title>cleaning</title>
    <desc>Created with Sketch.</desc>
    <g id="Page-1" stroke="none" stroke-width="1" fill="none" fill-rule="evenodd">
        <g id="cleaning" fill-rule="nonzero">
            <path d="M193.208,353.196 L177.562,353.196 L190.342,310.193 C191.915,304.899 188.899,299.332 183.605,297.759 C178.311,296.184 172.744,299.201 171.17,304.496 L154.571,360.348 C153.673,363.373 154.255,366.646 156.141,369.176 C158.029,371.706 161,373.197 164.157,373.197 L193.208,373.197 C198.73,373.197 203.208,368.72 203.208,363.197 C203.208,357.674 198.73,353.196 193.208,353.196 Z" id="Path" fill="#000000"></path>
            <path d="M483.518,332.542 L458.908,332.542 C448.434,332.542 438.125,328.735 427.209,324.704 C414.349,319.955 401.05,315.044 385.251,315.044 C363.334,315.044 348.956,326.982 341.626,335.24 L320.125,335.24 C322.45,327.835 324.483,320.324 326.215,312.782 C331.158,303.752 357.366,253.333 357.366,199.675 C357.366,170.174 346.637,138.985 327.931,114.104 C307.508,86.94 277.923,67.134 241.747,56.243 C238.092,24.696 211.227,0.121 178.716,0.121 C146.207,0.121 119.343,24.694 115.686,56.238 C104.886,59.477 94.64,63.487 85.112,68.259 C80.174,70.732 78.176,76.74 80.649,81.678 C83.123,86.616 89.128,88.615 94.069,86.141 C107.162,79.583 121.185,74.88 135.473,71.731 C152.272,68.031 168.684,81.254 168.684,98.432 L168.684,186.893 C168.536,202.686 161.458,218.1 148.918,227.883 C132.767,240.485 112.117,246.875 87.543,246.875 C67.808,246.875 51.933,257.839 41.632,278.581 C41.589,278.668 41.553,278.755 41.51,278.842 C41.006,279.866 40.529,280.889 40.076,281.906 C40.033,282.002 39.982,282.1 39.94,282.197 C31.045,262.253 20,231.15 20,199.676 C20,180.279 25.539,159.553 35.598,141.315 C38.265,136.479 36.506,130.397 31.67,127.73 C26.835,125.063 20.753,126.82 18.084,131.657 C6.423,152.802 0,176.958 0,199.676 C0,253.257 27.591,303.583 32.98,312.9 C43.197,359.624 60.688,399.182 83.623,427.372 C90.627,435.978 97.91,444.534 106.32,451.808 L100.291,500.902 C99.618,506.383 103.517,511.373 108.998,512.046 C114.472,512.716 119.469,508.822 120.143,503.339 L124.835,465.129 C141.09,474.625 159.79,480.394 178.694,480.401 C197.568,480.391 216.208,475.093 232.637,465.902 L237.228,503.338 C237.85,508.407 242.162,512.122 247.141,512.122 C247.547,512.122 247.958,512.097 248.371,512.047 C253.852,511.375 257.751,506.385 257.079,500.904 L251.219,453.123 C261.454,444.529 269.473,433.489 276.455,422.188 C289.508,421.47 300.624,413.39 305.729,402.042 L341.62,402.042 C348.947,410.3 363.327,422.244 385.249,422.244 C401.048,422.244 414.347,417.333 427.207,412.584 C438.122,408.553 448.433,404.746 458.906,404.746 L483.516,404.746 C486.557,404.746 489.488,404.267 492.241,403.387 L492.241,403.861 C492.241,426.612 473.731,445.121 450.98,445.121 L383.503,445.121 C356.484,445.121 334.503,467.102 334.503,494.121 L334.503,502.121 C334.503,507.644 338.981,512.122 344.503,512.122 C350.025,512.122 354.503,507.644 354.503,502.121 L354.503,494.121 C354.503,478.13 367.513,465.121 383.503,465.121 L450.98,465.121 C484.759,465.121 512.241,437.64 512.241,403.861 L512.241,361.268 C512.241,345.428 499.356,332.542 483.518,332.542 L483.518,332.542 Z M311.945,126.124 C328.099,147.611 337.365,174.42 337.365,199.676 C337.365,231.222 326.926,262.374 318.514,282.354 C309.3,262.718 292.559,246.876 269.823,246.876 C245.25,246.876 224.601,240.486 208.449,227.885 C196.026,218.188 188.684,202.699 188.684,186.974 L188.684,98.432 C188.684,81.217 205.096,68.029 221.894,71.731 C256.844,79.434 290.155,97.141 311.945,126.124 L311.945,126.124 Z M242.573,433.981 C226.348,450.267 201.597,460.4 178.686,460.4 C145.342,460.4 119.23,439.446 99.136,414.75 C78.212,389.031 62.13,352.466 52.574,308.912 C53.226,305.299 55.214,296.056 59.75,287.079 C66.617,273.488 75.707,266.881 87.54,266.881 C116.672,266.881 141.462,259.067 161.224,243.654 C168.251,238.165 174.155,231.315 178.683,223.642 C183.362,231.58 189.449,237.511 196.147,243.654 C215.893,259.067 240.68,266.881 269.821,266.881 C277.98,266.881 285.466,270.629 290.989,276.539 C301.113,287.254 305.386,303.738 306.553,309.076 C305.041,315.578 303.284,322.051 301.298,328.443 C294.759,320.114 284.472,315.042 273.87,315.042 C255.185,315.042 240.39,330.852 240.39,349.212 L240.39,388.072 C240.39,399.627 246.556,410.552 256.202,416.842 C252.392,422.764 250.244,425.258 242.573,433.981 L242.573,433.981 Z M308.73,355.241 L334.504,355.241 L334.504,382.041 L308.73,382.041 L308.73,355.241 Z M483.518,384.745 L468.908,384.745 L468.908,352.543 L483.518,352.543 C488.329,352.543 492.243,356.457 492.243,361.268 L492.243,376.021 C492.242,380.831 488.328,384.745 483.518,384.745 Z" id="Shape" fill="#000000"></path>
            <path d="M274.605,402.242 C267.059,402.149 260.39,395.659 260.39,388.074 L260.39,349.19 C260.4,341.778 266.268,335.115 273.866,335.045 C281.899,335.045 288.726,341.907 288.726,349.906 L288.726,388.074 C288.727,395.758 282.289,402.217 274.605,402.242 L274.605,402.242 Z" id="Path" fill="#F09491"></path>
            <path d="M420.279,393.821 C408.551,398.152 397.474,402.242 385.25,402.242 C368.209,402.242 358.011,390.978 354.51,386.298 L354.51,350.996 C358.046,346.272 368.237,335.045 385.25,335.045 C397.475,335.045 408.552,339.136 420.28,343.466 C429.423,346.842 438.799,350.305 448.907,351.791 L448.907,385.496 C438.8,386.982 429.422,390.445 420.279,393.821 L420.279,393.821 Z" id="Path" fill="#F09491"></path>
            <path d="M45.52,104.851 C47.615,109.879 53.539,112.354 58.581,110.261 C63.611,108.173 66.082,102.236 63.99,97.201 C61.901,92.173 55.964,89.701 50.93,91.791 C45.908,93.876 43.424,99.82 45.52,104.851 L45.52,104.851 Z" id="Path" fill="#000000"></path>
            <path d="M178.716,20.121 C198.413,20.121 215.093,33.29 220.412,51.286 C204.485,49.779 188.538,56.73 178.683,69.319 C168.833,56.761 152.918,49.8 137.02,51.282 C142.342,33.287 159.02,20.121 178.716,20.121 Z" id="Shape-path" fill="#F09491"></path>
        </g>
    </g>
</svg>