<?xml version="1.0" encoding="UTF-8"?>
<svg width="426px" height="512px" viewBox="0 0 426 512" version="1.1" xmlns="http://www.w3.org/2000/svg" xmlns:xlink="http://www.w3.org/1999/xlink">
    <!-- Generator: Sketch 64 (93537) - https://sketch.com -->
    <title>cream</title>
    <desc>Created with Sketch.</desc>
    <g id="Page-1" stroke="none" stroke-width="1" fill="none" fill-rule="evenodd">
        <g id="cream" fill-rule="nonzero">
            <path d="M119.269,313.018 C112.094,313.018 104.922,311.365 98.382,308.059 L98.228,307.981 C83.302,300.409 72.708,287.478 69.158,272.501 C59.165,230.33 98.298,187.716 110.531,175.659 C115.349,170.91 123.191,170.909 128.009,175.659 C140.241,187.715 179.375,230.328 169.381,272.5 C165.832,287.476 155.239,300.407 140.315,307.978 L140.164,308.055 C133.622,311.364 126.444,313.018 119.269,313.018 L119.269,313.018 Z" id="Shape" fill="#000000"></path>
            <path d="M119.271,188.164 C113.017,194.527 102.94,205.793 94.821,219.632 C84.066,237.964 80.349,254.587 83.773,269.038 C86.301,279.706 94.045,289.018 105.019,294.585 L105.163,294.658 C113.993,299.123 124.544,299.123 133.381,294.655 L133.523,294.583 C144.494,289.018 152.238,279.706 154.766,269.039 C158.191,254.587 154.474,237.964 143.719,219.632 C135.602,205.794 125.524,194.526 119.271,188.164 L119.271,188.164 Z" id="Path" fill="#F09491"></path>
            <g id="Group">
                <path d="M411.765,372.536 C411.765,372.536 411.775,337.039 411.636,333.463 C411.011,317.377 399.607,308.703 387.379,300.485 C373.27,291.003 359.055,282.242 353.194,265.567 C351.997,262.16 349.372,259.451 345.993,258.135 C342.569,256.801 338.741,257.029 335.493,258.761 C332.737,260.231 330.006,261.766 327.365,263.251 C321.402,266.603 315.77,269.769 309.867,272.25 C292.57,279.519 273.587,281.162 255.229,283.54 C247.219,284.578 239.214,285.729 231.327,287.496 C227.081,288.447 222.235,290.036 217.424,292.147 L229.285,158.217 C229.651,154.086 226.598,150.44 222.467,150.074 C218.344,149.706 214.69,152.761 214.324,156.892 C214.324,156.892 201.495,301.755 201.493,301.756 C192.32,309.523 187.842,320.923 187.965,332.928 C187.993,335.666 188.095,372.535 188.095,372.535 C180.25,372.684 173.911,379.1 173.911,386.981 L173.911,430.746 L48.521,430.746 L18.135,55.154 L221.01,55.154 L216.603,122.203 C216.331,126.341 219.466,129.917 223.604,130.189 C227.736,130.452 231.318,127.326 231.59,123.188 C231.59,123.188 238.648,15.368 238.628,14.807 C238.567,11.117 237.15,7.535 234.624,4.812 C231.861,1.834 227.974,0.106 223.919,0.017 C223.812,0.015 223.705,1.02487463e-13 223.594,1.02487463e-13 C223.594,1.02487463e-13 14.947,1.02487463e-13 14.944,1.02487463e-13 C14.826,1.02487463e-13 14.71,0.016 14.592,0.019 C10.548,0.116 6.674,1.842 3.917,4.813 C-0.647,9.732 -0.112,15.304 0.34,21.46 L34.085,438.56 L34.085,492.089 C34.085,503.068 43.017,512 53.996,512 L184.545,512 C187.675,512 190.631,511.264 193.266,509.968 C196.643,511.275 200.308,512 204.141,512 L395.721,512 C412.389,512 425.949,498.439 425.949,481.772 L425.949,386.982 C425.949,379.101 419.611,372.685 411.765,372.536 Z M15.6,23.828 L14.956,15.146 C14.978,15.088 15.006,15.044 15.027,15.02 L223.519,15.032 C223.551,15.073 223.584,15.167 223.602,15.294 L221.739,40.135 L16.919,40.135 L15.6,23.828 Z M157.704,496.98 L157.704,483.331 C157.704,472.596 148.97,463.863 138.236,463.863 L100.305,463.863 C89.57,463.863 80.837,472.597 80.837,483.331 L80.837,496.98 L53.996,496.98 C51.299,496.98 49.104,494.786 49.104,492.089 L49.104,445.766 L173.912,445.766 L173.912,481.771 C173.912,487.314 175.418,492.509 178.033,496.98 L157.704,496.98 Z M396.746,348.583 L396.746,372.522 L203.116,372.522 L203.116,348.583 L396.746,348.583 Z M410.93,481.772 C410.93,490.158 404.107,496.981 395.721,496.981 L204.141,496.981 C195.755,496.981 188.932,490.158 188.932,481.772 L188.932,387.542 L410.93,387.542 L410.93,481.772 Z" id="Shape" fill="#000000"></path>
                <path d="M234.056,476.058 L261.905,476.058 C266.052,476.058 269.415,472.696 269.415,468.548 C269.415,464.401 266.053,461.038 261.905,461.038 L234.056,461.038 C233.811,461.038 233.611,460.839 233.611,460.594 L233.611,423.928 C233.611,423.683 233.81,423.483 234.056,423.483 L365.807,423.483 C366.052,423.483 366.252,423.682 366.252,423.928 L366.252,460.594 C366.252,460.839 366.053,461.038 365.807,461.038 L296.617,461.038 C292.47,461.038 289.107,464.4 289.107,468.548 C289.107,472.695 292.469,476.058 296.617,476.058 L365.807,476.058 C374.334,476.058 381.271,469.121 381.271,460.594 L381.271,423.928 C381.271,415.401 374.334,408.464 365.807,408.464 L234.056,408.464 C225.529,408.464 218.592,415.401 218.592,423.928 L218.592,460.594 C218.592,469.121 225.528,476.058 234.056,476.058 L234.056,476.058 Z" id="Path" fill="#F09491"></path>
            </g>
            <path d="M209.121,315.179 C214.817,309.1 226.256,304.024 234.611,302.152 C244.068,300.034 253.582,298.853 263.656,297.604 C269.07,296.933 274.668,296.238 280.199,295.389 C294.579,293.18 305.856,290.228 315.686,286.096 C322.381,283.283 328.656,279.755 334.724,276.344 C336.491,275.351 338.301,274.334 340.108,273.344 C343.704,281.736 348.935,289.712 355.789,295.785 C365.395,304.297 376.981,311.352 387.47,318.722 C393.238,322.775 396.23,327.634 396.604,333.564 L202.994,333.564 C202.991,333.3 202.988,333.036 202.985,332.773 C202.907,325.218 204.799,319.792 209.121,315.179 Z" id="Path" fill="#F09491"></path>
            <path d="M142.685,496.98 L95.857,496.98 L95.857,483.331 C95.857,480.878 97.853,478.882 100.306,478.882 L138.237,478.882 C140.69,478.882 142.686,480.878 142.686,483.331 L142.686,496.98 L142.685,496.98 Z" id="Path" fill="#F09491"></path>
        </g>
    </g>
</svg>