<svg id="Layer_1_1_" enable-background="new 0 0 64 64" height="512" viewBox="0 0 64 64" width="512" xmlns="http://www.w3.org/2000/svg"><path d="m13.534 42.801c1.427 3.905 3.628 7.462 6.466 10.48v8.719h2v-6.764c.063.056.12.116.184.172 1.137.99 2.226 1.721 3.33 2.235 1.946.906 3.996 1.35 6.021 1.35 3.222 0 6.383-1.125 8.961-3.308.174-.147.334-.307.504-.458v6.773h2v-8.709c2.816-2.977 5.021-6.473 6.484-10.315 3.462-.24 6.398-2.784 7.102-6.306.28-1.398-.078-2.833-.982-3.936-.904-1.101-2.24-1.734-3.688-1.734 0 0 0 0-.001 0l-.106.002c.978-3.738 3.088-14.405-2.26-21.789-3.466-4.784-9.37-7.211-17.549-7.211-8.224 0-14.226 2.449-17.84 7.279-5.576 7.452-3.735 18.2-2.902 21.794-1.115.191-2.13.768-2.86 1.66-.904 1.103-1.262 2.537-.966 4.018.618 3.094 3.036 5.44 6.102 6.048zm34.625-2.053c-.013.041-.03.08-.043.121.009-.115.037-.227.038-.342.012-1.259-.481-2.443-1.389-3.333-1.519-1.491-3.21-.766-4.329-.286-.202.086-.402.173-.602.248-.966.364-2.236.785-3.489.816-1.435.04-2.645-.518-3.533-1.601-.267-.325-.708-.449-1.104-.31s-.664.511-.669.931c-.046 3.491 3.528 6.954 6.082 8.297.915.481 1.876.718 2.839.718 1.649 0 3.302-.694 4.727-2.041.165-.156.304-.34.444-.522-1.781 4.124-4.475 7.794-7.927 10.715-3.597 3.044-8.52 3.686-12.846 1.67-.932-.434-1.868-1.065-2.861-1.93-2.867-2.497-5.181-5.532-6.853-8.912 1.081.67 2.239 1.019 3.396 1.019.963 0 1.925-.236 2.839-.718 2.553-1.343 6.128-4.806 6.082-8.297-.006-.42-.273-.792-.669-.931-.396-.14-.837-.015-1.104.31-.889 1.083-2.128 1.626-3.533 1.601-1.253-.031-2.523-.453-3.489-.816-.2-.075-.4-.162-.602-.248-1.119-.479-2.809-1.206-4.329.286-.38.373-.668.805-.896 1.264-.439-1.985-.711-4.128-.814-6.501h-.011c-.001-.024.008-.046.005-.071-.038-.33-.805-8.091 9.16-9.903 2.751-.5 5.693-1.483 8.572-2.685 2.551.233 16.719 2.016 18.217 12.788-.117 3.389-.556 6.305-1.309 8.663zm-2.006-.24c-.007.754-.329 1.522-.84 2.005-1.606 1.518-3.575 1.895-5.261 1.007-1.6-.842-3.265-2.382-4.217-3.99.792.313 1.654.461 2.56.441 1.553-.039 3.03-.524 4.144-.943.228-.085.457-.184.687-.282 1.241-.532 1.647-.608 2.139-.125.66.65.793 1.384.788 1.887zm-30.306 0c-.005-.502.128-1.237.79-1.887.222-.218.426-.322.697-.322.331 0 .76.155 1.441.447.23.099.459.197.687.282 1.114.419 2.591.905 4.144.943.906.018 1.768-.129 2.56-.441-.952 1.607-2.617 3.148-4.217 3.99-1.687.888-3.655.512-5.262-1.007-.511-.483-.833-1.251-.84-2.005zm36.091-7.508c.824 0 1.597.366 2.12 1.003.522.638.729 1.467.552 2.357-.454 2.266-2.222 3.993-4.406 4.485.654-2.223 1.059-4.853 1.214-7.833zm-4.013-22.619c3.939 5.432 3.313 13.179 2.474 17.691-3.024-6.811-11.029-9.359-15.769-10.29 6.002-2.871 11.242-6.271 13.172-7.569.042.057.082.112.123.168zm-32.159.092c3.216-4.293 8.678-6.471 16.234-6.471 6.427 0 11.281 1.577 14.47 4.693-3.389 2.248-15.089 9.673-24.148 11.321-5.811 1.057-8.518 3.989-9.767 6.701-.527-4.565-.471-11.329 3.211-16.244zm-5.822 23.53c.422-.515 1.009-.84 1.653-.951.176 2.73.572 5.19 1.204 7.458-1.73-.729-3.032-2.266-3.425-4.232-.162-.808.045-1.637.568-2.275z"/><path d="m39 33.904c-2.526 0-4.278-1.693-4.296-1.71l-1.411 1.417c.094.094 2.332 2.293 5.707 2.293s5.613-2.199 5.707-2.293l-1.414-1.414c-.017.017-1.737 1.707-4.293 1.707z"/><path d="m23 33.904c-2.526 0-4.278-1.693-4.293-1.707l-1.414 1.414c.094.094 2.332 2.293 5.707 2.293s5.613-2.199 5.707-2.293l-1.414-1.414c-.017.017-1.737 1.707-4.293 1.707z"/><path d="m26.316 48.051-.633 1.897c2.037.679 4.177 1.019 6.316 1.019s4.28-.34 6.316-1.019l-.633-1.897c-3.663 1.222-7.701 1.222-11.366 0z"/></svg>