<svg id="Layer_1_1_" enable-background="new 0 0 64 64" height="512" viewBox="0 0 64 64" width="512" xmlns="http://www.w3.org/2000/svg"><path d="m41.318 30.748c-.423-.464-.928-.966-1.464-1.499-2.336-2.322-5.244-5.211-4.056-7.863.156-.348.375-.691.608-1.055.284-.445.578-.904.801-1.439 1.315-3.15-.957-7.154-2.616-10.077-.235-.415-.456-.803-.647-1.157-1.046-1.938-2.064-3.644-3.113-5.213-.18-.271-.481-.436-.807-.445-.008 0-.016.005-.024.006v-.006h-27c-.552 0-1 .447-1 1v58c0 .553.448 1 1 1h13c.477 0 .887-.337.98-.804l.762-3.808c2.425.731 4.885 1.31 7.186 1.847.996.232 1.959.456 2.871.684.977.243 2.488.619 4.071.619 1.55 0 3.17-.36 4.427-1.559 1.62-1.544 2.165-4.217 1.318-6.295-.001-.002-.448-1.106-.611-1.51-.033-.634.14-1.267.492-1.796l.799-1.198c.515-.772.412-1.813-.224-2.325l.409-.817c.369-.74.224-1.63-.36-2.212l-.201-.173 1.035-3.284c.03-.098.046-.199.046-.301 0-.208.133-.392.33-.458 2.18-.727 3.521-2.844 3.261-5.148-.111-.983-.55-1.921-1.273-2.714zm-37.318-26.748h24.003c-7.716 10.256-19.133 24.106-24.003 26.849zm11.18 56h-11.18v-11.477c2.54 4.167 7.004 6.593 11.826 8.249zm21.103-15.04c-.267.533-.261 1.151-.018 1.672l-2.124-1.411 2.515-1.006zm2.414-8.246c-.96.32-1.622 1.185-1.691 2.182l-1.079 3.424c-.004.011-.002.023-.005.035l-4.294 1.717c-.345.139-.585.456-.623.826-.038.369.132.729.441.936l4.194 2.786c-.487.877-.716 1.882-.617 2.885.009.096.032.189.069.278l.647 1.595c.563 1.386.208 3.172-.823 4.155-1.534 1.46-4.095 1.078-6.635.445-.921-.229-1.894-.456-2.899-.69-7.728-1.802-17.344-4.045-20.463-11.301-.29-.675-.744-1.809-.919-2.387v-10.568c6.347-2.615 21.759-22.717 25.942-28.284.747 1.186 1.486 2.458 2.242 3.858.197.366.425.768.667 1.195 1.373 2.419 3.447 6.074 2.509 8.32-.156.373-.392.742-.641 1.132-.262.409-.532.832-.748 1.314-1.752 3.914 1.845 7.488 4.472 10.099.511.508.993.985 1.396 1.429.43.472.702 1.037.764 1.591.154 1.357-.63 2.602-1.906 3.028z"/><path d="m33.293 35.293 1.414 1.414c.528-.528 1.343-1.029 1.586-1l1.414-1.414c-1.259-1.261-3.165-.25-4.414 1z"/><path d="m60.089 23.79c-.108-1.02-.963-1.79-1.989-1.79h-1.1v-8c0-2.967-2.167-5.431-5-5.91v-1.09c0-1.654-1.346-3-3-3h-3c-1.71 0-3 2.149-3 5s1.29 5 3 5h3c1.654 0 3-1.346 3-3v-.858c1.72.447 3 1.999 3 3.858v8h-1.1c-1.026 0-1.881.77-1.989 1.791l-1.499 14.236c-.273 2.6-.412 5.245-.412 7.863v13.11c0 1.654 1.346 3 3 3h6c1.654 0 3-1.346 3-3v-13.11c0-2.617-.139-5.263-.413-7.862zm-14.089-11.79c-.249 0-1-1.064-1-3s.751-3 1-3 1 1.064 1 3-.751 3-1 3zm4-1c0 .552-.449 1-1 1h-.579c.362-.826.579-1.851.579-3s-.217-2.174-.579-3h.579c.551 0 1 .448 1 1zm10 48c0 .552-.449 1-1 1h-6c-.551 0-1-.448-1-1v-13.11c0-2.548.135-5.123.402-7.653l1.498-14.237h4.2l1.499 14.236c.266 2.531.401 5.106.401 7.654z"/><path d="m37 8h5v2h-5z"/><path d="m38.268 12.233h5v2h-5z" transform="matrix(.707 -.707 .707 .707 2.584 32.703)"/><path d="m39.768 2.268h2v5h-2z" transform="matrix(.707 -.707 .707 .707 8.569 30.224)"/></svg>