<?xml version="1.0" encoding="UTF-8"?>
<svg width="473px" height="485px" viewBox="0 0 473 485" version="1.1" xmlns="http://www.w3.org/2000/svg" xmlns:xlink="http://www.w3.org/1999/xlink">
    <!-- Generator: Sketch 64 (93537) - https://sketch.com -->
    <title>filler</title>
    <desc>Created with Sketch.</desc>
    <g id="Page-1" stroke="none" stroke-width="1" fill="none" fill-rule="evenodd">
        <g id="filler" fill-rule="nonzero">
            <path d="M433.672,258.344 C423.6,248.256 408.352,256.344 398.36,266.344 L409.672,277.656 C413.896,273.432 420.448,269.424 422.36,269.656 L433.672,258.344 Z" id="Path" fill="#000000"></path>
            <path d="M255.592,304.84 L223.592,288.84 C219.632,286.872 214.832,288.472 212.856,292.416 L196.856,324.416 L211.168,331.576 L218.12,317.68 C223.968,334.968 232.152,352.008 245.384,364.288 C261.944,379.656 282.84,387.8 303.048,395.68 C306.936,397.192 310.808,398.704 314.608,400.248 C335.032,408.568 356.184,416.416 377.456,423.576 L382.568,408.416 C361.6,401.352 340.76,393.616 320.64,385.432 C316.76,383.856 312.816,382.312 308.856,380.768 C290.04,373.432 270.592,365.848 256.264,352.552 C245.128,342.224 238.04,327 232.864,311.368 L248.432,319.152 L255.592,304.84 Z" id="Path" fill="#F09491"></path>
            <path d="M462.56,229.984 C459.176,226.272 455.136,222.256 450.848,217.992 C432.16,199.416 408.896,176.304 418.4,155.088 C419.648,152.304 421.4,149.56 423.264,146.64 C425.536,143.088 427.888,139.408 429.672,135.136 C440.192,109.936 422.016,77.904 408.744,54.52 C406.864,51.2 405.096,48.096 403.568,45.264 C395.2,29.76 387.056,16.112 378.664,3.56 C376.976,1.048 374.016,-0.28 371,0.064 C367.992,0.448 365.456,2.504 364.456,5.368 C363.84,7.136 302.36,179.064 162.216,209.112 C158.504,198.768 147.632,176 124.008,176 C106.824,176 92.704,190.336 87.64,204.504 C86.44,207.864 85.632,211.376 85.248,214.944 C83.464,231.4 90.704,268.52 108.016,286.624 C114.016,294.544 142.544,335.496 129.312,381.816 C113.976,435.488 83.064,474.632 82.752,475.016 L95.248,485.008 C96.592,483.32 128.44,443.096 144.696,386.2 C154.952,350.312 144.12,318 133.56,297.512 C138.232,297.4 142.416,296.2 145.96,293.648 C155.744,286.6 156.024,273.48 156.024,272.008 L140.024,272.008 C140.024,273.024 139.432,278.632 136.608,280.664 C134.048,282.504 129.208,281.296 126.552,280.416 C124.256,279.648 122.048,278.008 119.92,275.84 C119.528,275.344 119.264,275.016 119.152,274.888 L119.072,274.952 C107.624,262.192 99.48,232.128 101.152,216.664 C101.4,214.352 101.928,212.08 102.704,209.896 C105.848,201.096 114.68,192 124.008,192 C139.624,192 146.68,212.656 148.016,217.104 L148.016,218.464 C148.016,220.824 149.056,223.064 150.864,224.592 C152.672,226.104 155.056,226.744 157.384,226.352 C288.216,203.576 354.664,70.808 373.744,25.512 C378.976,33.992 384.184,43.032 389.488,52.864 C391.064,55.792 392.888,59.008 394.824,62.424 C405.808,81.776 422.4,111.016 414.896,128.976 C413.648,131.968 411.76,134.912 409.768,138.032 C407.68,141.304 405.512,144.696 403.784,148.552 C389.768,179.864 418.544,208.456 439.56,229.344 C443.648,233.408 447.504,237.224 450.728,240.776 C454.168,244.552 456.344,249.072 456.84,253.504 C458.064,264.352 451.792,274.32 441.576,277.72 C433.904,280.28 428.6,287.2 428.056,295.176 L419.424,322.568 C419.392,322.656 419.408,322.752 419.384,322.848 L385.04,336.584 C382.28,337.696 380.36,340.232 380.056,343.192 C379.752,346.144 381.112,349.024 383.584,350.68 L417.136,372.968 C413.24,379.992 411.408,388.032 412.2,396.056 C412.272,396.816 412.464,397.56 412.744,398.272 C417.128,409.08 417.864,410.896 417.936,411.056 C422.424,422.128 419.592,436.4 411.336,444.272 C399.064,455.96 378.576,452.896 358.256,447.832 C305.44,434.704 211.592,403.256 176.376,340.112 L162.4,347.912 C182.568,384.064 219.608,410.336 258.208,429.168 L244.312,477.816 L259.696,482.208 L272.904,435.976 C302.568,448.968 332.016,457.8 354.392,463.368 C362.208,465.312 374.288,468.32 386.96,468.32 C399.352,468.32 412.312,465.44 422.368,455.848 C435.328,443.496 439.688,422.112 432.72,404.976 L428.024,393.408 C427.76,388.344 429.144,383.288 431.968,379.048 L438.352,369.464 C442.48,363.288 441.648,354.96 436.56,350.864 L439.824,344.336 C442.784,338.424 441.624,331.304 436.96,326.632 L435.344,325.248 L443.624,298.976 C443.872,298.192 443.992,297.384 443.992,296.568 C443.992,294.904 445.056,293.432 446.624,292.904 C464.072,287.088 474.8,270.16 472.72,251.72 C471.856,243.832 468.336,236.328 462.56,229.984 L462.56,229.984 Z M422.272,343.688 C420.144,347.952 420.192,352.896 422.136,357.056 L405.144,345.768 L425.256,337.728 L422.272,343.688 Z" id="Shape" fill="#000000"></path>
            <path d="M140.16,15.352 L133.848,0.648 C129.112,2.68 17.64,51.504 1.112,150.688 C-2.648,173.232 8.664,215.496 20.64,260.232 C29.6,293.704 38.856,328.312 41.032,352.712 C48.608,437.64 26.4,475.456 26.2,475.792 L39.8,484.216 C40.832,482.544 65.08,442.224 56.968,351.296 C54.664,325.52 45.224,290.232 36.088,256.112 C25.088,214.976 13.704,172.456 16.888,153.32 C31.968,62.848 139.072,15.816 140.16,15.352 Z" id="Path" fill="#000000"></path>
            <path d="M228.76,129.216 L237.24,142.776 C304.736,100.6 297.304,26.256 296.952,23.112 L281.048,24.88 C281.128,25.552 287.808,92.312 228.76,129.216 Z" id="Path" fill="#F09491"></path>
            <path d="M189.424,88.84 L196.584,103.152 C249.048,76.92 241.296,9.848 240.944,7 L225.064,8.968 C225.136,9.56 231.688,67.712 189.424,88.84 L189.424,88.84 Z" id="Path" fill="#F09491"></path>
            <polygon id="Path" fill="#F09491" transform="translate(153.007148, 107.949092) rotate(-14.064037) translate(-153.007148, -107.949092) " points="136.515569 99.9532959 169.498727 99.9532959 169.498727 115.944888 136.515569 115.944888"></polygon>
        </g>
    </g>
</svg>