<?xml version="1.0" encoding="UTF-8"?>
<svg width="496px" height="496px" viewBox="0 0 496 496" version="1.1" xmlns="http://www.w3.org/2000/svg" xmlns:xlink="http://www.w3.org/1999/xlink">
    <!-- Generator: Sketch 64 (93537) - https://sketch.com -->
    <title>hair</title>
    <desc>Created with Sketch.</desc>
    <g id="Page-1" stroke="none" stroke-width="1" fill="none" fill-rule="evenodd">
        <g id="hair" fill-rule="nonzero">
            <path d="M480,176 L410.096,176 C420.28,132.968 435.384,91.136 455.152,51.576 L440.84,44.416 C419.944,86.208 404.112,130.464 393.64,175.992 L344.336,175.992 C346.024,126.424 358.368,77.16 380.536,32.8 C382.808,28.288 384,23.224 384,18.168 C384,8.152 375.848,-2.84217094e-14 365.832,-2.84217094e-14 C359.4,-2.84217094e-14 353.392,3.456 350.144,9.008 C320.344,60.112 302.528,117.28 297.576,176 L241.624,176 C246.96,149.16 256.744,123.648 270.864,100.12 L257.144,91.888 C241.52,117.912 230.872,146.192 225.336,176 L185.72,176 C194.352,126.976 208.64,79.064 228.872,32.816 C230.944,28.072 232,23.056 232,17.888 C232,8.024 223.976,-2.84217094e-14 214.112,-2.84217094e-14 C207.296,-2.84217094e-14 201.176,3.792 198.112,9.888 C171.44,63.224 150.968,118.808 136.408,176 L65.584,176 L67.072,167.832 C75.416,121.88 90.248,77.376 111.152,35.584 L96.84,28.424 C75.264,71.576 59.952,117.52 51.336,164.968 L49.328,176 L16,176 C7.176,176 0,183.176 0,192 L0,480 C0,488.824 7.176,496 16,496 L480,496 C488.824,496 496,488.824 496,480 L496,192 C496,183.176 488.824,176 480,176 Z M306.392,478.08 C269.504,458.4 227.912,448 186.096,448 C143.016,448 100.328,459.096 62.44,480 L32.016,480 C77.136,448.96 131.12,432 186.096,432 C230.528,432 274.728,443.048 313.928,463.96 L343.992,480 L309.992,480 L306.392,478.08 Z M272.152,480 L100.424,480 C127.752,469.536 156.816,464 186.096,464 C215.488,464 244.768,469.48 272.152,480 Z M116.008,288 L104,288 C81.944,288 64,305.944 64,328 C64,341.232 53.232,352 40,352 L16,352 L16,240 L122.776,240 C120.048,255.896 117.816,271.896 116.008,288 Z M89,432.984 C63.032,442.296 38.392,455.28 16,471.688 L16,416.256 C41.152,417.256 65.944,422.96 89,432.984 Z M368.104,474.72 C394.568,464.288 418.92,448.392 439.032,428.28 C450.2,417.112 464.536,410.272 480,408.496 L480,424.656 C468.816,426.336 458.488,431.448 450.344,439.592 C434.136,455.8 415.504,469.36 394.984,480 L378.008,480 L368.104,474.72 Z M427.72,416.968 C406.76,437.928 380.816,453.96 352.696,463.336 L349.048,464.552 L329.584,454.168 L347.64,448.152 C373.4,439.568 397.176,424.872 416.408,405.648 C433.632,388.424 455.976,378.248 480,376.384 L480,392.384 C460.248,394.216 441.92,402.768 427.72,416.968 L427.72,416.968 Z M440.144,360 C429.488,360 419.992,352.84 417.064,342.592 L414.328,333.008 C409.44,315.928 393.624,304 375.856,304 L348.24,304 L343.76,286.064 L328.248,289.936 L343.36,350.4 C343.784,352.112 344,353.88 344,355.664 C344,361.4 341.68,367.008 337.624,371.064 L331.296,377.392 C327.032,381.656 321.376,384 314.864,384 C304.464,384 296,375.544 296,365.168 C296,362.76 296.456,360.408 297.352,358.176 L300.248,350.936 C308.048,331.424 312,310.888 312,289.888 C312,286.832 313.696,284.088 316.424,282.728 L330.736,275.568 C338.912,271.488 344,263.256 344,254.112 L344,240 L480,240 L480,360 L440.144,360 Z M312,209.304 C312,141.824 329.968,75.36 363.968,17.072 C364.968,15.392 367.992,16.2 368,18.168 C368,20.752 367.392,23.336 366.232,25.648 C341.216,75.68 328,131.68 328,187.6 L328,254.104 C328,257.16 326.304,259.904 323.576,261.264 L309.264,268.424 C301.088,272.512 296,280.744 296,289.888 C296,294.616 295.776,299.328 295.336,304 L276.496,304 C265.464,304 255.888,311.48 253.208,322.192 L252.792,323.88 C251,331.016 244.616,336 237.256,336 L233.296,336 C226.4,336 220.304,331.6 218.12,325.056 L211.24,304.408 C207.96,294.592 198.816,288 188.472,288 L176,288 L176,285.6 C176,270.312 176.744,255.128 177.824,240 L296,240 L296,256 L312,256 L312,209.304 Z M212.416,17.056 C213.216,15.472 215.992,16.136 216,17.888 C216,20.824 215.4,23.696 214.216,26.392 C178.24,108.64 160,195.848 160,285.6 L160,304.736 C160,321.544 164.928,337.816 174.248,351.8 C175.4,353.512 176,355.512 176,357.576 C176,363.328 171.328,368 165.576,368 C160.248,368 155.464,365.04 153.08,360.28 L144,342.112 L134.912,360.28 C132.528,365.04 127.752,368 122.424,368 C116.672,368 112,363.328 112,357.576 C112,355.512 112.6,353.512 113.76,351.784 L114.544,350.608 C123.208,337.624 128.536,322.528 129.952,306.976 C139.16,205.624 166.904,108.08 212.416,17.056 L212.416,17.056 Z M426.056,480 C438.808,471.408 450.784,461.784 461.656,450.904 C466.76,445.8 473.104,442.424 480,440.92 L480,480 L426.056,480 Z" id="Shape" fill="#000000"></path>
            <polygon id="Path" fill="#F09491" points="480 224 344 224 344 192 480 192"></polygon>
            <path d="M296.576,192 C296.32,197.76 296,203.52 296,209.304 L296,224 L179.056,224 C180.096,213.288 181.416,202.616 183,192 L296.576,192 Z" id="Path" fill="#F09491"></path>
            <path d="M132.312,192 C129.84,202.608 127.648,213.288 125.592,224 L16,224 L16,192 L132.312,192 Z" id="Path" fill="#F09491"></path>
            <path d="M40,368 C62.056,368 80,350.056 80,328 C80,314.768 90.768,304 104,304 L114.184,304 C114.136,304.512 114.056,305.016 114.008,305.52 C112.84,318.432 108.416,330.952 101.216,341.736 L100.432,342.912 C97.528,347.272 96,352.344 96,357.576 C96,372.152 107.848,384 122.424,384 C130.744,384 138.456,380.632 144,374.856 C149.544,380.632 157.256,384 165.576,384 C180.152,384 192,372.152 192,357.576 C192,352.344 190.472,347.272 187.56,342.92 C180,331.568 176,318.368 176,304.736 L176,304 L188.472,304 C191.92,304 194.976,306.192 196.064,309.472 L202.936,330.12 C207.304,343.2 219.504,352 233.296,352 L237.256,352 C251.968,352 264.744,342.032 268.312,327.744 L268.728,326.064 C269.624,322.496 272.816,320 276.496,320 L292.84,320 C291.08,328.488 288.648,336.848 285.392,344.992 L282.504,352.216 C280.84,356.352 280,360.712 280,365.168 C280,384.368 295.64,400 315.368,400 C325.648,400 335.328,395.984 342.608,388.704 L348.936,382.376 C355.968,375.344 360,365.608 360,355.664 C360,352.56 359.616,349.48 358.864,346.504 L352.24,320 L375.856,320 C386.512,320 396.008,327.16 398.936,337.408 L401.672,346.992 C405.704,361.064 417.184,371.52 431.032,374.808 C421.648,380.04 412.904,386.536 405.096,394.344 C387.616,411.816 366,425.176 342.584,432.976 L309.6,443.976 C280.608,430.208 249.408,421.352 217.528,417.824 C226.64,409.144 232,397.072 232,384 L216,384 C216,395.76 209.472,406.32 198.952,411.576 L189.872,416.112 C188.616,416.104 187.352,416 186.096,416 C160.736,416 135.576,419.44 111.296,426 C81.944,410.288 49.24,401.48 16,400.256 L16,368 L40,368 Z" id="Path" fill="#F09491"></path>
            <polygon id="Path" fill="#000000" points="32 320 48 320 48 336 32 336"></polygon>
            <polygon id="Path" fill="#000000" points="80 256 96 256 96 272 80 272"></polygon>
            <polygon id="Path" fill="#000000" points="48 272 64 272 64 288 48 288"></polygon>
            <polygon id="Path" fill="#000000" points="232 288 248 288 248 304 232 304"></polygon>
            <polygon id="Path" fill="#000000" points="200 256 216 256 216 272 200 272"></polygon>
            <polygon id="Path" fill="#000000" points="432 328 448 328 448 344 432 344"></polygon>
            <polygon id="Path" fill="#000000" points="448 256 464 256 464 272 448 272"></polygon>
            <polygon id="Path" fill="#000000" points="368 272 384 272 384 288 368 288"></polygon>
            <polygon id="Path" fill="#000000" points="416 288 432 288 432 304 416 304"></polygon>
        </g>
    </g>
</svg>