<?xml version="1.0" encoding="UTF-8"?>
<svg width="341px" height="341px" viewBox="0 0 341 341" version="1.1" xmlns="http://www.w3.org/2000/svg" xmlns:xlink="http://www.w3.org/1999/xlink">
    <!-- Generator: Sketch 64 (93537) - https://sketch.com -->
    <title>Group</title>
    <desc>Created with Sketch.</desc>
    <g id="Page-1" stroke="none" stroke-width="1" fill="none" fill-rule="evenodd">
        <g id="Artboard" transform="translate(-11.000000, -25.000000)" fill-rule="nonzero">
            <g id="Group" transform="translate(11.343357, 25.324968)">
                <path d="M276.415023,204.146192 L277.012625,199.962967 C278.086258,192.675336 276.769532,185.235365 273.262367,178.755453 C269.755202,172.278005 264.247796,167.107041 257.557203,164.02072 L221.642831,147.260205 C218.994144,146.029566 216.611305,144.294978 214.623575,142.155232 L199.321623,125.703284 C195.768886,121.887228 191.892024,118.387778 187.731553,115.245059 L155.486279,90.8974203 L152.399504,56.9478954 C151.824688,50.6730254 149.072164,44.7957923 144.620499,40.3364773 L143.939317,39.6552958 C140.211877,35.9227993 135.47187,33.3703131 130.305962,32.3093215 C125.140184,31.24833 119.777078,31.7294421 114.882139,33.6919101 L106.518411,37.0370122 C105.295357,37.5282628 104.117875,38.1258785 103.001134,38.8272855 L65.8382314,1.66179006 C63.6225113,-0.553930018 60.031852,-0.553930018 57.8161319,1.66179006 L1.66143581,57.8164862 C-0.480837486,59.9587595 -0.561868794,63.4051182 1.47911537,65.6460552 L32.2405445,99.4335175 L31.7442309,99.929831 C28.0269035,103.654743 25.9378516,108.703901 25.9378516,113.968343 C25.9378516,119.232785 28.0269683,124.282008 31.7442309,128.006855 C35.4666147,131.731767 40.5183009,133.820884 45.7827429,133.810706 C45.8536486,133.810706 45.9245477,133.805641 45.9979815,133.805641 C45.9321452,139.143595 48.0237642,144.283962 51.7993045,148.056779 C55.5191602,151.78422 60.5707815,153.873336 65.8378165,153.863159 C65.9087221,153.863159 65.9796213,153.858095 66.0505205,153.858095 C65.9846841,159.160589 68.0459002,164.265756 71.7758685,168.035981 C75.5033087,171.806465 80.5855923,173.923391 85.888281,173.918335 C85.9591867,173.918335 86.0300858,173.913271 86.1035196,173.913271 L86.1060524,173.913271 C86.0554078,178.602974 87.6709938,183.161212 90.6615028,186.777153 C93.6546048,190.390631 97.8279117,192.829154 102.446696,193.659628 C107.065481,194.487638 111.828825,193.654563 115.890114,191.307192 L123.947867,200.154514 L124.791112,268.830168 C124.78858,273.714865 126.588969,278.430109 129.845456,282.071332 C133.101942,285.712555 137.586214,288.024605 142.440962,288.564209 C147.297784,289.103572 152.179629,287.834927 156.157942,284.996303 C159.049722,289.650547 163.736638,292.899124 169.109986,293.973275 C174.480871,295.046908 180.059585,293.851728 184.5189,290.668689 C187.091676,294.80887 191.099938,297.8526 195.777065,299.224947 C200.454063,300.597422 205.470354,300.202379 209.87392,298.110734 L209.87392,302.861178 C209.878984,308.89801 212.626456,314.602939 217.34371,318.366032 C222.061223,322.13146 228.234966,323.544452 234.119783,322.209963 C240.004666,320.872947 244.963069,316.932815 247.593669,311.500866 L273.908748,338.05126 C274.972268,339.127485 276.425775,339.732692 277.940088,339.732692 L278.137604,339.732692 C279.717714,339.679515 281.204153,338.965422 282.237269,337.767715 L338.959185,271.931398 C340.924162,269.652409 340.764692,266.236388 338.599607,264.147207 L276.415023,204.146192 Z M119.097601,44.2228037 C121.931169,43.0883654 125.035705,42.8098122 128.025955,43.4226033 C131.016204,44.0353945 133.76148,45.5142483 135.919052,47.6742188 L136.600234,48.3554004 L136.597702,48.3554004 C139.175535,50.9382895 140.770814,54.3416044 141.102524,57.9728442 L142.996647,78.817986 L133.906231,69.7275698 C132.559101,68.3804405 130.621935,67.8005157 128.755686,68.1854468 L114.704209,68.1854468 C111.366757,68.1854468 108.219112,66.6256265 106.198515,63.9692906 C104.175261,61.3104265 103.511841,57.8615396 104.400657,54.6455042 C105.292002,51.4270703 107.634325,48.8087219 110.73374,47.5679057 L119.097601,44.2228037 Z M39.7647098,119.983835 C36.4474825,116.659023 36.4474825,111.275238 39.7647098,107.95101 L59.8202825,87.8954372 C63.1425661,84.5731536 68.5288792,84.5731536 71.8531076,87.8954372 C75.1753912,91.2177208 75.1753912,96.6066269 71.8531076,99.9282622 L51.7975348,119.983835 C48.472723,123.301062 43.0889381,123.301062 39.7647098,119.983835 Z M59.8202825,140.039408 L59.8202825,140.036875 C56.5030553,136.712063 56.5030553,131.330871 59.8202825,128.005995 L79.8758553,107.950422 C83.1981389,104.628138 88.5844519,104.628138 91.9067356,107.950422 C95.2315473,111.272706 95.2315473,116.661612 91.9067356,119.983247 L71.8511628,140.03882 L71.8536949,140.036287 C68.5288831,143.353514 63.1450982,143.353514 59.8208698,140.036287 L59.8202825,140.039408 Z M85.8922678,162.586207 L85.8897357,162.583674 C82.4484333,162.583674 79.3462956,160.51232 78.0296989,157.331808 C76.7129725,154.15389 77.4396872,150.492118 79.8757217,148.058586 L99.9312945,128.003013 L99.9287624,128.005545 C103.251046,124.683262 108.639952,124.683262 111.961587,128.005545 C115.283223,131.327829 115.283871,136.714142 111.961587,140.038371 L91.9060147,160.093943 L91.9060147,160.091411 C90.3132633,161.691811 88.1481716,162.588212 85.8894725,162.580563 L85.8922678,162.586207 Z M105.947841,182.64178 L105.945308,182.639247 C102.504006,182.639247 99.4018683,180.565364 98.0852716,177.387381 C96.7685453,174.206935 97.49526,170.54769 99.9287663,168.114158 L119.984339,148.058586 C123.306623,144.736302 128.692936,144.736302 132.015219,148.058586 C135.340031,151.383397 135.340031,156.769775 132.015219,160.091411 L111.959647,180.146983 L111.962179,180.146983 C110.369428,181.747384 108.204336,182.643785 105.945637,182.638728 L105.947841,182.64178 Z M238.236312,302.86631 C238.236312,307.566126 234.427841,311.374597 229.728025,311.374597 C225.028209,311.374597 221.219737,307.566126 221.219737,302.86631 L221.219737,248.980491 C221.219737,245.848144 218.679892,243.308299 215.547546,243.308299 C212.4152,243.308299 209.875354,245.848144 209.875354,248.980491 L209.875354,280.177544 C209.875354,284.87736 206.066883,288.685831 201.367067,288.685831 C196.667251,288.685831 192.85878,284.87736 192.85878,280.177544 L192.85878,243.308299 C192.85878,240.175953 190.318934,237.636108 187.186588,237.636108 C184.054242,237.636108 181.514397,240.175953 181.514397,243.308299 L181.514397,274.505352 C181.514397,279.205168 177.705925,283.01364 173.006109,283.01364 C168.306294,283.01364 164.497822,279.205168 164.497822,274.505352 L164.497822,237.636108 C164.497822,234.503761 161.957977,231.963916 158.825631,231.963916 C155.693284,231.963916 153.153439,234.503761 153.153439,237.636108 L153.153439,268.833161 C153.153439,273.532977 149.344968,277.341448 144.645152,277.341448 C139.945336,277.341448 136.136864,273.532977 136.136864,268.833161 L135.263217,197.849736 C135.245492,196.464619 134.718791,195.135187 133.786957,194.109655 L124.376953,183.775894 L140.036091,168.11157 C143.7787,164.374017 145.872873,159.29666 145.855176,154.006936 C145.83745,148.717083 143.710375,143.655025 139.942419,139.943143 C136.174463,136.23126 131.079538,134.174751 125.792408,134.235492 C125.792408,134.164593 125.797472,134.093687 125.797472,134.022788 C125.800005,128.720293 123.678017,123.637815 119.907533,119.910375 C116.139577,116.182935 111.032336,114.121693 105.73224,114.182499 C105.798077,108.844545 103.706458,103.704179 99.9309172,99.9287679 C96.1553768,96.1557557 91.0174734,94.0641108 85.6771861,94.129973 C85.7404916,88.8401196 83.6868627,83.7450007 79.9745916,79.974776 C76.2623205,76.2068202 71.1979286,74.0771878 65.9082048,74.0594905 C60.6183514,74.0392327 55.5387905,76.1359016 51.8009783,79.8785756 L40.2770299,91.4025241 L13.5140096,62.0082552 L61.8313577,13.6960931 L95.2668199,47.1315554 C94.6135131,48.3546095 94.0766969,49.6359414 93.663891,50.9602522 C91.5849518,57.647604 92.8105341,64.9255119 96.9633562,70.5646427 C101.116178,76.2039031 107.702273,79.533836 114.70662,79.533836 L127.666443,79.533836 L146.057957,97.9253498 C146.227617,98.0924753 146.404874,98.2469404 146.592258,98.3912799 C146.612515,98.4064729 146.630241,98.4267307 146.650499,98.4419244 L180.90146,124.293505 C184.5327,127.035928 187.918123,130.092299 191.020002,133.424761 L206.321954,149.879302 L206.321954,149.87677 C209.302415,153.087619 212.877711,155.690799 216.848245,157.53909 L252.760024,174.297661 C257.239564,176.36396 260.926683,179.822959 263.273998,184.160792 C265.621378,188.498495 266.502609,193.476799 265.78344,198.356181 L265.471976,200.541498 L243.907276,200.541498 C240.774929,200.541498 238.235084,203.081343 238.235084,206.213689 L238.236312,302.86631 Z M277.650588,325.711953 L249.580695,297.391187 L249.580695,211.893434 L268.101211,211.893434 L326.863818,268.59266 L277.650588,325.711953 Z" id="Shape" fill="#000000"></path>
                <path d="M211.531634,103.161736 C210.468115,104.225255 209.870492,105.66865 209.870492,107.172785 C209.870492,108.676921 210.468102,110.120315 211.531634,111.183835 L228.548209,128.20041 C230.763929,130.41613 234.354588,130.41613 236.570308,128.20041 C238.786028,125.98469 238.786028,122.39403 236.570308,120.17831 L219.553734,103.161736 C218.490214,102.098216 217.04682,101.500594 215.542684,101.500594 C214.038548,101.500594 212.595154,102.098203 211.531634,103.161736 Z" id="Path" fill="#F09491"></path>
                <path d="M188.842868,80.4729694 C187.779348,81.5364891 187.181726,82.9798836 187.181726,84.4840192 C187.181726,85.9881547 187.779335,87.4315492 188.842868,88.4950689 L194.51506,94.1672604 C196.73078,96.3829805 200.321439,96.3829805 202.537159,94.1672604 C204.752879,91.9515403 204.752879,88.360881 202.537159,86.145161 L196.864968,80.4729694 C195.801448,79.4094497 194.358053,78.8118276 192.853918,78.8118276 C191.349782,78.8118276 189.906388,79.4094368 188.842868,80.4729694 Z" id="Path" fill="#F09491"></path>
            </g>
        </g>
    </g>
</svg>