<?xml version="1.0" encoding="iso-8859-1"?>
<!-- Generator: Adobe Illustrator 19.0.0, SVG Export Plug-In . SVG Version: 6.00 Build 0)  -->
<svg version="1.1" id="Capa_1" xmlns="http://www.w3.org/2000/svg" xmlns:xlink="http://www.w3.org/1999/xlink" x="0px" y="0px"
	 viewBox="0 0 480 480" style="enable-background:new 0 0 480 480;" xml:space="preserve">
<g>
	<g>
		<path d="M480,280v-48h-16v16h-24v-16c0-4.418-3.582-8-8-8h-55.624c5.005-17.155,7.572-34.93,7.624-52.8V144
			C384,64.471,319.529,0,240,0S96,64.471,96,144v27.2c0.192,61.734,29.934,119.642,80,155.76V400H80
			c-44.163,0.048-79.951,35.837-80,80h16c0.04-35.33,28.67-63.96,64-64h104c4.418,0,8-3.582,8-8v-70.584
			c4.632,2.688,9.36,5.24,14.248,7.544c21.37,10.091,46.134,10.091,67.504,0c4.872-2.296,9.6-4.864,14.248-7.56V408
			c0,4.418,3.582,8,8,8h104c35.33,0.04,63.96,28.67,64,64h16c-0.048-44.163-35.837-79.952-80-80h-96v-72.872
			c15.267-11.006,28.84-24.189,40.288-39.128H432c4.418,0,8-3.582,8-8v-16h24v16H480z M343.016,68.264
			C359.247,90.178,368.006,116.729,368,144v27.2c0,0.192,0,0.384,0,0.584c-39.794-5.637-78.498-17.296-114.784-34.576
			c31.917-18.146,61.265-40.477,87.264-66.4L343.016,68.264z M112,144c0.084-70.658,57.342-127.916,128-128
			c35.086,0.012,68.617,14.481,92.696,40l-3.552,3.56C270.094,118.296,194.182,157.134,112,170.656V144z M328,232v16h-24v16h24v16
			c0.041,0.775,0.195,1.541,0.456,2.272c-16.646,20.465-37.668,36.938-61.52,48.208c-17.054,8.056-36.818,8.056-53.872,0
			c-56.489-26.813-94.614-81.47-100.264-143.744c42.915-6.86,84.488-20.415,123.2-40.168c41.113,21.01,85.464,34.964,131.2,41.28
			c-1.239,12.281-3.762,24.398-7.528,36.152H336C331.582,224,328,227.582,328,232z M424,248h-32v16h32v8h-80v-32h80V248z"/>
	</g>
</g>
<g>
	<g>
		<path d="M213.656,434.344c-1.5-1.5-3.534-2.344-5.656-2.344h-72v16h68.688l13.656,13.656l11.312-11.312L213.656,434.344z"/>
	</g>
</g>
<g>
	<g>
		<path d="M272,432c-2.122,0-4.156,0.844-5.656,2.344l-16,16l11.312,11.312L275.312,448H344v-16H272z"/>
	</g>
</g>
<g>
</g>
<g>
</g>
<g>
</g>
<g>
</g>
<g>
</g>
<g>
</g>
<g>
</g>
<g>
</g>
<g>
</g>
<g>
</g>
<g>
</g>
<g>
</g>
<g>
</g>
<g>
</g>
<g>
</g>
</svg>
