<?xml version="1.0" encoding="UTF-8"?>
<svg width="512px" height="478px" viewBox="0 0 512 478" version="1.1" xmlns="http://www.w3.org/2000/svg" xmlns:xlink="http://www.w3.org/1999/xlink">
    <!-- Generator: Sketch 64 (93537) - https://sketch.com -->
    <title>laser</title>
    <desc>Created with Sketch.</desc>
    <g id="Page-1" stroke="none" stroke-width="1" fill="none" fill-rule="evenodd">
        <g id="laser" fill-rule="nonzero">
            <path d="M412.328,388.673 C407.38,387.535 402.707,386.46 398.337,385.382 C397.195,385.099 396.687,384.561 396.569,384.373 L396.569,342.271 C402.147,337.965 407.585,333.206 412.748,328.054 C429.976,310.863 442.63,290.981 450.109,269.808 C477.802,251.78 491.28,222.372 491.28,180 C491.28,136.806 480.565,97.531 460.292,66.424 C458.03,62.953 453.383,61.975 449.914,64.235 C446.443,66.497 445.464,71.143 447.725,74.614 C466.405,103.279 476.279,139.721 476.279,180 C476.279,208.069 469.751,229.427 456.432,244.684 C457.464,237.961 457.997,231.168 457.997,224.344 C457.997,164.627 446.031,122.811 421.415,96.509 C401.376,75.098 373.481,64.69 336.127,64.69 C336.072,64.69 336.012,64.69 335.956,64.69 C254.663,64.759 213.444,118.474 213.444,224.344 C213.444,231.168 213.977,237.961 215.009,244.684 C201.694,229.423 195.167,208.065 195.167,180 C195.167,66.308 265.759,15.418 335.718,15.418 C371.893,15.418 402.476,26.835 426.613,49.353 C429.644,52.179 434.389,52.014 437.214,48.984 C440.039,45.955 439.874,41.21 436.846,38.384 C410.22,13.546 375.251,0.418 335.718,0.418 C287.727,0.418 247.501,19.271 219.389,54.94 C194.097,87.032 180.167,131.445 180.167,180 C180.167,222.371 193.644,251.782 221.336,269.816 C225.188,280.718 230.414,291.277 236.929,301.303 L202.202,321.353 C195.971,315.604 187.091,313.177 178.588,315.381 L151.759,322.335 L150.588,320.306 C146.188,312.686 136.409,310.066 128.788,314.466 L107.436,326.793 C98.493,331.956 90.909,339.337 85.505,348.136 C80.312,356.591 72.734,363.1 63.594,366.956 L54.231,370.906 C50.415,372.516 48.625,376.915 50.236,380.732 C51.845,384.548 56.248,386.335 60.061,384.727 L69.424,380.777 C81.465,375.697 91.446,367.125 98.287,355.987 C102.391,349.306 108.147,343.704 114.937,339.784 L136.289,327.457 C136.747,327.192 137.334,327.351 137.599,327.808 L171.811,387.065 C172.076,387.523 171.918,388.111 171.46,388.376 L150.109,400.703 C143.32,404.623 135.588,406.808 127.75,407.02 C114.685,407.375 102.271,411.732 91.85,419.621 L47.962,452.842 C45.053,455.045 40.87,454.203 39.042,451.037 L15.813,410.804 C13.989,407.645 15.342,403.597 18.711,402.175 L27.825,398.329 C31.641,396.719 33.43,392.32 31.819,388.503 C30.208,384.685 25.808,382.899 21.993,384.508 L12.879,388.354 C7.314,390.703 3.019,395.334 1.096,401.061 C-0.827,406.788 -0.198,413.072 2.823,418.303 L26.052,458.536 C32.365,469.47 46.884,472.471 57.016,464.801 L100.903,431.581 C108.815,425.592 118.239,422.284 128.158,422.014 C138.481,421.734 148.665,418.856 157.608,413.693 L178.959,401.366 C186.578,396.967 189.199,387.188 184.801,379.566 L183.63,377.538 L203.067,357.78 C209.227,351.518 211.566,342.615 209.702,334.345 L245.734,313.542 C254.175,324.182 264.028,333.901 274.878,342.277 L274.878,384.374 C274.76,384.562 274.249,385.1 273.112,385.381 C268.729,386.462 264.054,387.537 259.106,388.676 C217.047,398.354 159.447,411.607 159.447,458.403 L159.447,463.333 C159.447,471.191 166.53,477.583 175.237,477.583 L496.21,477.583 C504.917,477.583 512,471.19 512,463.333 L512,458.403 C512,411.604 454.392,398.351 412.328,388.673 L412.328,388.673 Z M192.373,347.259 L175.847,364.057 L159.541,335.814 L182.351,329.902 C192.514,327.271 199.747,339.764 192.373,347.259 L192.373,347.259 Z M262.301,106.861 C279.804,88.604 303.901,79.717 335.97,79.689 L336.125,79.689 C369.099,79.689 393.417,88.544 410.463,106.758 C426.067,123.431 436.108,148.726 440.477,182.218 C408.718,173.714 372.771,169.232 335.721,169.232 C298.743,169.232 262.847,173.699 231.108,182.174 C235.677,148.989 246.113,123.746 262.301,106.861 L262.301,106.861 Z M258.908,305.934 L263.598,303.226 C267.185,301.155 268.414,296.568 266.343,292.981 C264.272,289.393 259.683,288.165 256.098,290.236 L249.977,293.77 C239.831,278.359 230.623,257.967 228.785,233.289 L240.824,241.315 C247.874,246.004 256.068,248.484 264.522,248.484 L295.683,248.484 C307.748,248.484 318.518,241.261 323.84,230.411 C326.131,225.739 326.574,222.47 330.31,220.069 C335.517,216.743 342.318,218.87 344.81,224.303 L347.607,230.422 C352.644,241.395 363.694,248.485 375.759,248.485 L406.921,248.485 C415.374,248.485 423.569,246.006 430.624,241.312 L442.657,233.29 C439.615,274.121 416.387,303.233 402.152,317.437 C377.779,341.758 350.63,352.835 335.721,352.835 C320.812,352.835 293.663,341.758 269.29,317.437 C266.161,314.314 262.596,310.461 258.908,305.934 L258.908,305.934 Z M497,462.46 C496.809,462.526 496.544,462.583 496.21,462.583 L175.237,462.583 C174.903,462.583 174.638,462.526 174.447,462.46 L174.447,458.402 C174.447,423.547 223.253,412.317 262.469,403.293 C267.477,402.141 272.206,401.053 276.711,399.941 C284.463,398.02 289.877,391.659 289.877,384.471 L289.877,352.557 C305.947,362.233 322.206,367.834 335.72,367.834 C349.235,367.834 365.496,362.232 381.568,352.554 L381.568,384.471 C381.568,391.656 386.976,398.017 394.732,399.943 C399.228,401.052 403.958,402.14 408.964,403.291 C448.186,412.315 497,423.544 497,458.401 L497,462.46 L497,462.46 Z" id="Shape" fill="#000000"></path>
            <path d="M365.243,295.439 C368.985,293.663 370.578,289.189 368.802,285.447 C367.024,281.705 362.55,280.112 358.81,281.889 C343.275,289.266 328.169,289.266 312.634,281.889 C308.891,280.111 304.42,281.705 302.642,285.447 C300.866,289.189 302.458,293.662 306.201,295.439 C315.995,300.09 325.859,302.415 335.723,302.415 C345.587,302.415 355.449,300.09 365.243,295.439 Z" id="Path" fill="#000000"></path>
            <path d="M45.331,263.981 C61.23,269.242 67.348,275.36 72.61,291.259 C74.389,296.636 79.187,300.111 84.833,300.111 C90.48,300.111 95.277,296.636 97.057,291.259 C102.318,275.36 108.436,269.242 124.336,263.981 C129.713,262.202 133.188,257.404 133.188,251.758 C133.188,246.112 129.713,241.314 124.336,239.535 C108.436,234.274 102.318,228.155 97.057,212.256 C95.278,206.879 90.48,203.405 84.833,203.405 C79.187,203.405 74.39,206.879 72.61,212.256 C67.348,228.155 61.23,234.273 45.331,239.534 C39.954,241.313 36.479,246.111 36.479,251.757 C36.479,257.403 39.954,262.202 45.331,263.981 Z" id="Shape" fill="#000000"></path>
            <path d="M85.085,138.162 C100.726,142.795 105.386,147.456 110.02,163.097 C111.393,167.733 115.559,170.849 120.386,170.849 C125.212,170.849 129.378,167.734 130.751,163.097 C135.384,147.457 140.045,142.797 155.686,138.162 C160.322,136.788 163.438,132.622 163.437,127.796 C163.437,122.969 160.322,118.804 155.686,117.431 C140.044,112.797 135.384,108.136 130.751,92.495 C129.377,87.859 125.212,84.744 120.386,84.744 C115.559,84.744 111.394,87.859 110.02,92.495 C105.386,108.136 100.726,112.797 85.085,117.43 C80.449,118.803 77.333,122.969 77.333,127.795 C77.333,132.622 80.447,136.788 85.085,138.162 L85.085,138.162 Z" id="Shape" fill="#000000"></path>
            <path d="M84.833,222.52 C90.803,237.439 99.152,245.787 114.071,251.758 C99.152,257.728 90.803,266.077 84.833,280.996 C78.863,266.077 70.514,257.728 55.596,251.758 C70.514,245.788 78.863,237.439 84.833,222.52 Z" id="Path" fill="#F09491"></path>
            <path d="M120.385,107.697 C124.838,117.326 130.856,123.343 140.485,127.796 C130.856,132.249 124.838,138.266 120.385,147.895 C115.932,138.266 109.915,132.249 100.286,127.796 C109.915,123.343 115.932,117.326 120.385,107.697 L120.385,107.697 Z" id="Path" fill="#F09491"></path>
            <path d="M229.411,198.204 C261.217,189.061 297.838,184.233 335.721,184.233 C373.645,184.233 410.284,189.07 442.084,198.228 C442.481,203.67 442.75,209.296 442.886,215.109 L422.309,228.826 C417.729,231.873 412.408,233.484 406.92,233.484 L375.758,233.484 C369.537,233.484 363.838,229.825 361.244,224.174 L358.447,218.057 C349.568,198.702 321.915,198.618 312.989,218.066 L310.202,224.163 C307.603,229.825 301.904,233.483 295.683,233.483 L264.522,233.483 C259.034,233.483 253.712,231.873 249.138,228.83 L228.562,215.112 C228.705,209.291 228.991,203.658 229.411,198.204 Z" id="Path" fill="#F09491"></path>
        </g>
    </g>
</svg>