<?xml version="1.0" encoding="UTF-8"?>
<svg width="142px" height="254px" viewBox="0 0 142 254" version="1.1" xmlns="http://www.w3.org/2000/svg" xmlns:xlink="http://www.w3.org/1999/xlink">
    <!-- Generator: Sketch 64 (93537) - https://sketch.com -->
    <title>Group</title>
    <desc>Created with Sketch.</desc>
    <g id="Page-1" stroke="none" stroke-width="1" fill="none" fill-rule="evenodd">
        <g id="Artboard" fill-rule="nonzero">
            <g id="Group" transform="translate(0.438512, 0.361174)">
                <path d="M9.9475983e-14,248.42895 C-0.0021154874,247.083636 0.532607278,245.793512 1.48324086,244.842895 C2.43387444,243.892278 3.7239816,243.357542 5.06929518,243.359661 L46.597147,243.359661 L10.5839618,227.415364 C8.02495444,226.282283 6.87063345,223.2861 8.00583345,220.727364 C9.14103345,218.168357 12.1350976,217.014036 14.6938335,218.147117 L55.5915618,236.251216 L26.2690927,195.402377 C24.6373446,193.127685 25.1593149,189.959414 27.4340063,188.328154 C29.7086976,186.694288 32.8769693,187.216258 34.5082285,189.49095 L65.5032409,232.671789 L65.5032409,126.849073 C65.5032409,124.048174 67.7715767,121.77772 70.5724754,121.77772 C73.3733742,121.77772 75.64171,124.048174 75.64171,126.849073 L75.64171,232.671789 L106.636722,189.49095 C108.26847,187.216258 111.43647,186.694288 113.710945,188.328154 C115.985636,189.959903 116.507606,193.127903 114.875858,195.402377 L85.553389,236.251216 L126.451117,218.147117 C129.010125,217.014036 132.006525,218.168337 133.139117,220.727364 C134.274317,223.286372 133.12002,226.282772 130.560989,227.415364 L94.5478038,243.359661 L136.075656,243.359661 C138.874436,243.359661 141.14489,245.627996 141.14489,248.428895 C141.14489,251.229794 138.874436,253.498136 136.075656,253.498136 L5.06972975,253.498136 C3.72441617,253.500252 2.43429271,252.965529 1.48367543,252.014895 C0.533058142,251.064262 -0.00167766024,249.774154 9.9475983e-14,248.428841 L9.9475983e-14,248.42895 Z" id="Path" fill="#F09491"></path>
                <path d="M5.14735444,30.9929001 L5.14735444,5.06929518 C5.14735444,3.7239816 5.68251394,2.43385815 6.63314209,1.48324086 C7.58377024,0.532623578 8.87388283,-0.00211222493 10.2191964,-7.10542736e-15 L132.001419,-7.10542736e-15 C133.344614,-0.0021160274 134.634737,0.532607281 135.587473,1.48324086 C136.53809,2.43385815 137.070708,3.7239816 137.070708,5.06929518 L137.070708,30.9929001 C137.070708,32.3382137 136.538107,33.6283372 135.587473,34.5789544 C134.634737,35.5295717 133.344614,36.0643075 132.001419,36.0643075 L98.5407767,36.0643075 L98.5407767,90.3728014 C98.5407767,91.8708656 97.8787125,93.2925544 96.7286828,94.2537643 L74.3701643,113.024382 C72.4858779,114.609468 69.7359322,114.609468 67.8538186,113.024382 L45.4953001,94.2537643 C44.3452162,93.2925544 43.6810878,91.8708656 43.6832063,90.3728014 L43.6832063,36.0643075 L10.2187618,36.0643075 C8.87344827,36.0643075 7.58332481,35.5295826 6.63270752,34.5789544 C5.68209024,33.6283263 5.14735444,32.3382137 5.14735444,30.9929001 L5.14735444,30.9929001 Z" id="Path" fill="#000000"></path>
                <polygon id="Path" fill="#FFFFFF" points="88.4001347 53.1797643 53.8215668 53.1797643 53.8215668 88.0109248 71.1108507 102.522777 88.4001347 88.0109248"></polygon>
                <polygon id="Path" fill="#F09491" points="88.4001347 36.0643075 53.8215668 36.0643075 53.8215668 48.0643075 88.4001347 48.0606582"></polygon>
                <polygon id="Path" fill="#FFFFFF" points="15.2895174 25.9236656 126.930011 25.9236656 126.930011 10.1385298 15.2895174 10.1385298"></polygon>
            </g>
        </g>
    </g>
</svg>