<?xml version="1.0" encoding="UTF-8"?>
<svg width="480px" height="480px" viewBox="0 0 480 480" version="1.1" xmlns="http://www.w3.org/2000/svg" xmlns:xlink="http://www.w3.org/1999/xlink">
    <!-- Generator: Sketch 64 (93537) - https://sketch.com -->
    <title>lifting</title>
    <desc>Created with Sketch.</desc>
    <g id="Page-1" stroke="none" stroke-width="1" fill="none" fill-rule="evenodd">
        <g id="lifting" fill-rule="nonzero">
            <path d="M389.368,245.656 L378.056,234.344 C377.912,234.48 364.168,248 343.712,248 C323.504,248 309.488,234.456 309.344,234.32 L298.056,245.656 C298.808,246.408 316.712,264 343.712,264 C370.712,264 388.616,246.408 389.368,245.656 Z" id="Path" fill="#000000"></path>
            <path d="M250.056,234.344 C249.912,234.48 236.168,248 215.712,248 C195.504,248 181.488,234.456 181.368,234.344 L170.056,245.656 C170.808,246.408 188.712,264 215.712,264 C242.712,264 260.616,246.408 261.368,245.656 L250.056,234.344 Z" id="Path" fill="#000000"></path>
            <path d="M322.528,367.8 L317.464,352.624 C288.056,362.432 279.936,362.432 250.528,352.624 L245.464,367.8 C261.848,373.264 272.928,375.992 283.992,375.992 C295.056,375.992 306.152,373.264 322.528,367.8 Z" id="Path" fill="#000000"></path>
            <path d="M8,480 L80,480 C84.424,480 88,476.416 88,472 L88,424 C88,393.12 113.128,368 144,368 L168,368 C170.512,368 172.896,367.504 175.176,366.784 C180.352,373.6 185.872,380.144 191.712,386.368 L191.712,480 L207.712,480 L207.712,401.904 C208.216,402.344 208.688,402.824 209.192,403.264 C218.296,411.184 227.008,417.032 235.824,421.144 C251.392,428.392 267.792,431.944 283.992,431.944 C309.768,431.944 335.056,422.944 355.68,405.48 C357.072,404.304 358.344,402.952 359.712,401.736 L359.712,480 L375.712,480 L375.712,386.256 C379.768,381.96 383.808,377.64 387.544,373.064 L375.152,362.928 C366.144,373.944 356.112,384.152 345.344,393.264 C316.56,417.6 277.184,422.736 242.56,406.632 C235.12,403.16 227.64,398.112 219.688,391.192 C208.056,381.056 197.424,369.608 187.992,357.208 C190.52,353.424 192,348.888 192,344 L192,288 C192,274.768 181.232,264 168,264 L144,264 L143.776,264 C141.984,258.776 140.584,254.12 139.6,248.52 C139.888,210.888 166.448,164.136 197.312,148.992 C220.088,137.816 245.376,129.352 269.816,121.176 C270.808,120.84 271.792,120.512 272.784,120.184 C302.544,126.904 339.616,137.584 366.424,160.288 C379.344,171.24 390.84,185.808 402.592,206.152 C406.072,212.168 409.584,218.672 414.008,227.248 C415.544,230.24 417.888,234.448 420.056,238.256 C423.232,243.864 425.8,249.848 427.656,256.024 L428.336,258.288 C429.384,261.776 432.808,264.248 436.272,263.984 C439.904,263.856 443,261.296 443.8,257.752 C443.928,257.184 446.968,243.696 448.008,237.104 C450.512,221.232 452.44,203.96 454.08,182.76 C455.256,167.576 456.376,151.416 456.016,135.52 C455.512,113.36 450.56,81.32 429.92,54.456 C414.808,34.792 392.424,19.648 365.208,10.672 C343.672,3.568 319.52,0.2 289.208,0.072 C258.28,-0.104 232.912,3.248 210.4,10.496 C182.24,19.56 158.92,34.968 142.96,55.056 C126.24,76.112 116.384,103.784 114.456,135.096 C112.728,163.208 117.256,230.328 124.072,257.92 C124.424,259.344 125.208,260.512 126.168,261.496 C126.408,262.336 126.672,263.168 126.928,264 L72,264 C32.296,264 5.68434189e-14,296.304 5.68434189e-14,336 L5.68434189e-14,472 C5.68434189e-14,476.416 3.576,480 8,480 Z M417.24,64.216 C435.248,87.648 439.568,116.128 440.024,135.896 C440.368,151.064 439.328,166.144 438.136,181.536 C436.728,199.736 435.104,214.936 433.088,228.816 C431.304,225.656 429.488,222.368 428.232,219.936 C423.696,211.12 420.064,204.408 416.456,198.16 C403.744,176.176 391.144,160.264 376.776,148.088 C354.488,129.216 326.464,118.072 300.48,110.68 C306.328,108.576 312.136,106.408 317.848,104.152 C346.152,92.936 385.552,76.056 414.688,61.04 C415.552,62.064 416.408,63.128 417.24,64.216 Z M130.448,136.088 C131.648,116.544 136.968,88.352 155.512,65.016 C169.496,47.408 190.184,33.832 215.328,25.736 C235.768,19.16 258.72,16.08 287.432,16.08 L289.168,16.08 C317.744,16.2 340.328,19.312 360.216,25.88 C372.6,29.96 388.608,37.072 402.816,49.128 C374.504,63.376 337.264,79.248 311.968,89.272 C296.688,95.328 280.464,100.76 264.768,106.008 C239.816,114.352 214.016,122.984 190.28,134.632 C165.976,146.56 144.408,174.152 132.752,204.2 C130.528,178.552 129.512,151.16 130.448,136.088 Z M72,280 L136,280 L136,352.472 C100.056,356.472 72,387.008 72,424 L72,464 L56,464 L56,387.224 C56,372.56 49.432,358.896 37.984,349.744 L16.184,332.304 C18.104,303.152 42.376,280 72,280 Z" id="Shape" fill="#000000"></path>
            <path d="M92,348 C103.032,348 112,339.024 112,328 L112,316 C112,304.976 103.032,296 92,296 C80.968,296 72,304.976 72,316 L72,328 C72,339.024 80.968,348 92,348 Z M88,316 C88,313.792 89.8,312 92,312 C94.2,312 96,313.792 96,316 L96,328 C96,330.208 94.2,332 92,332 C89.8,332 88,330.208 88,328 L88,316 Z" id="Shape" fill="#000000"></path>
            <path d="M353.936,335.76 C355.224,335.44 381.92,328.296 405.512,287.024 L408.24,297.944 L423.752,294.064 L415.752,262.064 C415.168,259.712 413.544,257.752 411.336,256.736 C409.128,255.72 406.584,255.76 404.416,256.848 L372.416,272.848 L379.576,287.16 L389.808,282.048 C370.4,314.184 350.216,320.2 349.968,320.264 L352,328 L353.936,335.76 Z" id="Path" fill="#000000"></path>
            <path d="M409.936,367.76 C411.224,367.44 437.92,360.296 461.512,319.024 L464.24,329.944 L479.752,326.064 L471.752,294.064 C471.168,291.712 469.544,289.752 467.336,288.736 C465.128,287.72 462.584,287.768 460.416,288.848 L428.416,304.848 L435.576,319.16 L445.808,314.048 C426.4,346.184 406.216,352.2 405.968,352.264 L408,360 L409.936,367.76 Z" id="Path" fill="#000000"></path>
            <path d="M152,280 L168,280 C172.416,280 176,283.592 176,288 L176,344 C176,348.408 172.416,352 168,352 L152,352 L152,280 Z" id="Path" fill="#F09491"></path>
            <path d="M16,352.648 L27.992,362.24 C35.624,368.344 40,377.456 40,387.224 L40,464 L16,464 L16,352.648 Z" id="Path" fill="#F09491"></path>
        </g>
    </g>
</svg>