<svg id="Layer_1_1_" enable-background="new 0 0 64 64" height="512" viewBox="0 0 64 64" width="512" xmlns="http://www.w3.org/2000/svg"><path d="m49 7h-1v-1.124c0-1-.747-1.853-1.735-1.982l-8.41-1.122c-3.885-.518-7.825-.518-11.709 0l-8.408 1.122c-.991.129-1.738.982-1.738 1.982v1.124h-1c-2.206 0-4 1.794-4 4 0 2.229 1.596 4.113 3.794 4.479l12.083 2.014c.895.149 1.606.75 1.93 1.546-.456.092-.807.477-.807.961v24c0 .495.366.887.838.967-.311.911-1.047 1.651-1.999 1.937l-4.253 1.275c-2.145.644-3.586 2.582-3.586 4.821 0 2.206 1.794 4 4 4h1.146c.796 2.951 4.951 5 7.854 5s7.058-2.049 7.854-5h1.146c2.206 0 4-1.794 4-4 0-2.239-1.441-4.177-3.586-4.82l-4.252-1.275c-.952-.286-1.688-1.026-1.999-1.937.471-.081.837-.473.837-.968v-24c0-.484-.351-.869-.807-.961.324-.796 1.036-1.397 1.931-1.546l12.082-2.014c2.198-.366 3.794-2.25 3.794-4.479 0-2.206-1.794-4-4-4zm-31-1.124 8.409-1.122c1.855-.247 3.723-.37 5.591-.37s3.736.123 5.59.37l8.41 1.122v4.248l-8.409 1.122c-3.71.495-7.471.495-11.181 0l-8.41-1.122zm14 54.124c-2.479 0-6-2.068-6-4s3.521-4 6-4 6 2.068 6 4-3.521 4-6 4zm4.586-11.18 4.252 1.275c1.273.383 2.162 1.577 2.162 2.905 0 1.103-.897 2-2 2h-1.146c-.796-2.951-4.951-5-7.854-5s-7.058 2.049-7.854 5h-1.146c-1.103 0-2-.897-2-2 0-1.328.889-2.522 2.161-2.904l4.253-1.275c1.816-.545 3.117-2.022 3.477-3.82h2.219c.359 1.797 1.66 3.274 3.476 3.819zm-2.586-23.82v14h-4v-14zm-4-2v-2h4v2zm4 18v2h-4v-2zm14.876-27.493-12.082 2.014c-1.859.31-3.275 1.709-3.672 3.479h-2.245c-.397-1.771-1.813-3.17-3.672-3.479l-12.083-2.014c-1.229-.205-2.122-1.259-2.122-2.507 0-1.103.897-2 2-2h1v1.124c0 1 .747 1.853 1.735 1.982l8.41 1.122c1.942.259 3.898.388 5.854.388s3.913-.129 5.855-.388l8.408-1.122c.99-.13 1.737-.982 1.737-1.982v-1.124h1c1.103 0 2 .897 2 2 .001 1.248-.892 2.302-2.123 2.507z"/></svg>