<?xml version="1.0" encoding="UTF-8"?>
<svg width="513px" height="500px" viewBox="0 0 513 500" version="1.1" xmlns="http://www.w3.org/2000/svg" xmlns:xlink="http://www.w3.org/1999/xlink">
    <!-- Generator: Sketch 64 (93537) - https://sketch.com -->
    <title>mesotherapy</title>
    <desc>Created with Sketch.</desc>
    <g id="Page-1" stroke="none" stroke-width="1" fill="none" fill-rule="evenodd">
        <g id="mesotherapy" fill-rule="nonzero">
            <path d="M355.797,246.278 C359.942,208.293 275.341,43.433 256.117,10.278 C237.773,44.965 233.816,49.91 200.187,120.218 C163.431,204.037 142.207,241.518 168.067,292.958 L0.117,292.958 L0.117,499.958 L512.117,499.958 L512.117,292.958 L344.167,292.958 C351.587,279.028 355.797,263.138 355.797,246.278 Z M491.604975,319.372128 L491.604975,407.684286 C456.433908,403.670571 451.218788,393.606065 407.617043,393.784244 C355.661727,393.613359 355.976405,408.025015 306.958437,408.372128 C257.957141,408.027099 258.24056,393.612317 206.303999,393.784244 C154.371607,393.613359 154.652942,408.025015 105.652688,408.372128 C63.5441032,408.4168 60.0784704,397.134217 20.6290247,394.296899 L20.6290247,319.37317 L189.826093,319.37317 C226.250664,351.06089 285.990629,351.054638 322.407907,319.37317 L491.604975,319.37317 L491.604975,319.372128 Z" id="Shape" fill="#000000"></path>
            <path d="M66.398,221.958 C102.948,221.958 132.678,192.228 132.678,155.678 C135.638,131.187 81.807,27.224 66.398,0.278 C50.929,27.333 -2.856,131.197 0.119,155.678 C0.117,192.228 29.847,221.958 66.398,221.958 Z M66.398,41.958 C87.4564171,84.0983894 109.127271,133.340695 109.127271,149.228729 C109.127271,172.795783 89.9532764,191.958 66.398,191.958 C42.830946,191.958 23.6687286,172.795783 23.6687286,149.228729 C23.6675509,133.339517 45.3395829,84.0972117 66.398,41.958 Z" id="Shape" fill="#000000"></path>
            <path d="M445.837,221.958 C482.387,221.958 512.117,192.228 512.117,155.678 C515.078,131.143 461.255,27.249 445.837,0.278 C430.379,27.307 376.584,131.243 379.558,155.678 C379.557,192.228 409.287,221.958 445.837,221.958 Z M445.837,41.958 C466.895417,84.0866118 488.566271,133.328917 488.566271,149.228729 C488.566271,172.795783 469.404054,191.958 445.837,191.958 C422.281724,191.958 403.107729,172.795783 403.107729,149.228729 C403.107729,133.339517 424.790361,84.0972117 445.837,41.958 Z" id="Shape" fill="#000000"></path>
            <path d="M18.1607968,469.958 L18.1607968,422.562599 C54.5112391,426.418332 59.500949,436.895775 104.075621,436.698883 C156.571286,436.871559 156.254362,422.30885 205.781893,421.958 C255.296788,422.307797 255.010398,436.872612 307.491323,436.698883 C359.972248,436.871559 359.686911,422.30885 409.204965,421.958 C451.287414,421.89927 455.00627,433.058995 494.073203,436.105045 L494.073203,469.958 L18.1607968,469.958 Z" id="Path" fill="#F09491"></path>
            <path d="M256.117,315.958 C215.307694,315.958 182.265181,282.723675 182.274716,242.115718 C182.274716,231.868088 187.901907,202.661813 225.586057,122.12201 C236.628487,98.5323263 247.7451,76.299102 256.117,59.958 C264.4889,76.299102 275.605513,98.5323263 286.647943,122.12201 C324.332093,202.661813 329.959284,231.868088 329.959284,242.115718 C329.969879,282.722615 296.926306,315.958 256.117,315.958 Z" id="Path" fill="#F09491"></path>
            <polygon id="Path" fill="#000000" points="271.117 201.958 241.117 201.958 241.117 227.958 215.117 227.958 215.117 257.958 241.117 257.958 241.117 283.958 271.117 283.958 271.117 257.958 297.117 257.958 297.117 227.958 271.117 227.958"></polygon>
        </g>
    </g>
</svg>