<?xml version="1.0" encoding="UTF-8"?>
<svg width="412px" height="480px" viewBox="0 0 412 480" version="1.1" xmlns="http://www.w3.org/2000/svg" xmlns:xlink="http://www.w3.org/1999/xlink">
    <!-- Generator: Sketch 64 (93537) - https://sketch.com -->
    <title>peeling</title>
    <desc>Created with Sketch.</desc>
    <g id="Page-1" stroke="none" stroke-width="1" fill="none" fill-rule="evenodd">
        <g id="peeling" fill-rule="nonzero">
            <path d="M330.451,8.97 C318.491,-2.99 299.099,-2.99 287.139,8.97 L243.427,52.674 L225.091,34.33 C221.911,31.331 216.944,31.331 213.763,34.33 L189.763,58.33 C186.64,61.454 186.64,66.518 189.763,69.642 L208.115,87.994 L29.771,266.338 C28.271,267.838 27.427,269.872 27.427,271.994 L27.427,303.994 C27.427,308.412 31.009,311.994 35.427,311.994 L67.163,312.074 C69.281,312.074 71.312,311.234 72.811,309.738 L251.427,131.306 L269.771,149.65 C272.895,152.773 277.959,152.773 281.083,149.65 L305.083,125.65 C308.206,122.526 308.206,117.462 305.083,114.338 L286.739,95.994 L330.451,52.282 C342.411,40.322 342.411,20.93 330.451,8.97 Z M63.867,296.066 L43.427,295.994 L43.427,275.298 L219.427,99.298 L240.115,119.994 L63.867,296.066 Z" id="Shape" fill="#000000"></path>
            <path d="M387.427,223.994 L355.427,223.994 L355.427,183.994 C355.427,179.576 351.845,175.994 347.427,175.994 L267.427,175.994 C263.009,175.994 259.427,179.576 259.427,183.994 L259.427,223.994 L227.427,223.994 C214.172,223.994 203.427,234.739 203.427,247.994 L203.427,455.994 C203.427,469.249 214.172,479.994 227.427,479.994 L387.427,479.994 C400.682,479.994 411.427,469.249 411.427,455.994 L411.427,247.994 C411.427,234.739 400.682,223.994 387.427,223.994 Z M395.427,455.994 C395.427,460.412 391.845,463.994 387.427,463.994 L227.427,463.994 C223.009,463.994 219.427,460.412 219.427,455.994 L219.427,247.994 C219.427,243.576 223.009,239.994 227.427,239.994 L267.427,239.994 C271.845,239.994 275.427,236.412 275.427,231.994 L275.427,223.994 L315.427,223.994 L315.427,207.994 L275.427,207.994 L275.427,191.994 L339.427,191.994 L339.427,207.994 L323.427,207.994 L323.427,223.994 L339.427,223.994 L339.427,231.994 C339.427,236.412 343.009,239.994 347.427,239.994 L387.427,239.994 C391.845,239.994 395.427,243.576 395.427,247.994 L395.427,455.994 Z" id="Shape" fill="#000000"></path>
            <path d="M371.427,263.994 L243.427,263.994 C239.009,263.994 235.427,267.576 235.427,271.994 L235.427,439.994 C235.427,444.412 239.009,447.994 243.427,447.994 L339.427,447.994 L339.427,431.994 L251.427,431.994 L251.427,279.994 L363.427,279.994 L363.427,431.994 L355.427,431.994 L355.427,447.994 L371.427,447.994 C375.845,447.994 379.427,444.412 379.427,439.994 L379.427,271.994 C379.427,267.576 375.845,263.994 371.427,263.994 Z" id="Path" fill="#F09491"></path>
            <path d="M68.139,410.57 L42.947,341.258 C41.44,337.105 36.851,334.96 32.698,336.467 C30.47,337.276 28.716,339.03 27.907,341.258 L2.707,410.57 C-2.605,424.978 2.212,441.164 14.539,450.322 C29.927,461.852 51.748,458.725 63.278,443.337 C70.323,433.935 72.151,421.613 68.139,410.57 Z" id="Shape" fill="#000000"></path>
            <path d="M319.583,40.526 C319.438,40.677 319.29,40.826 319.138,40.971 L269.77,90.339 C266.647,93.463 266.647,98.527 269.77,101.651 L288.114,119.995 L275.426,132.683 L206.738,63.995 L219.426,51.299 L237.762,69.651 C240.884,72.777 245.95,72.78 249.076,69.657 C249.078,69.655 249.08,69.653 249.082,69.651 L298.45,20.283 C304.04,14.447 313.302,14.248 319.138,19.838 C324.974,25.428 325.173,34.69 319.583,40.526 Z" id="Path" fill="#F09491"></path>
            <path d="M46.707,437.522 C40.007,442.506 30.831,442.506 24.131,437.522 C17.472,432.572 14.873,423.825 17.747,416.042 L17.739,416.042 L35.427,367.402 L53.107,416.042 C55.977,423.829 53.371,432.576 46.707,437.522 Z" id="Path" fill="#F09491"></path>
        </g>
    </g>
</svg>