<?xml version="1.0" encoding="UTF-8"?>
<svg width="464px" height="512px" viewBox="0 0 464 512" version="1.1" xmlns="http://www.w3.org/2000/svg" xmlns:xlink="http://www.w3.org/1999/xlink">
    <!-- Generator: Sketch 64 (93537) - https://sketch.com -->
    <title>rash</title>
    <desc>Created with Sketch.</desc>
    <g id="Page-1" stroke="none" stroke-width="1" fill="none" fill-rule="evenodd">
        <g id="rash" fill-rule="nonzero">
            <path d="M151.179,401.637 C146.738,401.637 143.138,405.237 143.138,409.677 C143.138,414.117 146.738,417.717 151.179,417.717 C155.62,417.717 159.219,414.117 159.219,409.677 C159.219,405.237 155.619,401.637 151.179,401.637 Z" id="Path" fill="#F09491"></path>
            <path d="M225.955,382.888 C225.955,378.447 222.355,374.848 217.914,374.848 C213.473,374.848 209.874,378.448 209.874,382.888 C209.874,387.329 213.474,390.929 217.914,390.929 C222.354,390.929 225.955,387.329 225.955,382.888 Z" id="Path" fill="#F09491"></path>
            <path d="M189.694,406.124 C189.694,410.565 193.294,414.165 197.734,414.165 C202.174,414.165 205.774,410.565 205.774,406.124 C205.774,401.683 202.174,398.084 197.734,398.084 C193.294,398.084 189.694,401.683 189.694,406.124 Z" id="Path" fill="#000000"></path>
            <path d="M231.405,431.811 C226.964,431.811 223.365,435.411 223.365,439.852 C223.365,444.293 226.965,447.893 231.405,447.893 C235.846,447.893 239.446,444.293 239.446,439.852 C239.446,435.411 235.845,431.811 231.405,431.811 L231.405,431.811 Z" id="Path" fill="#000000"></path>
            <path d="M231.405,477.273 C226.964,477.273 223.365,480.873 223.365,485.314 C223.365,489.755 226.965,493.354 231.405,493.354 C235.846,493.354 239.446,489.754 239.446,485.314 C239.445,480.873 235.845,477.273 231.405,477.273 L231.405,477.273 Z" id="Path" fill="#F09491"></path>
            <path d="M172.135,442.187 C172.135,446.628 175.735,450.228 180.175,450.228 C184.616,450.228 188.216,446.628 188.216,442.187 C188.216,437.746 184.616,434.147 180.175,434.147 C175.735,434.146 172.135,437.746 172.135,442.187 Z" id="Path" fill="#F09491"></path>
            <path d="M266.015,444.643 C261.872,444.643 258.515,448.001 258.515,452.143 L258.515,504.5 C258.515,508.642 261.872,512 266.015,512 C270.158,512 273.515,508.642 273.515,504.5 L273.515,452.143 C273.515,448.001 270.158,444.643 266.015,444.643 L266.015,444.643 Z" id="Path" fill="#000000"></path>
            <path d="M112.315,74.51 C112.315,74.523 112.317,74.536 112.317,74.549 L112.317,234.92 C112.317,239.062 115.674,242.42 119.817,242.42 C123.96,242.42 127.317,239.062 127.317,234.92 L127.315,31.87 C127.315,22.568 134.883,15 144.185,15 C153.487,15 161.055,22.568 161.055,31.87 L161.05,234.92 C161.05,239.062 164.407,242.42 168.55,242.42 C172.693,242.42 176.05,239.062 176.05,234.92 L176.05,62.417 C176.05,62.385 176.055,62.353 176.055,62.32 C176.055,53.024 183.618,45.46 192.914,45.46 C202.216,45.46 209.784,53.023 209.784,62.32 L209.783,234.921 C209.783,239.063 213.14,242.421 217.283,242.421 C221.426,242.421 224.783,239.063 224.783,234.921 L224.783,105.999 C224.783,105.993 224.784,105.986 224.784,105.98 C224.784,96.678 232.347,89.11 241.644,89.11 C250.946,89.11 258.514,96.678 258.514,105.98 L258.514,163.875 C258.514,168.017 261.871,171.375 266.014,171.375 C270.157,171.375 273.514,168.017 273.514,163.875 L273.514,105.98 C273.514,88.407 259.217,74.11 241.644,74.11 C235.457,74.11 229.677,75.883 224.784,78.948 L224.784,62.32 C224.784,44.753 210.487,30.46 192.914,30.46 C186.727,30.46 180.948,32.232 176.055,35.296 L176.055,31.87 C176.055,14.297 161.758,0 144.185,0 C126.612,0 112.315,14.297 112.315,31.87 L112.315,47.478 C107.421,44.413 101.641,42.64 95.455,42.64 C77.882,42.64 63.585,56.937 63.585,74.51 L63.585,199.236 L60.795,193.861 C56.879,186.301 50.253,180.721 42.136,178.15 C34.022,175.579 25.39,176.322 17.829,180.245 C2.234,188.344 -3.866,207.617 4.228,223.205 L63.584,337.61 L63.584,371.626 C63.584,375.768 66.941,379.126 71.084,379.126 C75.227,379.126 78.584,375.768 78.584,371.626 L78.584,335.78 C78.584,334.578 78.295,333.393 77.741,332.326 L17.541,216.294 C13.256,208.043 16.486,197.843 24.738,193.558 C28.739,191.482 33.309,191.089 37.603,192.449 C41.897,193.81 45.403,196.762 47.477,200.765 L64.426,233.425 C66.018,236.493 69.5,238.077 72.862,237.257 C76.22,236.438 78.584,233.428 78.584,229.971 L78.584,74.51 C78.584,65.208 86.152,57.64 95.454,57.64 C104.751,57.64 112.315,65.208 112.315,74.51 Z" id="Path" fill="#000000"></path>
            <path d="M71.084,399.831 C66.941,399.831 63.584,403.189 63.584,407.331 L63.584,504.5 C63.584,508.642 66.941,512 71.084,512 C75.227,512 78.584,508.642 78.584,504.5 L78.584,407.331 C78.584,403.188 75.227,399.831 71.084,399.831 Z" id="Path" fill="#000000"></path>
            <path d="M448.475,256.697 C434.007,232.266 410.893,214.932 383.388,207.887 C341.423,197.141 298.783,213.11 273.515,245.094 L273.515,198.951 C273.515,194.809 270.158,191.451 266.015,191.451 C261.872,191.451 258.515,194.809 258.515,198.951 L258.515,270.891 C256.745,275.26 255.242,279.793 254.04,284.483 C253.201,287.76 252.534,291.059 252.011,294.368 C238.31,298.786 221.514,308.399 210.634,329.274 C191.313,366.344 175.413,369.36 158.105,369.36 C139.416,369.36 124.4,375.012 114.68,385.706 C105.678,395.61 101.718,409.192 103.229,424.984 C105.812,452.001 127.52,468.489 167.75,473.991 C187.368,476.673 197.315,483.136 197.315,493.2 C197.315,495.56 196.505,497.769 194.841,499.952 C192.329,503.245 192.963,507.952 196.257,510.463 C197.615,511.499 199.214,512 200.799,512 C203.059,512 205.293,510.983 206.769,509.047 C210.449,504.221 212.315,498.889 212.315,493.2 C212.315,480.309 204.936,463.934 169.782,459.129 C136.905,454.633 120.02,442.997 118.161,423.555 C117.064,412.085 119.699,402.486 125.781,395.794 C132.58,388.313 143.758,384.359 158.105,384.359 C168.034,384.359 179.788,383.345 191.681,375.823 C203.331,368.454 213.881,355.496 223.935,336.206 C230.053,324.469 239.037,315.994 250.695,310.882 C250.689,322.013 252.442,333.102 255.945,343.807 L237.411,373.011 C235.919,375.363 235.851,378.347 237.238,380.762 C238.624,383.177 241.245,384.634 244.016,384.525 L258.514,383.995 L258.514,417.105 C258.514,421.247 261.871,424.605 266.014,424.605 C270.157,424.605 273.514,421.247 273.514,417.105 L273.514,383.447 L279.161,383.241 C293.029,398.191 310.752,408.736 330.636,413.828 C339.435,416.081 348.345,417.196 357.196,417.196 C376.012,417.196 394.557,412.157 411.174,402.319 C435.604,387.852 452.939,364.737 459.984,337.232 C467.029,309.729 462.942,281.127 448.475,256.697 L448.475,256.697 Z M445.453,333.512 C439.402,357.135 424.514,376.988 403.531,389.414 C382.55,401.839 357.982,405.351 334.36,399.299 C316.266,394.665 300.259,384.778 288.068,370.708 C286.641,369.061 284.571,368.119 282.401,368.119 C282.309,368.119 282.217,368.12 282.127,368.124 L257.714,369.016 L270.55,348.791 C271.8,346.821 272.063,344.382 271.26,342.191 C264.9,324.838 263.971,306.17 268.572,288.205 C281.064,239.439 330.909,209.928 379.666,222.418 C403.29,228.469 423.143,243.356 435.568,264.339 C447.993,285.322 451.503,309.888 445.453,333.512 L445.453,333.512 Z" id="Shape" fill="#000000"></path>
            <path d="M357.012,230.692 C312.808,230.692 276.846,266.654 276.846,310.859 C276.846,355.063 312.808,391.025 357.012,391.025 C401.216,391.025 437.179,355.063 437.179,310.859 C437.179,266.654 401.216,230.692 357.012,230.692 L357.012,230.692 Z M357.012,376.024 C321.079,376.024 291.846,346.791 291.846,310.858 C291.846,274.925 321.079,245.691 357.012,245.691 C392.946,245.691 422.179,274.924 422.179,310.858 C422.179,346.791 392.946,376.024 357.012,376.024 L357.012,376.024 Z" id="Shape" fill="#000000"></path>
            <path d="M381.901,278.696 C381.901,266.248 371.773,256.12 359.325,256.12 C346.877,256.12 336.75,266.247 336.75,278.696 C336.75,291.145 346.877,301.272 359.325,301.272 C371.773,301.272 381.901,291.145 381.901,278.696 Z" id="Shape" fill="#F09491"></path>
            <path d="M381.436,307.378 C368.988,307.378 358.86,317.505 358.86,329.954 C358.86,342.403 368.988,352.53 381.436,352.53 C393.884,352.53 404.012,342.403 404.012,329.954 C404.012,317.506 393.884,307.378 381.436,307.378 Z" id="Shape" fill="#000000"></path>
            <path d="M327.164,300.343 C314.716,300.343 304.588,310.47 304.588,322.919 C304.588,335.367 314.716,345.495 327.164,345.495 C339.612,345.495 349.739,335.368 349.739,322.919 C349.739,310.47 339.612,300.343 327.164,300.343 Z M327.164,330.495 C322.986,330.495 319.588,327.097 319.588,322.919 C319.588,318.741 322.986,315.343 327.164,315.343 C331.341,315.343 334.739,318.741 334.739,322.919 C334.739,327.096 331.34,330.495 327.164,330.495 Z" id="Shape" fill="#F09491"></path>
            <path d="M381.436,337.53 C377.258,337.53 373.86,334.132 373.86,329.954 C373.86,325.777 377.258,322.378 381.436,322.378 C385.614,322.378 389.012,325.776 389.012,329.954 C389.012,334.132 385.614,337.53 381.436,337.53 Z" id="Path" fill="#F09491"></path>
            <path d="M351.749,278.696 C351.749,274.519 355.147,271.12 359.324,271.12 C363.502,271.12 366.9,274.518 366.9,278.696 C366.9,282.874 363.502,286.272 359.324,286.272 C355.148,286.272 351.749,282.874 351.749,278.696 Z" id="Shape-path" fill="#000000"></path>
        </g>
    </g>
</svg>