<?xml version="1.0" encoding="UTF-8"?>
<svg width="1728px" height="1336px" viewBox="0 0 1728 1336" version="1.1" xmlns="http://www.w3.org/2000/svg" xmlns:xlink="http://www.w3.org/1999/xlink">
    <title>care-facial-massage-icon-outline-face-skin-vector</title>
    <g id="Page-1" stroke="none" stroke-width="1" fill="none" fill-rule="evenodd">
        <g id="care-facial-massage-icon-outline-face-skin-vector" transform="translate(0.5, 0.1431)" fill-rule="nonzero">
            <g id="Group" transform="translate(863.5, 667.8738) scale(-1, 1) rotate(-180) translate(-863.5, -667.8738)translate(0, 0)">
                <path d="M209.9,1334.89076 C203.1,1332.79076 197.2,1327.69076 193.7,1320.89076 C190.6,1314.89076 190.3,1313.79076 190.7,1307.39076 C191.2,1300.39076 193.3,1294.79076 197.2,1290.39076 C198.2,1289.29076 203.3,1284.79076 208.5,1280.49076 C222.8,1268.49076 251.8,1238.99076 263.1,1224.89076 C282.5,1200.49076 294.9,1181.09076 308,1154.39076 C329,1111.49076 341.3,1068.39076 347.1,1017.89076 C349.2,999.390756 350,950.490756 348.6,929.290756 C347,907.290756 344.1,884.490756 341.4,873.890756 C330.7,831.490756 297.7,796.790756 255.6,783.490756 C251.1,782.090756 247,780.890756 246.4,780.890756 C245.9,780.890756 245.5,816.590756 245.5,875.690756 C245.5,957.790756 245.3,971.190756 244,975.690756 C240.5,987.390756 230.3,995.190756 218.2,995.190756 C207.5,995.190756 199.3,990.390756 193.7,980.890756 L191,976.390756 L191,858.790756 L191,741.190756 L195,734.790756 C197.1,731.290756 210.9,709.690756 225.5,686.890756 C240.2,664.090756 263.6,627.590756 277.5,605.890756 C291.4,584.190756 305.1,562.790756 308,558.390756 C336.4,514.490756 375.8,452.390756 377.2,449.290756 C378.3,446.690756 378.9,442.590756 378.9,436.890756 C379,429.590756 378.6,427.590756 376.2,422.690756 C366.4,402.790756 341.7,396.690756 323.9,409.790756 C319.7,412.890756 318.4,414.690756 298.1,444.390756 C291.4,454.290756 268.8,487.390756 247.9,517.890756 C227,548.390756 202.2,584.690756 192.8,598.390756 C183.4,612.190756 163.1,641.890756 147.6,664.390756 C132.1,686.990756 118.1,708.090756 116.5,711.490756 C110.4,723.990756 110.5,721.790756 110.4,820.890756 C110.3,870.690756 109.9,947.590756 109.5,991.890756 L108.8,1072.39076 L106.2,1082.89076 C103,1096.09076 99.8,1104.59076 93.4,1116.89076 C86.4,1130.29076 79.7,1138.89076 60.7,1158.79076 C41.8,1178.39076 37.6,1181.29076 27.1,1181.29076 C16.9,1181.19076 8,1176.09076 2.7,1167.09076 C0.4,1163.09076 0,1161.29076 0,1154.39076 C0,1147.99076 0.5,1145.59076 2.3,1142.09076 C3.6,1139.69076 11.7,1130.29076 20.3,1121.19076 C28.9,1112.19076 37.5,1102.59076 39.3,1100.09076 C46.3,1090.39076 51.4,1077.79076 53.4,1065.39076 C54,1061.79076 54.6,992.990756 55,894.390756 C55.4,791.790756 56,726.390756 56.6,721.590756 C58.1,710.090756 61.9,697.790756 67.6,686.090756 C71.1,678.890756 73.3,672.390756 75.1,664.590756 C76.4,658.390756 84.8,620.090756 93.6,579.390756 C117.5,469.290756 119.7,459.290756 127.4,423.790756 C136,384.190756 138.1,378.690756 148.9,365.090756 C158.2,353.490756 173.4,343.690756 188.4,339.690756 C197.2,337.390756 214.9,336.890756 223,338.790756 C243.3,343.590756 261.5,356.690756 272,373.790756 L275.7,379.990756 L281.4,374.290756 C292.6,362.890756 305.7,355.090756 321,350.690756 C327.9,348.690756 331.2,348.390756 345,348.390756 C358.6,348.390756 362.1,348.690756 368.8,350.690756 C377.6,353.190756 389.6,358.990756 397,364.290756 C399.7,366.290756 402.3,367.890756 402.7,367.890756 C403.1,367.890756 405.3,364.190756 407.6,359.690756 C409.9,355.090756 415.6,344.690756 420.2,336.390756 C477,236.190756 550.3,151.890756 639.5,84.4907558 C669,62.1907558 694.7,45.2907558 714.5,35.3907558 C819.5,-17.3092442 943.7,-10.8092442 1042.4,52.5907558 C1072.6,71.9907558 1109.9,100.890756 1140.2,128.190756 C1210.4,191.490756 1267.1,263.890756 1313.9,349.990756 L1324.1,368.590756 L1329.5,364.690756 C1337.2,359.090756 1349.1,353.290756 1358.2,350.690756 C1364.9,348.690756 1368.4,348.390756 1382,348.390756 C1395.8,348.390756 1399.1,348.690756 1406,350.690756 C1421.2,355.090756 1435.5,363.590756 1446.2,374.690756 L1451.4,379.990756 L1453.1,377.190756 C1458.6,368.090756 1462.6,363.090756 1468.5,357.590756 C1476.9,349.890756 1484.3,345.390756 1494.5,341.790756 C1527.8,329.990756 1562.8,341.990756 1583.4,372.190756 C1589.4,380.990756 1592.3,390.190756 1599.5,423.290756 C1603.3,440.890756 1610.5,474.090756 1615.5,496.890756 C1620.5,519.690756 1625.9,544.690756 1627.6,552.390756 C1630.2,564.790756 1639.2,606.290756 1650.5,657.990756 C1653.7,672.690756 1655.2,677.390756 1659.4,685.990756 C1665.1,697.790756 1668.9,710.090756 1670.4,721.590756 C1671,726.390756 1671.7,791.590756 1672,894.390756 C1672.4,993.290756 1673,1061.79076 1673.6,1065.39076 C1675.6,1077.59076 1680.9,1090.59076 1687.7,1100.09076 C1689.5,1102.59076 1698.1,1112.19076 1706.7,1121.19076 C1715.3,1130.29076 1723.4,1139.69076 1724.7,1142.09076 C1726.5,1145.59076 1727,1147.99076 1727,1154.39076 C1727,1161.29076 1726.6,1163.09076 1724.3,1167.09076 C1719,1176.09076 1710.1,1181.19076 1699.9,1181.29076 C1689.4,1181.29076 1685.2,1178.39076 1666.3,1158.79076 C1657.3,1149.39076 1647.4,1138.29076 1644.2,1134.09076 C1637,1124.49076 1626.3,1103.09076 1623.1,1091.69076 C1617.5,1072.19076 1617.6,1075.89076 1616.9,896.390756 C1616.2,715.490756 1616.5,723.990756 1610.5,711.490756 C1608.9,708.090756 1598.1,691.690756 1586.6,674.890756 C1575.1,658.090756 1562.9,640.390756 1559.5,635.390756 C1552.6,625.190756 1478.9,517.590756 1462.7,493.890756 C1442.2,463.990756 1433.5,451.290756 1421.8,433.890756 C1408.2,413.890756 1404.5,409.690756 1396.6,405.990756 C1391.9,403.790756 1389.6,403.390756 1382,403.390756 C1374.4,403.390756 1372.1,403.790756 1367.5,405.990756 C1360.5,409.290756 1354.3,415.490756 1350.8,422.690756 C1348.4,427.590756 1348,429.590756 1348,436.890756 C1348.1,443.290756 1348.6,446.490756 1350.1,449.890756 C1351.3,452.390756 1370.9,483.390756 1393.7,518.890756 C1416.5,554.390756 1444.1,597.390756 1455,614.390756 C1465.9,631.490756 1476.7,648.290756 1479,651.890756 C1505.5,692.790756 1534.1,737.990756 1535.2,740.590756 C1536.3,743.390756 1536.5,763.390756 1536.3,860.190756 L1536,976.390756 L1533.3,980.890756 C1527.8,990.290756 1519.5,995.190756 1509.1,995.090756 C1498.3,995.090756 1489.5,989.590756 1484.8,980.090756 L1482,974.390756 L1481.7,877.690756 C1481.6,818.890756 1481.1,780.890756 1480.5,780.890756 C1480,780.890756 1475.9,782.090756 1471.3,783.490756 C1429.7,796.490756 1396.3,831.790756 1385.6,873.890756 C1383.1,883.790756 1380,907.290756 1378.5,927.390756 C1377.2,945.390756 1377.2,984.890756 1378.5,1001.49076 C1385.4,1088.99076 1413,1161.09076 1463.9,1224.89076 C1475.2,1238.99076 1504.2,1268.49076 1518.5,1280.49076 C1530.1,1290.09076 1531,1291.09076 1534,1297.39076 C1541.2,1311.99076 1532.3,1330.59076 1516.2,1334.99076 C1510.1,1336.59076 1501.3,1335.59076 1496.2,1332.59076 C1489.6,1328.69076 1473.4,1314.79076 1457.6,1299.39076 C1385.5,1229.29076 1342.1,1143.79076 1327.6,1043.19076 C1323.9,1017.79076 1323.3,1009.59076 1322.8,975.390756 C1321.9,920.090756 1326.3,876.790756 1335.6,848.790756 C1341.4,830.990756 1354.2,806.990756 1365.3,792.890756 C1367.3,790.390756 1373.5,783.590756 1379.3,777.790756 L1389.6,767.190756 L1384.2,760.790756 C1379.2,754.790756 1371.8,745.790756 1337.6,704.390756 C1330.3,695.590756 1320.5,683.690756 1315.7,677.890756 C1310.9,672.090756 1294,651.690756 1278.1,632.390756 C1262.2,613.190756 1246.8,594.790756 1243.8,591.490756 C1226.9,573.290756 1219,554.990756 1217.8,531.890756 C1216.6,507.890756 1224.4,485.690756 1240.3,467.990756 C1251.4,455.490756 1269,444.890756 1284.8,441.190756 L1292.7,439.390756 L1292.3,433.890756 C1291.4,422.990756 1258.3,360.190756 1232.1,320.090756 C1175.9,233.690756 1102.8,159.290756 1019,103.190756 C946.7,54.6907558 859.6,42.0907558 779.1,68.3907558 C743.4,79.9907558 719.2,93.5907558 675,126.690756 C645.6,148.690756 622.3,169.090756 594.9,196.390756 C534.8,256.390756 488.5,321.190756 448.4,401.190756 C435.6,426.690756 434.5,429.490756 434.5,434.490756 C434.5,439.190756 434.7,439.890756 436.5,439.890756 C440.7,439.890756 457.4,446.090756 465.5,450.590756 C481.4,459.590756 496.7,477.490756 503.5,495.190756 C512.5,518.290756 511.2,546.690756 500,568.890756 C496.5,575.790756 491.1,583.090756 482.6,592.390756 C480.1,595.190756 466.7,611.090756 452.8,627.890756 C416.1,672.490756 380.4,715.590756 361.5,738.390756 C352.4,749.390756 343.3,760.490756 341.3,762.990756 L337.6,767.490756 L346.1,775.990756 C362,791.590756 372.6,806.590756 382.5,827.090756 C395.1,853.490756 400,876.190756 403.6,925.890756 C405.1,946.690756 404.2,1006.09076 402.1,1023.39076 C397.4,1062.59076 391.1,1091.89076 380.9,1122.79076 C358.3,1190.49076 322.6,1247.29076 270.9,1297.99076 C254.5,1313.89076 237.6,1328.59076 231,1332.39076 C225.8,1335.49076 215.6,1336.59076 209.9,1334.89076 Z M326.5,694.390756 C368.8,643.190756 393,613.990756 421,580.490756 C434.2,564.590756 446.5,549.690756 448.3,547.190756 C459.9,530.990756 454.2,507.090756 436.3,497.390756 C432.1,495.090756 429.5,494.390756 423,494.090756 L415,493.690756 L404.6,510.090756 C398.8,518.990756 391.8,529.990756 389,534.390756 C386.1,538.790756 370.4,563.290756 354,588.890756 C337.6,614.490756 314.7,650.290756 303,668.390756 C291.4,686.590756 277.9,707.490756 273.2,714.890756 L264.6,728.290756 L276.6,732.490756 C283.2,734.790756 288.9,736.990756 289.3,737.390756 C290.2,738.290756 291.1,737.190756 326.5,694.390756 Z M1450.7,732.390756 L1462.4,728.290756 L1453.8,714.890756 C1449.1,707.490756 1434.1,684.090756 1420.5,662.890756 C1406.9,641.690756 1391.1,617.090756 1385.4,608.190756 C1367.3,579.890756 1345.7,546.190756 1328.6,519.690756 L1312.1,493.890756 L1305.8,493.890756 C1292.9,493.890756 1282.2,500.690756 1276.3,512.690756 C1273.4,518.590756 1273,520.290756 1273,527.390756 C1273,534.190756 1273.5,536.290756 1276.1,541.890756 C1277.8,545.490756 1281.6,551.090756 1284.6,554.490756 C1287.6,557.790756 1300.6,573.290756 1313.5,588.990756 C1326.4,604.590756 1345.5,627.790756 1356,640.390756 C1366.5,653.090756 1388.9,680.190756 1405.9,700.690756 C1425,723.690756 1437.1,737.590756 1437.8,737.190756 C1438.4,736.790756 1444.2,734.690756 1450.7,732.390756 Z M182,516.590756 C186.4,510.090756 198.4,492.590756 208.7,477.590756 L227.4,450.390756 L227.5,429.590756 C227.5,412.990756 227.2,408.090756 225.9,405.090756 C220.5,391.990756 203.9,388.290756 193.1,397.790756 C189.2,401.290756 187.1,408.390756 177.9,450.690756 C172.7,474.690756 166.7,502.490756 164.5,512.390756 C159.6,534.690756 155.5,554.090756 155.5,554.790756 C155.5,555.290756 161.1,547.290756 182,516.590756 Z M1556,482.290756 C1547.5,442.690756 1539.8,408.490756 1538.9,406.190756 C1536.1,398.390756 1530.8,393.990756 1522.5,392.490756 C1517.3,391.590756 1509.6,394.190756 1505.8,398.090756 C1500,404.090756 1499.5,406.590756 1499.5,429.590756 L1499.6,450.390756 L1518.3,477.590756 C1528.6,492.590756 1544.7,516.090756 1554,529.690756 C1563.4,543.390756 1571.1,554.490756 1571.3,554.391426 C1571.4,554.290756 1564.6,521.790756 1556,482.290756 Z" id="Shape" fill="#000000"></path>
                <path d="M587.5,982.890756 C539.7,978.190756 494.4,960.790756 461,934.290756 C450.2,925.790756 447.3,923.090756 444.2,918.490756 C432.3,900.690756 445.7,876.390756 467.4,876.390756 C475,876.390756 480.6,878.690756 487,884.390756 C512,906.690756 542.9,920.390756 582,926.490756 C595.3,928.490756 625.5,928.790756 639.5,926.990756 C680.7,921.790756 718.7,908.690756 766.6,883.090756 C775.7,878.190756 779.4,876.790756 784.1,876.290756 C794.8,875.190756 806.1,881.590756 811,891.390756 C812.5,894.390756 813,897.490756 813,903.890756 C813,911.390756 812.7,912.990756 810.2,917.090756 C806.6,923.190756 803.4,925.690756 788.9,933.690756 C743.5,958.590756 695.3,975.190756 650.5,981.390756 C637.1,983.190756 599.8,984.090756 587.5,982.890756 Z" id="Path" fill="#000000"></path>
                <path d="M1089,982.790756 C1041.5,978.390756 987.5,960.790756 938.1,933.690756 C923.6,925.690756 920.4,923.190756 916.8,917.090756 C914.3,912.990756 914,911.390756 914,903.890756 C914,897.490756 914.5,894.390756 916,891.390756 C918.8,885.590756 924.9,880.290756 931.3,877.790756 C940.2,874.490756 946.3,875.490756 959.4,882.590756 C1012.8,911.290756 1053,924.190756 1099.5,927.890756 C1128.6,930.290756 1160.2,925.790756 1188.1,915.390756 C1208.4,907.790756 1224.7,898.090756 1240,884.390756 C1246.5,878.590756 1252,876.390756 1260,876.390756 C1275.5,876.390756 1287,887.790756 1287,903.390756 C1287,915.290756 1281.4,923.190756 1263.4,936.590756 C1232.7,959.390756 1194.8,974.890756 1154.2,980.990756 C1138.8,983.290756 1104.7,984.290756 1089,982.790756 Z" id="Path" fill="#000000"></path>
                <path d="M505.9,819.890756 C494.7,816.390756 486.5,805.190756 486.5,793.390756 C486.5,772.290756 517.7,742.590756 552,731.090756 C569.4,725.290756 575.9,724.390756 599.5,724.390756 C623,724.390756 631.4,725.590756 654,731.990756 C686.2,740.990756 708.4,742.790756 729.3,737.890756 C739,735.590756 741.6,735.490756 747,737.190756 C759.9,741.290756 767,750.790756 766.901042,763.890756 C766.8,771.790756 765,776.290756 759.6,782.190756 C754.5,787.690756 748.3,790.490756 735.6,792.890756 C708.6,798.190756 677.5,795.690756 640.6,785.390756 C622.9,780.490756 612.2,778.890756 597.6,778.890756 C588,778.890756 582.8,779.390756 576.4,780.990756 C560.9,784.890756 546.5,794.090756 539.3,804.790756 C531.8,815.990756 525.7,819.990756 515.5,820.490756 C511.9,820.690756 507.6,820.390756 505.9,819.890756 Z" id="Path" fill="#000000"></path>
                <path d="M1205.5,819.990756 C1198.6,817.890756 1193.6,813.590756 1187.7,804.690756 C1181.1,794.990756 1168.6,786.490756 1154,781.890756 C1148.6,780.090756 1143.7,779.490756 1132.3,779.090756 C1115.5,778.590756 1106.1,779.890756 1086,785.490756 C1059.8,792.890756 1032.4,796.590756 1012.5,795.490756 C999.4,794.690756 983.1,791.690756 976.5,788.790756 C956,779.790756 954.9,749.890756 974.7,739.790756 C981.9,736.090756 986.7,735.690756 997,737.790756 C1020,742.690756 1039.2,741.190756 1071.5,732.290756 C1092.9,726.390756 1102.6,724.890756 1121.5,724.190756 C1140.8,723.590756 1151,724.490756 1165.8,728.390756 C1196.9,736.490756 1225.6,757.390756 1237.1,780.290756 C1239.9,785.890756 1240.5,788.290756 1240.5,793.390756 C1240.5,805.490756 1232.1,816.690756 1220.7,819.890756 C1216.5,820.990756 1209.2,821.090756 1205.5,819.990756 Z" id="Path" fill="#000000"></path>
                <path d="M774.2,548.490756 C762.1,543.990756 755.5,534.590756 755.5,521.990756 C755.5,515.190756 758.7,507.890756 763.6,503.090756 C767.8,498.890756 769.2,498.190756 784.6,492.090756 C838,470.790756 889.6,470.990756 944,492.690756 C960.1,499.090756 965.8,503.490756 969.5,512.090756 C973.7,521.790756 970.7,536.190756 963.1,542.590756 C956.9,547.790756 952.5,549.390756 944,549.290756 C937.2,549.290756 934.8,548.790756 928.5,545.990756 C904.7,535.690756 886.4,531.690756 862.8,531.690756 C840.4,531.690756 822.8,535.590756 798.5,545.890756 C789.6,549.690756 780.1,550.690756 774.2,548.490756 Z" id="Path" fill="#000000"></path>
                <path d="M809.7,386.790756 C798.4,384.890756 782.4,378.290756 773,371.890756 C760,362.990756 734.3,350.890756 716.5,345.090756 C703.3,340.890756 703.2,340.890756 692,339.990756 C680.5,339.090756 675.6,337.090756 670.6,331.290756 C660.2,319.490756 661.1,302.090756 672.6,291.290756 C690.7,274.290756 721.4,251.690756 742.2,239.990756 C782.5,217.390756 827.8,207.290756 877.8,209.990756 C924.7,212.390756 962.6,224.690756 1001.2,250.090756 C1019.5,262.090756 1041.2,278.890756 1054.4,291.290756 C1066,302.290756 1066.8,320.490756 1056.1,331.290756 C1050.7,336.590756 1047.6,337.790756 1032.6,340.590756 C1007.8,345.090756 981.8,355.390756 961,368.990756 C932.3,387.790756 906.1,392.290756 871.9,384.290756 C865,382.690756 864.5,382.690756 855.4,384.890756 C844.8,387.490756 819.3,388.490756 809.7,386.790756 Z M850.1,328.990756 C862.2,324.890756 867.9,324.890756 879.9,329.090756 C887.2,331.590756 891.1,332.390756 899.2,332.690756 C912.1,333.190756 918.6,331.190756 931,322.790756 C940.9,316.090756 958.3,306.690756 968.9,302.290756 L975.7,299.490756 L973.1,297.390756 C968.3,293.590756 949.2,283.190756 939.5,279.090756 C915,268.890756 893.7,264.890756 863.5,264.890756 C833.1,264.890756 809.7,269.290756 786.1,279.590756 C777.8,283.190756 758.9,293.490756 754.6,296.790756 L752.2,298.590756 L768.6,306.590756 C777.6,310.990756 790.4,317.890756 797,321.890756 C812.9,331.690756 817.1,332.990756 830.5,332.490756 C839,332.190756 842.8,331.590756 850.1,328.990756 Z" id="Shape" fill="#F09491"></path>
            </g>
        </g>
    </g>
</svg>