<?xml version="1.0" encoding="UTF-8"?>
<svg width="118px" height="100px" viewBox="0 0 118 100" version="1.1" xmlns="http://www.w3.org/2000/svg" xmlns:xlink="http://www.w3.org/1999/xlink">
    <title>hydrate</title>
    <g id="Page-1" stroke="none" stroke-width="1" fill="none" fill-rule="evenodd">
        <g id="hydrate" transform="translate(0.3617, 0.8886)" fill-rule="nonzero">
            <g id="Group" transform="translate(58.5026, 49.5557) scale(-1, 1) rotate(-180) translate(-58.5026, -49.5557)translate(0, 0)">
                <path d="M42.6382927,96.6 C25.4382927,90.5 13.4382927,77.3 9.43829274,60 L8.23829274,54.8 L4.43829274,55.4 C1.53829274,55.9 0.43829274,55.7 0.0382927397,54.6 C-0.66170726,52.7 8.43829274,42 10.7382927,42 C12.9382927,42 21.7382927,52 21.3382927,54 C21.1382927,55.1 20.0382927,55.4 17.2382927,55.2 L13.3382927,54.9 L14.0382927,59.1 C15.8382927,70.3 26.6382927,83.9 38.4382927,89.9 C62.1382927,101.9 92.3382927,90.5 101.638293,66 C103.438293,61.2 104.238293,60.5 106.038293,61.9 C107.338293,63 107.338293,63.6 106.038293,67.3 C102.638293,77 92.3382927,88.6 83.0382927,93.3 C70.5382927,99.6 54.6382927,100.9 42.6382927,96.6 Z" id="Path" fill="#000000"></path>
                <path d="M38.2382927,83.2 C37.3382927,81.4 35.4382927,79.5 34.1382927,79 C30.9382927,77.8 30.9382927,76.4 34.2382927,75.6 C35.8382927,75.2 37.2382927,73.8 37.9382927,72 C39.3382927,68.4 40.3382927,68.2 41.6382927,71.5 C42.1382927,72.8 44.0382927,74.7 45.8382927,75.6 L49.1382927,77.3 L46.0382927,78.8 C44.2382927,79.6 42.2382927,81.6 41.4382927,83.4 L39.9382927,86.5 L38.2382927,83.2 Z" id="Path" fill="#F09491"></path>
                <path d="M57.6382927,76.2 C55.7382927,75.5 54.7382927,74.3 48.0382927,64.3 C43.1382927,57 42.7382927,55.9 43.8382927,54 C44.5382927,52.9 45.3382927,52 45.6382927,52.1 C45.9382927,52.1 48.8382927,56.3 52.1382927,61.3 C55.4382927,66.4 58.6382927,70.5 59.1382927,70.4 C60.6382927,70.3 68.1382927,59.4 72.6382927,50.5 C75.9382927,44 76.8382927,41.3 76.8382927,36.9 C76.9382927,21.4 62.4382927,12.3 49.8382927,20 C48.0382927,21.1 45.7382927,23.3 44.8382927,24.9 C43.6382927,27.1 42.4382927,27.8 40.4382927,27.8 C38.0382927,27.7 37.8382927,27.5 38.8382927,25.6 C42.9382927,17.6 51.2382927,12 59.1382927,12 C65.0382927,12 72.9382927,16.1 76.5382927,21 C85.3382927,33.2 82.9382927,46.6 67.9382927,67.8 C62.2382927,75.8 60.5382927,77.2 57.6382927,76.2 Z" id="Path" fill="#000000"></path>
                <path d="M86.0382927,67.5 C85.7382927,66.1 84.1382927,64.3 82.5382927,63.4 C80.9382927,62.6 79.6382927,61.7 79.6382927,61.5 C79.6382927,61.3 80.9382927,60.4 82.6382927,59.5 C84.2382927,58.7 85.9382927,56.8 86.2382927,55.5 C87.0382927,52.2 88.1382927,52.3 89.5382927,55.8 C90.2382927,57.4 92.2382927,59.4 93.9382927,60.3 L97.1382927,61.9 L93.9382927,63.1 C92.0382927,63.9 90.2382927,65.6 89.5382927,67.2 C88.1382927,70.7 86.8382927,70.8 86.0382927,67.5 Z" id="Path" fill="#F09491"></path>
                <path d="M100.038293,52.3 C94.7382927,46.5 93.5382927,44.1 95.9382927,43.9 C97.8382927,43.7 97.9382927,43.7 101.038293,44.4 C103.838293,45.1 103.838293,45.1 103.238293,41.3 C101.938293,34.2 96.8382927,25.1 90.6382927,18.6 C76.7382927,4.1 55.9382927,0.4 37.6382927,9.1 C28.9382927,13.2 19.9382927,22.5 16.1382927,31.3 C13.2382927,37.8 11.1382927,39.6 10.0382927,36.5 C9.13829274,34.4 11.2382927,29.6 16.3382927,21.9 C25.2382927,8.2 40.9382927,0 58.1382927,0 C71.7382927,0 83.7382927,5 93.4382927,14.6 C100.238293,21.4 106.338293,32.6 107.338293,40 C108.038293,44.8 108.638293,45.3 112.238293,44 C114.338293,43.2 115.338293,43.2 116.438293,44.3 C117.638293,45.6 117.138293,46.5 112.938293,51.3 C110.338293,54.3 107.538293,57.1 106.738293,57.4 C105.838293,57.8 103.438293,55.9 100.038293,52.3 Z" id="Path" fill="#000000"></path>
                <path d="M64.0382927,54.5 C65.8382927,47.5 66.5382927,40.2 65.7382927,37.3 C65.2382927,35.5 63.1382927,32 61.1382927,29.4 C59.2382927,26.8 57.7382927,23.9 57.8382927,23.1 C58.3382927,20.5 62.1382927,20.7 65.3382927,23.4 C71.7382927,28.8 73.2382927,36.8 69.6382927,46.2 C67.5382927,51.8 63.0382927,58.4 64.0382927,54.5 Z" id="Path" fill="#F09491"></path>
                <path d="M37.3382927,49.4 C36.2382927,47.1 34.4382927,45.4 32.1382927,44.4 C30.2382927,43.6 28.6382927,42.6 28.6382927,42.1 C28.6382927,41.7 30.3382927,40.5 32.4382927,39.6 C35.2382927,38.3 36.6382927,36.9 37.5382927,34.4 C39.1382927,30 40.9382927,30.1 42.5382927,34.5 C43.4382927,37.2 44.7382927,38.5 47.7382927,39.6 C49.8382927,40.5 51.6382927,41.5 51.6382927,42 C51.6382927,42.4 49.8382927,43.5 47.6382927,44.5 C44.8382927,45.8 43.3382927,47.2 42.4382927,49.6 C40.9382927,53.9 39.4382927,53.9 37.3382927,49.4 Z" id="Path" fill="#F09491"></path>
            </g>
        </g>
    </g>
</svg>