<?xml version="1.0" encoding="UTF-8"?>
<svg width="617px" height="713px" viewBox="0 0 617 713" version="1.1" xmlns="http://www.w3.org/2000/svg" xmlns:xlink="http://www.w3.org/1999/xlink">
    <title>lips</title>
    <g id="Page-1" stroke="none" stroke-width="1" fill="none" fill-rule="evenodd">
        <g id="lips" transform="translate(0.2591, 0.0083)" fill-rule="nonzero">
            <g id="Group" transform="translate(308.3083, 356.0294) scale(-1, 1) rotate(-180) translate(-308.3083, -356.0294)translate(0, 0)">
                <path d="M258.640921,709.867143 C256.740921,707.667143 230.340921,662.667143 223.140921,649.267143 C220.340921,644.067143 219.940921,642.567143 220.840921,640.367143 C222.640921,635.567143 224.140921,635.167143 240.440921,635.067143 L255.540921,635.067143 L255.940921,615.967143 C256.240921,597.267143 256.340921,596.867143 258.640921,594.967143 C261.640921,592.467143 266.240921,592.567143 268.740921,595.067143 C270.640921,596.967143 270.740921,598.367143 270.740921,621.367143 C270.740921,651.567143 272.040921,649.367143 253.640921,650.067143 L240.840921,650.567143 L251.740921,669.567143 C257.740921,679.967143 263.040921,688.667143 263.440921,688.767143 C263.940921,688.967143 270.740921,677.667143 278.740921,663.867143 C286.640921,649.967143 293.940921,637.867143 294.940921,636.867143 C298.840921,632.967143 306.740921,636.567143 306.740921,642.067143 C306.740921,644.967143 270.940921,708.367143 267.940921,710.867143 C265.440921,712.767143 260.840921,712.367143 258.640921,709.867143 Z" id="Path" fill="#000000"></path>
                <path d="M525.140921,693.967143 C523.340921,691.967143 523.240921,688.967143 523.240921,604.467143 L523.240921,517.067143 L521.040921,517.067143 C517.340921,517.067143 513.740921,515.167143 512.840921,512.867143 C512.340921,511.567143 511.040921,499.067143 509.840921,485.067143 C508.640921,471.067143 507.440921,458.067143 507.140921,456.367143 L506.640921,453.067143 L497.740921,453.067143 C483.040921,453.067143 484.740921,469.067143 484.740921,328.067143 L484.740921,207.067143 L467.340921,207.067143 C452.240921,207.067143 449.640921,206.867143 447.840921,205.267143 C444.840921,202.867143 444.740921,197.667143 447.640921,194.767143 C449.740921,192.567143 450.340921,192.567143 479.040921,192.567143 L508.240921,192.567143 L508.540921,119.367143 L508.740921,46.0671429 L493.440921,46.0671429 C478.640921,46.0671429 478.040921,45.9671429 475.940921,43.7671429 C472.840921,40.4671429 473.040921,35.7671429 476.340921,33.1671429 C478.940921,31.0671429 479.940921,31.0671429 530.740921,31.0671429 C581.540921,31.0671429 582.540921,31.0671429 585.140921,33.1671429 C587.140921,34.7671429 587.740921,36.0671429 587.740921,39.0671429 C587.740921,45.4671429 585.940921,46.0671429 568.040921,46.0671429 L552.740921,46.0671429 L552.940921,119.367143 L553.240921,192.567143 L582.940921,192.867143 L612.640921,193.067143 L614.640921,195.667143 C617.240921,198.967143 617.240921,201.167143 614.840921,204.167143 C612.940921,206.467143 612.340921,206.567143 595.040921,207.067143 L577.240921,207.567143 L576.940921,327.967143 L576.740921,448.467143 L574.540921,450.767143 C572.640921,452.867143 571.440921,453.067143 563.640921,453.067143 C555.440921,453.067143 554.940921,453.167143 554.440921,455.367143 C554.140921,456.567143 552.940921,468.867143 551.740921,482.567143 C550.640921,496.367143 549.240921,509.167143 548.740921,511.167143 C547.740921,514.967143 544.640921,517.067143 540.240921,517.067143 L537.740921,517.067143 L537.740921,604.567143 C537.740921,690.767143 537.740921,692.067143 535.740921,694.067143 C533.040921,696.767143 527.640921,696.667143 525.140921,693.967143 Z M535.940921,494.067143 C536.340921,489.967143 537.140921,480.767143 537.740921,473.567143 C538.340921,466.467143 539.040921,458.867143 539.340921,456.867143 L539.940921,453.067143 L530.840921,453.067143 C525.840921,453.067143 521.740921,453.367143 521.740921,453.867143 C521.740921,454.267143 522.640921,464.267143 523.740921,476.067143 C524.840921,487.867143 525.740921,498.567143 525.740921,499.867143 C525.740921,501.967143 526.140921,502.167143 530.540921,501.867143 L535.240921,501.567143 L535.940921,494.067143 Z M538.540921,119.367143 L538.740921,46.0671429 L531.240921,46.0671429 L523.740921,46.0671429 L523.740921,119.567143 L523.740921,193.167143 L531.040921,192.867143 L538.240921,192.567143 L538.540921,119.367143 Z" id="Shape" fill="#000000"></path>
                <path d="M562.540921,322.867143 L562.240921,207.567143 L531.040921,207.267143 L499.840921,207.067143 L499.240921,211.267143 C498.940921,213.667143 498.740921,222.767143 498.940921,231.567143 L499.240921,247.567143 L517.040921,248.067143 C533.240921,248.567143 535.040921,248.767143 536.340921,250.467143 C538.640921,253.767143 538.140921,258.667143 535.140921,260.967143 C532.640921,262.867143 531.140921,263.067143 515.540921,263.067143 L498.640921,263.067143 L498.940921,271.067143 L499.240921,279.067143 L508.440921,279.067143 C518.840921,279.067143 522.240921,280.167143 523.540921,284.067143 C524.640921,287.267143 522.840921,292.467143 520.240921,293.467143 C519.340921,293.767143 514.140921,294.067143 508.640921,294.067143 L498.740921,294.067143 L498.740921,302.467143 L498.740921,310.867143 L509.140921,311.267143 C521.440921,311.667143 523.740921,312.967143 523.740921,319.067143 C523.740921,324.667143 522.040921,325.467143 509.840921,326.067143 L499.240921,326.567143 L499.240921,334.567143 L499.240921,342.567143 L517.040921,343.067143 C533.240921,343.567143 535.040921,343.767143 536.340921,345.467143 C538.440921,348.367143 538.140921,353.467143 535.640921,355.667143 C533.740921,357.367143 531.540921,357.567143 516.140921,357.867143 L498.740921,358.167143 L498.740921,366.167143 L498.740921,374.067143 L509.240921,374.067143 C518.440921,374.067143 520.040921,374.367143 521.740921,376.067143 C524.740921,379.067143 524.440921,384.367143 521.140921,386.967143 C518.840921,388.767143 517.040921,389.067143 508.640921,389.067143 L498.740921,389.067143 L498.740921,396.967143 L498.740921,404.867143 L509.140921,405.267143 C521.040921,405.567143 523.740921,406.967143 523.740921,412.567143 C523.740921,418.667143 522.140921,419.467143 510.040921,420.067143 L499.240921,420.567143 L498.940921,429.367143 L498.640921,438.067143 L530.740921,438.067143 L562.740921,438.067143 L562.540921,322.867143 Z" id="Path" fill="#F09491"></path>
                <path d="M261.240921,571.067143 C257.240921,569.467143 256.240921,567.167143 256.240921,559.067143 C256.240921,552.767143 256.640921,550.867143 258.140921,549.167143 C260.640921,546.467143 266.040921,546.367143 268.740921,549.067143 C271.540921,551.867143 271.640921,565.767143 269.040921,568.867143 C266.840921,571.367143 263.940921,572.167143 261.240921,571.067143 Z" id="Path" fill="#000000"></path>
                <path d="M307.340921,519.167143 C303.440921,518.367143 299.740921,515.067143 299.740921,512.467143 C299.740921,509.667143 302.140921,506.167143 304.640921,505.167143 C308.740921,503.467143 318.640921,505.267143 320.940921,508.067143 C324.840921,512.967143 321.940921,518.967143 315.240921,519.567143 C313.040921,519.767143 309.440921,519.567143 307.340921,519.167143 Z" id="Path" fill="#000000"></path>
                <path d="M182.040921,511.167143 C176.540921,508.567143 173.740921,505.667143 173.740921,502.267143 C173.740921,497.967143 176.340921,495.067143 180.140921,495.067143 C183.340921,495.067143 192.440921,499.267143 193.940921,501.467143 C195.540921,503.767143 194.740921,508.767143 192.440921,510.867143 C189.640921,513.567143 187.540921,513.567143 182.040921,511.167143 Z" id="Path" fill="#000000"></path>
                <path d="M209.040921,510.067143 C206.140921,507.467143 205.940921,502.067143 208.640921,499.667143 C209.740921,498.667143 213.040921,497.267143 216.140921,496.467143 C222.840921,494.667143 226.640921,495.867143 228.140921,500.267143 C230.140921,505.967143 225.340921,510.367143 215.440921,511.667143 C212.040921,512.167143 210.840921,511.867143 209.040921,510.067143 Z" id="Path" fill="#000000"></path>
                <path d="M335.340921,509.967143 C333.440921,508.467143 332.740921,506.967143 332.740921,504.567143 C332.740921,501.667143 333.540921,500.567143 338.340921,496.667143 C341.440921,494.067143 344.940921,492.067143 346.140921,492.067143 C351.240921,492.067143 354.440921,498.967143 351.740921,504.067143 C350.540921,506.367143 341.940921,512.067143 339.740921,512.067143 C338.740921,512.067143 336.840921,511.167143 335.340921,509.967143 Z" id="Path" fill="#000000"></path>
                <path d="M275.540921,504.567143 C270.340921,500.767143 268.840921,497.367143 270.640921,493.467143 C271.840921,490.667143 276.140921,488.767143 278.940921,489.667143 C282.140921,490.667143 289.440921,495.867143 290.140921,497.667143 C291.140921,500.367143 290.840921,503.567143 289.140921,505.867143 C286.740921,509.367143 281.340921,508.767143 275.540921,504.567143 Z" id="Path" fill="#000000"></path>
                <path d="M242.040921,498.867143 C240.840921,498.267143 239.340921,496.467143 238.640921,494.867143 C237.040921,490.867143 238.740921,487.367143 243.540921,485.367143 C253.340921,481.267143 259.740921,483.067143 259.740921,489.967143 C259.740921,494.567143 258.040921,496.167143 251.040921,498.467143 C245.140921,500.267143 245.040921,500.267143 242.040921,498.867143 Z" id="Path" fill="#000000"></path>
                <path d="M158.740921,492.267143 C157.940921,492.067143 155.140921,489.767143 152.540921,487.267143 C147.240921,482.167143 146.440921,478.867143 149.540921,475.167143 C152.140921,471.767143 156.740921,472.167143 161.640921,475.967143 C166.440921,479.867143 167.740921,481.867143 167.740921,485.867143 C167.740921,490.067143 162.940921,493.567143 158.740921,492.267143 Z" id="Path" fill="#000000"></path>
                <path d="M356.240921,483.567143 C354.840921,482.267143 353.740921,480.267143 353.740921,479.067143 C353.740921,476.167143 359.340921,465.467143 361.240921,464.667143 C366.340921,462.767143 371.740921,466.267143 371.740921,471.367143 C371.740921,475.467143 367.340921,483.467143 364.240921,484.867143 C360.440921,486.567143 358.940921,486.367143 356.240921,483.567143 Z" id="Path" fill="#000000"></path>
                <path d="M288.340921,474.567143 C285.140921,473.267143 280.340921,470.867143 277.840921,469.167143 C264.240921,460.367143 262.440921,459.567143 256.640921,459.767143 C252.640921,459.867143 248.740921,460.967143 242.140921,463.867143 C227.440921,470.467143 224.040921,471.367143 212.240921,471.867143 C198.840921,472.367143 194.040921,470.867143 180.840921,462.067143 C171.140921,455.467143 163.740921,449.367143 136.240921,424.567143 C77.6409213,371.867143 48.4409213,351.167143 10.9409213,335.567143 C3.54092126,332.467143 1.64092126,331.267143 0.640921264,328.867143 C-0.359078736,326.367143 -0.259078736,325.567143 1.44092126,323.267143 C2.44092126,321.867143 4.44092126,320.367143 5.84092126,319.967143 C40.3409213,309.867143 56.2409213,303.467143 115.740921,275.867143 C169.040921,251.067143 200.640921,240.867143 238.240921,236.567143 C286.140921,231.067143 326.840921,240.267143 346.040921,261.067143 C364.040921,280.467143 362.440921,306.167143 341.240921,338.667143 L335.740921,347.167143 L339.240921,354.067143 C353.440921,382.267143 352.540921,419.667143 336.840921,449.767143 C331.940921,459.167143 325.340921,467.467143 319.640921,471.267143 C310.440921,477.467143 298.340921,478.767143 288.340921,474.567143 Z M309.540921,460.967143 C318.140921,456.767143 327.540921,441.067143 332.340921,422.567143 C335.940921,408.967143 336.140921,388.767143 332.840921,376.667143 C331.240921,370.667143 325.040921,355.067143 324.340921,355.067143 C324.240921,355.067143 319.940921,356.567143 314.640921,358.467143 C299.840921,363.767143 291.140921,365.267143 275.240921,365.267143 C256.040921,365.367143 248.440921,363.867143 199.740921,351.267143 C168.140921,343.067143 133.240921,335.867143 113.740921,333.467143 C100.640921,331.967143 34.6409213,330.167143 35.7409213,331.367143 C36.0409213,331.667143 40.1409213,334.067143 44.7409213,336.567143 C71.5409213,351.267143 104.840921,377.067143 148.740921,417.067143 C173.240921,439.367143 187.340921,450.767143 196.540921,455.467143 C206.040921,460.367143 217.940921,459.267143 234.040921,452.167143 C245.940921,446.867143 255.540921,444.667143 262.240921,445.767143 C267.040921,446.467143 274.040921,449.867143 282.040921,455.267143 C294.040921,463.467143 301.340921,464.867143 309.540921,460.967143 Z M286.240921,352.967143 C296.440921,351.767143 302.940921,350.067143 313.740921,345.967143 C320.840921,343.167143 321.540921,342.667143 326.440921,335.767143 C332.640921,327.067143 339.840921,313.667143 342.340921,306.067143 C345.140921,297.767143 344.840921,284.967143 341.740921,278.667143 C334.640921,264.067143 315.340921,254.167143 285.940921,249.967143 C275.140921,248.467143 243.840921,249.367143 229.740921,251.567143 C194.740921,257.067143 169.040921,266.167143 107.740921,294.767143 C93.7409213,301.367143 77.1409213,308.867143 70.9409213,311.567143 C64.7409213,314.267143 59.8409213,316.967143 60.0409213,317.467143 C60.2409213,318.167143 64.4409213,318.667143 70.3409213,318.767143 C109.740921,319.667143 145.440921,324.667143 185.540921,334.967143 C198.040921,338.167143 217.140921,343.167143 228.040921,345.967143 C246.340921,350.667143 263.240921,353.667143 273.240921,353.967143 C275.440921,353.967143 281.340921,353.567143 286.240921,352.967143 Z" id="Shape" fill="#000000"></path>
                <path d="M133.240921,468.167143 C132.140921,467.667143 129.540921,465.467143 127.440921,463.167143 C121.340921,456.367143 123.140921,448.767143 130.940921,448.767143 C133.340921,448.767143 135.040921,449.867143 138.840921,453.867143 C142.040921,457.067143 143.740921,459.767143 143.740921,461.367143 C143.740921,466.367143 137.940921,470.067143 133.240921,468.167143 Z" id="Path" fill="#000000"></path>
                <path d="M368.140921,451.467143 C365.940921,449.367143 365.640921,448.367143 366.240921,445.267143 C368.240921,433.967143 369.940921,431.667143 375.940921,432.267143 C377.840921,432.467143 379.740921,433.567143 381.040921,435.167143 C382.840921,437.567143 382.840921,438.267143 381.640921,443.667143 C379.440921,453.467143 373.540921,456.967143 368.140921,451.467143 Z" id="Path" fill="#000000"></path>
                <path d="M104.340921,439.167143 C100.340921,435.067143 99.6409213,433.867143 99.9409213,431.067143 C100.340921,426.867143 104.440921,423.567143 108.040921,424.467143 C111.840921,425.367143 119.740921,434.067143 119.740921,437.367143 C119.740921,441.067143 116.540921,444.067143 112.440921,444.067143 C109.840921,444.067143 108.140921,443.067143 104.340921,439.167143 Z" id="Path" fill="#000000"></path>
                <path d="M80.2409213,415.967143 C76.4409213,412.467143 75.7409213,411.167143 75.7409213,408.067143 C75.7409213,403.567143 78.4409213,400.767143 82.8409213,400.767143 C85.0409213,400.767143 87.0409213,401.867143 90.3409213,405.167143 C95.4409213,410.167143 96.4409213,412.867143 94.6409213,416.267143 C93.0409213,419.367143 91.8409213,420.067143 87.9409213,420.067143 C85.5409213,420.067143 83.5409213,419.067143 80.2409213,415.967143 Z" id="Path" fill="#000000"></path>
                <path d="M372.340921,417.867143 C371.240921,416.367143 370.740921,413.367143 370.740921,408.867143 C370.740921,401.067143 372.640921,398.067143 377.740921,398.067143 C382.940921,398.067143 384.740921,400.967143 384.740921,409.367143 C384.740921,417.967143 383.340921,420.067143 377.440921,420.067143 C374.840921,420.067143 373.440921,419.467143 372.340921,417.867143 Z" id="Path" fill="#000000"></path>
                <path d="M54.6409213,392.167143 C49.2409213,386.767143 48.4409213,383.767143 51.7409213,380.267143 C53.1409213,378.767143 55.0409213,378.067143 57.4409213,378.067143 C60.4409213,378.067143 61.8409213,378.867143 65.8409213,382.967143 C71.2409213,388.267143 71.7409213,390.467143 68.6409213,394.467143 C67.1409213,396.367143 65.7409213,397.067143 63.0409213,397.067143 C60.0409213,397.067143 58.6409213,396.167143 54.6409213,392.167143 Z" id="Path" fill="#000000"></path>
                <path d="M371.040921,386.067143 C368.540921,385.067143 367.540921,383.267143 365.740921,376.867143 C364.040921,370.567143 365.040921,367.367143 369.240921,365.367143 C372.340921,363.867143 372.840921,363.867143 375.240921,365.467143 C380.240921,368.767143 383.140921,381.067143 379.740921,384.467143 C377.740921,386.467143 373.740921,387.167143 371.040921,386.067143 Z" id="Path" fill="#000000"></path>
                <path d="M31.7409213,374.967143 C25.2409213,371.067143 24.1409213,367.367143 27.8409213,362.667143 C30.7409213,358.967143 35.2409213,359.167143 40.0409213,363.167143 C44.2409213,366.567143 44.9409213,370.467143 42.0409213,373.867143 C39.3409213,377.067143 35.7409213,377.467143 31.7409213,374.967143 Z" id="Path" fill="#000000"></path>
                <path d="M357.640921,353.867143 C351.940921,349.167143 351.340921,342.667143 356.140921,337.667143 C360.140921,333.367143 363.740921,332.967143 367.240921,336.467143 C369.540921,338.767143 369.640921,339.467143 369.140921,345.267143 C368.740921,349.767143 367.940921,352.067143 366.540921,353.367143 C364.140921,355.367143 359.740921,355.567143 357.640921,353.867143 Z" id="Path" fill="#000000"></path>
                <path d="M370.740921,325.067143 C367.340921,321.667143 368.840921,314.567143 374.540921,307.867143 C377.740921,304.067143 386.740921,307.667143 386.740921,312.767143 C386.640921,315.367143 383.240921,322.567143 380.840921,324.967143 C378.140921,327.667143 373.340921,327.667143 370.740921,325.067143 Z" id="Path" fill="#000000"></path>
                <path d="M385.240921,296.067143 C381.240921,294.467143 380.440921,292.467143 381.140921,285.867143 C382.040921,278.367143 383.040921,276.267143 386.440921,274.967143 C389.940921,273.667143 394.140921,275.367143 395.640921,278.767143 C397.140921,281.967143 395.240921,292.267143 392.840921,294.367143 C390.540921,296.367143 387.640921,297.067143 385.240921,296.067143 Z" id="Path" fill="#000000"></path>
                <path d="M52.3409213,282.967143 C50.5409213,281.567143 49.7409213,279.967143 49.7409213,277.967143 C49.7409213,273.467143 51.2409213,271.367143 56.0409213,269.567143 C66.9409213,265.367143 72.4409213,276.967143 62.2409213,282.767143 C57.2409213,285.567143 55.7409213,285.567143 52.3409213,282.967143 Z" id="Path" fill="#000000"></path>
                <path d="M78.2409213,269.567143 C75.0409213,266.467143 74.9409213,262.067143 78.0409213,259.367143 C86.0409213,251.967143 96.7409213,252.567143 96.7409213,260.267143 C96.7409213,264.767143 95.6409213,266.067143 89.6409213,269.067143 C82.5409213,272.667143 81.3409213,272.767143 78.2409213,269.567143 Z" id="Path" fill="#000000"></path>
                <path d="M383.040921,262.567143 C380.840921,261.067143 377.740921,252.867143 377.740921,248.667143 C377.740921,243.267143 384.640921,240.167143 389.040921,243.467143 C391.040921,244.967143 394.740921,253.867143 394.740921,257.167143 C394.740921,259.867143 390.340921,264.067143 387.540921,264.067143 C386.240921,264.067143 384.240921,263.367143 383.040921,262.567143 Z" id="Path" fill="#000000"></path>
                <path d="M107.740921,255.067143 C105.240921,252.567143 105.040921,246.967143 107.540921,244.867143 C110.040921,242.567143 117.340921,239.067143 119.540921,239.067143 C123.040921,239.067143 126.740921,242.867143 126.740921,246.467143 C126.740921,250.167143 125.240921,251.867143 119.040921,254.967143 C113.740921,257.567143 110.340921,257.667143 107.740921,255.067143 Z" id="Path" fill="#000000"></path>
                <path d="M137.740921,241.067143 C135.240921,238.567143 135.140921,232.967143 137.540921,230.767143 C140.140921,228.367143 149.440921,225.067143 151.440921,225.767143 C156.140921,227.367143 157.940921,231.767143 156.040921,236.567143 C155.240921,238.767143 146.140921,243.067143 142.540921,243.067143 C140.940921,243.067143 138.840921,242.167143 137.740921,241.067143 Z" id="Path" fill="#000000"></path>
                <path d="M361.540921,231.667143 C356.140921,226.667143 355.240921,222.567143 358.740921,219.067143 C362.340921,215.467143 367.240921,216.667143 374.040921,222.867143 C377.340921,225.967143 377.840921,231.767143 374.940921,234.367143 C371.540921,237.467143 366.740921,236.467143 361.540921,231.667143 Z" id="Path" fill="#000000"></path>
                <path d="M168.340921,228.467143 C164.040921,224.267143 165.940921,218.267143 172.540921,215.467143 C178.940921,212.767143 181.940921,212.667143 185.040921,215.067143 C190.040921,219.067143 188.240921,225.067143 181.040921,228.167143 C175.640921,230.467143 170.440921,230.667143 168.340921,228.467143 Z" id="Path" fill="#000000"></path>
                <path d="M199.240921,217.067143 C196.940921,214.567143 197.040921,209.267143 199.440921,206.967143 C201.640921,204.767143 211.240921,201.967143 213.540921,202.767143 C216.840921,203.967143 218.740921,206.367143 218.740921,209.567143 C218.740921,213.767143 217.040921,215.767143 211.840921,217.567143 C205.840921,219.667143 201.440921,219.467143 199.240921,217.067143 Z" id="Path" fill="#000000"></path>
                <path d="M333.740921,216.767143 C327.840921,213.867143 325.940921,210.567143 327.840921,206.567143 C329.940921,202.167143 333.640921,201.267143 340.340921,203.567143 C346.440921,205.667143 348.740921,208.067143 348.740921,212.267143 C348.740921,218.767143 341.940921,220.767143 333.740921,216.767143 Z" id="Path" fill="#000000"></path>
                <path d="M232.940921,210.367143 C232.240921,210.067143 231.040921,208.567143 230.140921,206.867143 C226.940921,200.767143 231.240921,196.367143 241.440921,195.367143 C246.040921,194.867143 246.840921,195.067143 249.140921,197.367143 C252.340921,200.567143 252.440921,203.167143 249.540921,206.467143 C246.740921,209.667143 236.840921,211.967143 232.940921,210.367143 Z" id="Path" fill="#000000"></path>
                <path d="M300.740921,208.767143 C295.940921,207.067143 293.940921,203.367143 295.640921,199.267143 C296.440921,197.467143 298.040921,195.767143 299.540921,195.267143 C302.940921,194.167143 312.740921,195.767143 314.940921,197.767143 C317.340921,199.967143 317.340921,206.267143 314.940921,208.367143 C312.740921,210.367143 305.940921,210.567143 300.740921,208.767143 Z" id="Path" fill="#000000"></path>
                <path d="M264.240921,204.567143 C261.240921,201.667143 261.040921,198.167143 263.640921,194.967143 C265.040921,193.167143 266.640921,192.667143 271.340921,192.367143 C278.140921,191.967143 281.640921,193.367143 283.540921,197.367143 C284.640921,199.567143 284.540921,200.467143 283.340921,202.867143 C281.440921,206.567143 280.040921,207.067143 272.640921,207.067143 C267.640921,207.067143 266.240921,206.667143 264.240921,204.567143 Z" id="Path" fill="#000000"></path>
                <path d="M258.140921,162.967143 C256.640921,161.267143 256.240921,159.367143 256.240921,152.867143 C256.240921,145.367143 256.440921,144.767143 259.140921,142.367143 C262.440921,139.567143 266.140921,139.867143 269.040921,143.267143 C271.640921,146.367143 271.540921,160.267143 268.740921,163.067143 C266.040921,165.767143 260.640921,165.667143 258.140921,162.967143 Z" id="Path" fill="#000000"></path>
                <path d="M258.640921,117.167143 C256.240921,115.267143 256.240921,114.967143 255.940921,93.3671429 C255.540921,69.3671429 256.140921,65.0671429 260.240921,63.2671429 C261.740921,62.5671429 267.840921,62.0671429 274.740921,62.0671429 L286.640921,62.0671429 L275.440921,42.5671429 C269.240921,31.8671429 263.940921,23.1671429 263.540921,23.3671429 C263.040921,23.4671429 256.140921,35.0671429 248.040921,49.0671429 C238.140921,66.0671429 232.340921,74.9671429 230.640921,75.9671429 C227.140921,77.9671429 223.140921,76.6671429 221.240921,73.0671429 C219.140921,69.0671429 219.140921,69.0671429 240.940921,31.5671429 C259.240921,0.0671429139 260.140921,-1.03285709 265.940921,0.367142914 C268.040921,0.967142914 272.040921,7.16714291 287.640921,34.1671429 C300.140921,55.8671429 306.740921,68.2671429 306.740921,70.0671429 C306.740921,71.9671429 305.840921,73.6671429 304.140921,74.9671429 C301.740921,76.8671429 300.140921,77.0671429 286.140921,77.0671429 L270.740921,77.0671429 L270.740921,96.0671429 C270.740921,113.767143 270.640921,115.167143 268.740921,117.067143 C266.240921,119.567143 261.640921,119.667143 258.640921,117.167143 Z" id="Path" fill="#000000"></path>
            </g>
        </g>
    </g>
</svg>