<?xml version="1.0" encoding="UTF-8"?>
<svg width="417px" height="435px" viewBox="0 0 417 435" version="1.1" xmlns="http://www.w3.org/2000/svg" xmlns:xlink="http://www.w3.org/1999/xlink">
    <title>17828617</title>
    <g id="Page-1" stroke="none" stroke-width="1" fill="none" fill-rule="evenodd">
        <g id="17828617" transform="translate(0.2792, 0.3955)">
            <path d="M178.220834,0.104545178 C182.608834,-0.452154822 185.775834,1.21444518 187.720834,5.10454518 C188.220834,14.7654452 188.386834,24.4321452 188.220834,34.1045452 C212.367834,30.4569452 228.201834,40.1235452 235.720834,63.1045452 C236.448834,70.5465452 237.615834,77.8805452 239.220834,85.1045452 C288.257834,116.495545 312.757834,161.495545 312.720834,220.104545 C311.164834,234.437545 306.997834,247.937545 300.220834,260.604545 C310.265834,264.178545 315.265834,271.344545 315.221135,282.104545 C313.583834,298.546545 305.916834,311.379545 292.220834,320.604545 C287.659834,323.107545 282.826834,324.607545 277.720834,325.104545 C274.720834,333.771545 271.720834,342.437545 268.720834,351.104545 C266.741834,355.560545 263.907834,359.394545 260.220834,362.604545 C242.235834,375.234545 223.235834,386.234545 203.220834,395.604545 C198.381834,397.187545 193.548834,398.687545 188.720834,400.104545 C188.387834,409.771545 188.053834,419.437545 187.720834,429.104545 C185.055834,434.038545 181.222834,435.205545 176.220834,432.604545 C175.594834,431.854545 175.094834,431.020545 174.720834,430.104545 C174.552834,420.087545 174.052834,410.087545 173.220834,400.104545 C164.917834,398.170545 156.917834,395.336545 149.220834,391.604545 C133.549834,382.437545 118.216834,372.771545 103.220834,362.604545 C100.348834,360.067545 97.8488341,357.234545 95.7208341,354.104545 C91.7898341,344.477545 87.9558341,334.810545 84.2208341,325.104545 C61.9408341,319.651545 49.2738341,305.485545 46.2208341,282.604545 C46.5517341,270.925545 52.2184341,263.258545 63.2208341,259.604545 C58.8068341,252.365545 55.9738341,244.532545 54.7208341,236.104545 C50.1707341,200.856545 56.1708341,167.523545 72.7208341,136.104545 C85.4828341,116.009545 102.148834,100.009545 122.720834,88.1045452 C123.998834,79.1325452 125.331834,70.1325452 126.720834,61.1045452 C130.366834,48.7898452 138.200834,40.2898452 150.220834,35.6045452 C158.149834,34.2412452 166.149834,33.7412452 174.220834,34.1045452 C174.054834,24.0989452 174.220834,14.0989452 174.720834,4.10454518 C175.410834,2.25434518 176.576834,0.920945178 178.220834,0.104545178 Z M157.220834,48.1045452 C162.887834,48.1045452 168.553834,48.1045452 174.220834,48.1045452 C174.220834,56.1045452 174.220834,64.1045452 174.220834,72.1045452 C161.869834,73.1505452 150.035834,76.1505452 138.720834,81.1045452 C136.797834,65.2715452 142.963834,54.2716452 157.220834,48.1045452 Z M188.220834,48.1045452 C210.484834,45.0379452 222.150834,54.7046452 223.220834,77.1045452 C211.792834,73.8525452 200.125834,72.1865452 188.220834,72.1045452 C188.220834,64.1045452 188.220834,56.1045452 188.220834,48.1045452 Z M172.220834,86.1045452 C173.553834,98.5865452 174.220834,111.419545 174.220834,124.604545 C174.053834,137.437545 173.887834,150.271545 173.720834,163.104545 C167.973834,167.563545 161.806834,171.397545 155.220834,174.604545 C118.817834,189.340545 91.6518341,214.173545 73.7208341,249.104545 C70.3288341,241.818545 68.3288341,234.151545 67.7208341,226.104545 C65.5408341,196.335545 71.5408341,168.335545 85.7208341,142.104545 C106.490834,110.970545 135.323834,92.3035452 172.220834,86.1045452 Z M188.220834,86.1045452 C197.027834,86.1965452 205.694834,87.3625452 214.220834,89.6045452 C214.188834,113.514545 205.688834,134.014545 188.720834,151.104545 C188.220834,129.440545 188.053834,107.773545 188.220834,86.1045452 Z M228.220834,96.1045452 C254.160834,109.931545 273.327834,130.264545 285.720834,157.104545 C293.509834,173.928545 298.009834,191.595545 299.220834,210.104545 C298.825834,221.911545 296.325834,233.244545 291.720834,244.104545 C285.634834,230.767545 276.801834,219.601545 265.220834,210.604545 C242.268834,195.275545 221.935834,176.942545 204.220834,155.604545 C218.769834,138.466545 226.769834,118.632545 228.220834,96.1045452 Z M193.220834,166.104545 C200.687834,173.740545 208.020834,181.573545 215.220834,189.604545 C229.266834,201.318545 243.599834,212.652545 258.220834,223.604545 C273.698834,236.058545 282.198834,252.225545 283.720834,272.104545 C284.623834,273.305545 285.789834,274.139545 287.220834,274.604545 C290.887834,274.937545 294.553834,275.271545 298.220834,275.604545 C300.312834,277.457545 301.312834,279.790545 301.220834,282.604545 C298.823834,294.406545 292.490834,303.406545 282.220834,309.604545 C278.526834,309.882545 274.859834,309.882545 271.220834,309.604545 C269.434834,310.389545 267.934834,311.555545 266.720834,313.104545 C263.053834,323.771545 259.387834,334.437545 255.720834,345.104545 C253.592834,348.234545 251.092834,351.067545 248.220834,353.604545 C236.220834,360.937545 224.220834,368.271545 212.220834,375.604545 C204.620834,379.858545 196.620834,383.024545 188.220834,385.104545 C188.220834,376.437545 188.220834,367.771545 188.220834,359.104545 C198.244834,357.176545 206.744834,352.509545 213.720834,345.104545 C215.723834,336.777545 212.556834,333.277545 204.220834,334.604545 C199.943834,339.575545 194.610834,342.742545 188.220834,344.104545 C188.053834,286.103545 188.220834,228.103545 188.720834,170.104545 C190.712834,169.276545 192.212834,167.943545 193.220834,166.104545 Z M172.220834,181.104545 C173.553834,208.096545 174.220834,235.429545 174.220834,263.104545 C173.887834,290.437545 173.553834,317.771545 173.220834,345.104545 C166.407834,342.533545 160.074834,339.199545 154.220834,335.104545 C147.329834,336.766545 145.496834,340.766545 148.720834,347.104545 C155.880834,353.934545 164.380834,357.934545 174.220834,359.104545 C174.220834,367.771545 174.220834,376.437545 174.220834,385.104545 C167.522834,384.092545 161.188834,381.926545 155.220834,378.604545 C141.887834,370.271545 128.553834,361.937545 115.220834,353.604545 C113.053834,351.437545 110.887834,349.271545 108.720834,347.104545 C103.720834,335.104545 98.7208341,323.104545 93.7208341,311.104545 C92.2828341,309.886545 90.6158341,309.219545 88.7208341,309.104545 C82.8788341,310.991545 77.7118341,309.824545 73.2208341,305.604545 C66.6618341,298.985545 62.3288341,291.152545 60.2208341,282.104545 C60.7008341,279.655545 61.7008341,277.489545 63.2208341,275.604545 C68.7428341,273.738545 74.4098341,272.405545 80.2208341,271.604545 C84.4788341,259.920545 89.9788341,248.753545 96.7208341,238.104545 C109.720834,221.100545 125.220834,206.933545 143.220834,195.604545 C153.420834,191.608545 163.087834,186.775545 172.220834,181.104545 Z" id="Shape" fill="#000000" opacity="0.923"></path>
            <path d="M303.220834,0.104545178 C305.992834,-0.175454822 308.492834,0.491145178 310.720834,2.10454518 C312.495834,10.7647452 315.828834,18.7647452 320.720834,26.1045452 C325.600834,31.9804452 331.767834,35.8138452 339.220834,37.6045452 C343.793834,41.3591452 344.126834,45.3591452 340.220834,49.6045452 C323.353834,55.4826452 313.686834,67.3155452 311.220834,85.1045452 C307.346834,89.0385452 303.513834,89.0385452 299.720834,85.1045452 C297.044834,67.1125452 287.211834,55.2795452 270.220834,49.6045452 C267.553834,45.9378452 267.553834,42.2712452 270.220834,38.6045452 C286.562834,33.2623452 296.062834,22.0957452 298.720834,5.10454518 C299.745834,2.91754518 301.245834,1.25094518 303.220834,0.104545178 Z M305.220834,29.1045452 C309.128834,34.3549452 313.461834,39.3549452 318.220834,44.1045452 C313.548834,48.6166452 309.381834,53.6166452 305.720834,59.1045452 C302.117834,53.3329452 297.617834,48.3329452 292.220834,44.1045452 C297.638834,40.0214452 301.971834,35.0214452 305.220834,29.1045452 Z" id="Shape" fill="#F09491" opacity="0.916"></path>
            <path d="M78.2208341,50.1045452 C80.2478341,49.9424452 82.2478341,50.1090452 84.2208341,50.6045452 C94.3848341,56.1855452 104.384834,62.0185452 114.220834,68.1045452 C117.058834,71.9145452 116.725834,75.4145452 113.220834,78.6045452 C102.965834,85.2315452 92.2998341,91.0645452 81.2208341,96.1045452 C74.3298341,94.4425452 72.4968341,90.4425452 75.7208341,84.1045452 C77.5538341,82.9375452 79.3878341,81.7715452 81.2208341,80.6045452 C55.8878341,80.2715452 30.5541341,79.9375452 5.22083412,79.6045452 C0.682534117,77.9405452 -0.817465883,74.7735452 0.720834117,70.1045452 C1.22083412,68.2715452 2.38753412,67.1045452 4.22083412,66.6045452 C30.2208341,66.2715452 56.2208341,65.9375452 82.2208341,65.6045452 C73.3358341,62.0525452 72.0018341,56.8858452 78.2208341,50.1045452 Z" id="Path" fill="#000000" opacity="0.929"></path>
            <path d="M376.220834,186.104545 C379.202834,185.708545 381.869834,186.375545 384.220834,188.104545 C386.107834,196.257545 389.274834,203.924545 393.720834,211.104545 C398.920834,217.305545 405.420834,221.471545 413.220834,223.604545 C417.130834,227.679545 417.130834,231.679545 413.220834,235.604545 C402.342834,238.486545 394.508834,244.986545 389.720834,255.104545 C387.743834,260.349545 386.076834,265.682545 384.720834,271.104545 C380.379834,274.052545 376.379834,273.719545 372.720834,270.104545 C370.474834,252.531545 360.974834,241.031545 344.220834,235.604545 C340.342834,231.824545 340.342834,227.990545 344.220834,224.104545 C360.505834,218.572545 370.005834,207.239545 372.720834,190.104545 C373.410834,188.254545 374.576834,186.920545 376.220834,186.104545 Z M378.220834,215.104545 C382.711834,220.095545 387.378834,224.929545 392.220834,229.604545 C387.331834,233.990545 382.998834,238.824545 379.220834,244.104545 C375.435834,238.485545 370.769834,233.652545 365.220834,229.604545 C370.838834,225.825545 375.171834,220.991545 378.220834,215.104545 Z" id="Shape" fill="#F09491" opacity="0.918"></path>
            <path d="M131.220834,219.104545 C140.383834,218.511545 149.383834,219.344545 158.220834,221.604545 C166.259834,223.679545 168.592834,228.346545 165.220834,235.604545 C163.521834,236.562545 161.687834,237.062545 159.720834,237.104545 C147.657834,231.970545 135.491834,231.804545 123.220834,236.604545 C114.945834,238.661545 111.445834,235.494545 112.720834,227.104545 C113.934834,225.555545 115.434834,224.389545 117.220834,223.604545 C122.006834,222.082545 126.672834,220.582545 131.220834,219.104545 Z" id="Path" fill="#000000" opacity="0.908"></path>
            <path d="M214.220834,219.104545 C224.155834,218.300545 233.822834,219.467545 243.220834,222.604545 C248.644834,224.621545 250.478834,228.454545 248.720834,234.104545 C247.387834,236.437545 245.387834,237.437545 242.720834,237.104545 C230.624834,232.009545 218.457834,231.842545 206.220834,236.604545 C196.470834,238.189545 193.304834,234.355545 196.720834,225.104545 C202.418834,222.397545 208.252834,220.397545 214.220834,219.104545 Z" id="Path" fill="#000000" opacity="0.913"></path>
            <path d="M153.220834,248.104545 C161.050834,247.099545 164.216834,250.432545 162.720834,258.104545 C158.327834,262.651545 153.660834,266.985545 148.720834,271.104545 C146.574834,273.730545 145.241834,276.730545 144.720834,280.104545 C141.347834,283.490545 137.514834,283.990545 133.220834,281.604545 C130.902834,278.322545 130.569834,274.822545 132.220834,271.104545 C122.640834,270.564545 114.473834,266.897545 107.720834,260.104545 C105.663834,251.829545 108.830834,248.329545 117.220834,249.604545 C129.729834,259.917545 141.729834,259.417545 153.220834,248.104545 Z" id="Path" fill="#000000" opacity="0.909"></path>
            <path d="M244.220834,248.104545 C251.883834,246.646545 255.383834,249.646545 254.720834,257.104545 C245.446834,268.975545 233.279834,273.475545 218.220834,270.604545 C211.061834,268.777545 204.894834,265.277545 199.720834,260.104545 C197.286834,254.306545 199.119834,250.640545 205.220834,249.104545 C210.350834,251.833545 215.684834,254.333545 221.220834,256.604545 C230.606834,258.200545 238.272834,255.367545 244.220834,248.104545 Z" id="Path" fill="#000000" opacity="0.901"></path>
            <path d="M146.220834,287.104545 C153.828834,286.964545 156.661834,290.631545 154.720834,298.104545 C144.764834,313.930545 140.430834,331.263545 141.720834,350.104545 C137.024834,355.688545 132.690834,355.355545 128.720834,349.104545 C126.397834,327.706545 131.064834,308.039545 142.720834,290.104545 C143.865834,288.968545 145.032834,287.968545 146.220834,287.104545 Z" id="Path" fill="#000000" opacity="0.91"></path>
            <path d="M318.220834,346.104545 C321.225834,345.857545 323.725834,346.857545 325.720834,349.104545 C328.332834,367.041545 338.166834,378.874545 355.220834,384.604545 C357.887834,388.271545 357.887834,391.937545 355.220834,395.604545 C338.141834,401.355545 328.307834,413.188545 325.720834,431.104545 C322.323834,434.585545 318.656834,434.918545 314.720834,432.104545 C313.025834,418.867545 306.858834,408.367545 296.220834,400.604545 C293.102834,398.711545 289.769834,397.378545 286.220834,396.604545 C282.670834,392.873545 282.337834,388.873545 285.220834,384.604545 C302.003834,379.152545 311.503834,367.652545 313.720834,350.104545 C315.117834,348.534545 316.617834,347.200545 318.220834,346.104545 Z M319.220834,375.104545 C323.159834,380.712545 327.826834,385.712545 333.220834,390.104545 C327.852834,394.306545 323.352834,399.306545 319.720834,405.104545 C316.118834,399.666545 311.952834,394.666545 307.220834,390.104545 C312.417834,386.034545 316.417834,381.034545 319.220834,375.104545 Z" id="Shape" fill="#000000" opacity="0.917"></path>
            <path d="M80.2208341,363.104545 C91.4368341,368.381545 102.436834,374.214545 113.220834,380.604545 C117.220834,384.604545 117.220834,388.604545 113.220834,392.604545 C102.552834,398.853545 91.7198341,404.686545 80.7208341,410.104545 C75.3408341,408.347545 73.3408341,404.680545 74.7208341,399.104545 C76.2788341,397.245545 78.1118341,395.745545 80.2208341,394.604545 C55.5538341,394.271545 30.8875341,393.937545 6.22083412,393.604545 C0.661934117,392.146545 -1.17146588,388.646545 0.720834117,383.104545 C2.03973412,381.117545 3.87313412,379.950545 6.22083412,379.604545 C30.8875341,379.271545 55.5538341,378.937545 80.2208341,378.604545 C74.2658341,376.031545 72.7658341,371.865545 75.7208341,366.104545 C77.1298341,364.823545 78.6298341,363.823545 80.2208341,363.104545 Z" id="Path" fill="#000000" opacity="0.898"></path>
        </g>
    </g>
</svg>