<?xml version="1.0" encoding="UTF-8"?>
<svg width="465px" height="465px" viewBox="0 0 465 465" version="1.1" xmlns="http://www.w3.org/2000/svg" xmlns:xlink="http://www.w3.org/1999/xlink">
    <title>7394040-512</title>
    <g id="Page-1" stroke="none" stroke-width="1" fill="none" fill-rule="evenodd">
        <g id="7394040-512" transform="translate(0.2316, 0.2343)">
            <path d="M212.268379,0.26572461 C312.480379,-3.72687539 387.646379,37.2731246 437.768379,123.265725 C471.352379,191.078725 473.352379,259.745725 443.768379,329.265725 C409.681379,398.353725 355.181379,441.853725 280.268379,459.765725 C188.772379,475.604725 112.606379,448.771725 51.7683785,379.265725 C2.26437855,314.741725 -11.7356215,243.075725 9.76837855,164.265725 C33.4932785,93.2067246 79.9933785,43.3733246 149.268379,14.7657246 C169.804379,7.29592461 190.804379,2.46252461 212.268379,0.26572461 Z M231.268379,16.2657246 C314.216379,19.1348246 377.049379,55.8015246 419.768379,126.265725 C459.626379,203.634725 456.626379,279.300725 410.768379,353.265725 C358.981379,423.397725 289.481379,454.231725 202.268379,445.765725 C126.500379,432.492725 71.3334785,391.659725 36.7683785,323.265725 C17.7281785,280.609725 12.3948785,236.276725 20.7683785,190.265725 C36.3347785,120.714725 75.8347785,69.8810246 139.268379,37.7657246 C168.556379,24.1454246 199.223379,16.9788246 231.268379,16.2657246 Z" id="Shape" fill="#000000" opacity="0.935"></path>
            <path d="M195.268379,113.265725 C219.937379,113.098725 244.604379,113.265725 269.268379,113.765725 C272.661379,114.159725 274.828379,115.992725 275.768379,119.265725 C276.268379,142.263725 276.435379,165.263725 276.268379,188.265725 C300.025379,187.785725 323.692379,188.285725 347.268379,189.765725 C349.255379,191.084725 350.422379,192.917725 350.768379,195.265725 C351.435379,219.932725 351.435379,244.598725 350.768379,269.265725 C350.422379,271.613725 349.255379,273.446725 347.268379,274.765725 C323.692379,276.245725 300.025379,276.745725 276.268379,276.265725 C276.435379,299.267725 276.268379,322.267725 275.768379,345.265725 C274.828379,348.538725 272.661379,350.371725 269.268379,350.765725 C244.601379,351.432725 219.935379,351.432725 195.268379,350.765725 C191.875379,350.371725 189.708379,348.538725 188.768379,345.265725 C188.268379,322.267725 188.101379,299.267725 188.268379,276.265725 C164.511379,276.745725 140.844379,276.245725 117.268379,274.765725 C115.281379,273.446725 114.114379,271.613725 113.768379,269.265725 C113.101379,244.598725 113.101379,219.932725 113.768379,195.265725 C114.114379,192.917725 115.281379,191.084725 117.268379,189.765725 C140.844379,188.285725 164.511379,187.785725 188.268379,188.265725 C188.101379,165.263725 188.268379,142.263725 188.768379,119.265725 C189.881379,115.984725 192.048379,113.984725 195.268379,113.265725 Z M205.268379,130.265725 C205.435379,153.267725 205.268379,176.267725 204.768379,199.265725 C204.213379,202.307725 202.380379,204.140725 199.268379,204.765725 C176.270379,205.265725 153.270379,205.432725 130.268379,205.265725 C130.268379,223.265725 130.268379,241.265725 130.268379,259.265725 C153.270379,259.098725 176.270379,259.265725 199.268379,259.765725 C202.101379,260.598725 203.935379,262.432725 204.768379,265.265725 C205.268379,288.263725 205.435379,311.263725 205.268379,334.265725 C223.268379,334.265725 241.268379,334.265725 259.268379,334.265725 C259.101379,311.263725 259.268379,288.263725 259.768379,265.265725 C260.323379,262.223725 262.156379,260.390725 265.268379,259.765725 C288.266379,259.265725 311.266379,259.098725 334.268379,259.265725 C334.268379,241.265725 334.268379,223.265725 334.268379,205.265725 C311.266379,205.432725 288.266379,205.265725 265.268379,204.765725 C262.435379,203.932725 260.601379,202.098725 259.768379,199.265725 C259.268379,176.267725 259.101379,153.267725 259.268379,130.265725 C241.268379,130.265725 223.268379,130.265725 205.268379,130.265725 Z" id="Shape" fill="#000000" opacity="0.94"></path>
            <path d="M205.268379,130.265725 C223.268379,130.265725 241.268379,130.265725 259.268379,130.265725 C259.101379,153.267725 259.268379,176.267725 259.768379,199.265725 C260.601379,202.098725 262.435379,203.932725 265.268379,204.765725 C288.266379,205.265725 311.266379,205.432725 334.268379,205.265725 C334.268379,223.265725 334.268379,241.265725 334.268379,259.265725 C311.266379,259.098725 288.266379,259.265725 265.268379,259.765725 C262.156379,260.390725 260.323379,262.223725 259.768379,265.265725 C259.268379,288.263725 259.101379,311.263725 259.268379,334.265725 C241.268379,334.265725 223.268379,334.265725 205.268379,334.265725 C205.435379,311.263725 205.268379,288.263725 204.768379,265.265725 C203.935379,262.432725 202.101379,260.598725 199.268379,259.765725 C176.270379,259.265725 153.270379,259.098725 130.268379,259.265725 C130.268379,241.265725 130.268379,223.265725 130.268379,205.265725 C153.270379,205.432725 176.270379,205.265725 199.268379,204.765725 C202.380379,204.140725 204.213379,202.307725 204.768379,199.265725 C205.268379,176.267725 205.435379,153.267725 205.268379,130.265725 Z" id="Path" fill="#F09491" opacity="0.935"></path>
        </g>
    </g>
</svg>