<?xml version="1.0" encoding="UTF-8"?>
<svg width="341px" height="411px" viewBox="0 0 341 411" version="1.1" xmlns="http://www.w3.org/2000/svg" xmlns:xlink="http://www.w3.org/1999/xlink">
    <title>7511912-512</title>
    <g id="Page-1" stroke="none" stroke-width="1" fill="none" fill-rule="evenodd">
        <g id="7511912-512" transform="translate(0.6052, 0.2158)">
            <path d="M158.8948,0.284231914 C172.8508,-0.682668086 186.5168,0.817331914 199.8948,4.78423191 C203.8848,6.77463191 206.3848,9.94133191 207.3948,14.2842319 C208.0618,24.2842319 208.0618,34.2842319 207.3948,44.2842319 C205.0388,50.4692319 200.5388,53.8032319 193.8948,54.2842319 C193.5878,59.8772319 193.9218,65.3772319 194.8948,70.7842319 C264.3088,83.8772319 310.4758,123.710232 333.3948,190.284232 C351.0308,258.582232 335.1978,317.749232 285.8948,367.784232 C235.0358,411.762232 178.0358,421.762232 114.8948,397.784232 C62.7357998,373.961232 26.9027998,335.127232 7.39479985,281.284232 C-12.6914002,206.371232 8.14189985,145.705232 69.8947998,99.2842319 C69.2277998,98.2842319 68.5617998,97.2842319 67.8947998,96.2842319 C62.0837998,96.4532319 57.2497998,94.4532319 53.3947998,90.2842319 C50.3947998,84.6172319 47.3947998,78.9512319 44.3947998,73.2842319 C43.4827998,69.3322319 44.1497998,65.6652319 46.3947998,62.2842319 C58.0667998,49.3626319 72.5667998,42.8626319 89.8947998,42.7842319 C95.1627998,48.1358319 99.3287998,54.3022319 102.3948,61.2842319 C104.9878,67.2242319 104.1538,72.5572319 99.8947998,77.2842319 C100.9988,79.1732319 102.3318,80.8392319 103.8948,82.2842319 C117.3718,76.5812319 131.3718,72.7482319 145.8948,70.7842319 C146.8678,65.3772319 147.2018,59.8772319 146.8948,54.2842319 C140.7698,54.3072319 136.2698,51.6402319 133.3948,46.2842319 C132.7278,34.6175319 132.7278,22.9509319 133.3948,11.2842319 C134.9578,8.05583191 137.4578,5.88913191 140.8948,4.78423191 C146.9478,2.93753191 152.9478,1.43753191 158.8948,0.284231914 Z M160.8948,16.2842319 C171.0708,15.7375319 181.0708,16.7375319 190.8948,19.2842319 C191.8908,25.5827319 192.2248,31.9160319 191.8948,38.2842319 C177.5618,38.2842319 163.2278,38.2842319 148.8948,38.2842319 C148.7288,31.9421319 148.8948,25.6088319 149.3948,19.2842319 C153.3118,18.2234319 157.1458,17.2234319 160.8948,16.2842319 Z M162.8948,54.2842319 C167.5618,54.2842319 172.2278,54.2842319 176.8948,54.2842319 C176.8948,59.2842319 176.8948,64.2842319 176.8948,69.2842319 C172.2278,69.2842319 167.5618,69.2842319 162.8948,69.2842319 C162.8948,64.2842319 162.8948,59.2842319 162.8948,54.2842319 Z M78.8947998,59.2842319 C82.4607998,59.6642319 84.7937998,61.6642319 85.8947998,65.2842319 C79.0347998,69.7072319 72.0347998,73.5412319 64.8947998,76.7842319 C63.5617998,74.7842319 62.2277998,72.7842319 60.8947998,70.7842319 C66.2857998,65.8732319 72.2857998,62.0392319 78.8947998,59.2842319 Z M83.8947998,85.2842319 C88.7567998,87.4402319 88.7567998,89.4402319 83.8947998,91.2842319 C81.6617998,89.0012319 81.6617998,87.0012319 83.8947998,85.2842319 Z M153.8948,85.2842319 C220.6288,81.9782319 271.1288,108.645232 305.3948,165.284232 C334.2088,223.991232 330.2088,280.324232 293.3948,334.284232 C252.2998,386.427232 199.4668,404.260232 134.8948,387.784232 C69.0997998,363.653232 29.5997998,317.153232 16.3947998,248.284232 C12.4598998,185.598232 37.2927998,138.098232 90.8947998,105.784232 C110.7368,95.0022319 131.7368,88.1692319 153.8948,85.2842319 Z" id="Shape" fill="#000000" opacity="0.937"></path>
            <path d="M161.8948,103.284232 C217.0348,102.930232 259.2008,125.930232 288.3948,172.284232 C309.4328,212.354232 311.4328,253.354232 294.3948,295.284232 C291.4738,302.137232 287.8068,308.470232 283.3948,314.284232 C251.3258,295.665232 219.1588,277.165232 186.8948,258.784232 C183.2818,258.576232 179.9488,259.576232 176.8948,261.784232 C162.3478,264.433232 152.5148,258.933232 147.3948,245.284232 C145.1548,232.803232 149.6548,223.803232 160.8948,218.284232 C161.8948,179.956232 162.2278,141.623232 161.8948,103.284232 Z M177.8948,120.284232 C177.5618,152.957232 177.8948,185.624232 178.8948,218.284232 C189.5428,223.568232 194.5428,232.235232 193.8948,244.284232 C221.7248,260.031232 249.3918,276.031232 276.8948,292.284232 C290.6648,265.114232 293.4978,236.781232 285.3948,207.284232 C268.2028,155.259232 232.3698,126.259232 177.8948,120.284232 Z" id="Shape" fill="#000000" opacity="0.939"></path>
            <path d="M177.8948,120.284232 C232.3698,126.259232 268.2028,155.259232 285.3948,207.284232 C293.4978,236.781232 290.6648,265.114232 276.8948,292.284232 C249.3918,276.031232 221.7248,260.031232 193.8948,244.284232 C194.5428,232.235232 189.5428,223.568232 178.8948,218.284232 C177.8948,185.624232 177.5618,152.957232 177.8948,120.284232 Z" id="Path" fill="#F09491" opacity="0.937"></path>
            <path d="M106.8948,119.284232 C108.7848,119.081232 110.2848,119.747232 111.3948,121.284232 C114.9758,128.114232 118.8088,134.781232 122.8948,141.284232 C118.9918,144.824232 114.4918,147.491232 109.3948,149.284232 C104.1538,142.481232 99.6537998,135.148232 95.8947998,127.284232 C99.5797998,124.593232 103.2468,121.926232 106.8948,119.284232 Z" id="Path" fill="#000000" opacity="0.888"></path>
            <path d="M56.8947998,165.284232 C64.5847998,169.215232 72.0847998,173.548232 79.3947998,178.284232 C78.2177998,183.143232 76.0507998,187.643232 72.8947998,191.784232 C64.5707998,188.784232 56.9047998,184.451232 49.8947998,178.784232 C51.8507998,174.037232 54.1837998,169.537232 56.8947998,165.284232 Z" id="Path" fill="#000000" opacity="0.886"></path>
            <path d="M34.8947998,231.284232 C43.8947998,231.284232 52.8947998,231.284232 61.8947998,231.284232 C61.8947998,236.617232 61.8947998,241.951232 61.8947998,247.284232 C52.8947998,247.284232 43.8947998,247.284232 34.8947998,247.284232 C34.8947998,241.951232 34.8947998,236.617232 34.8947998,231.284232 Z" id="Path" fill="#000000" opacity="0.907"></path>
            <path d="M69.8947998,287.284232 C71.2167998,287.114232 72.3837998,287.447232 73.3947998,288.284232 C76.2777998,292.372232 78.2777998,296.705232 79.3947998,301.284232 C72.8127998,304.991232 66.3127998,308.825232 59.8947998,312.784232 C58.4507998,313.565232 57.1177998,313.398232 55.8947998,312.284232 C53.5617998,308.284232 51.2277998,304.284232 48.8947998,300.284232 C56.1267998,296.176232 63.1267998,291.843232 69.8947998,287.284232 Z" id="Path" fill="#000000" opacity="0.884"></path>
            <path d="M108.8948,329.284232 C113.9218,331.467232 118.5878,334.301232 122.8948,337.784232 C118.7878,345.705232 114.1208,353.205232 108.8948,360.284232 C104.3938,357.868232 100.0608,355.201232 95.8947998,352.284232 C99.9867998,344.428232 104.3198,336.761232 108.8948,329.284232 Z" id="Path" fill="#000000" opacity="0.885"></path>
            <path d="M229.8948,329.284232 C230.7708,329.153232 231.4378,329.486232 231.8948,330.284232 C236.1118,337.333232 240.1118,344.500232 243.8948,351.784232 C239.9938,355.082232 235.6598,357.915232 230.8948,360.284232 C225.9228,353.177232 221.5898,345.677232 217.8948,337.784232 C221.7558,334.693232 225.7558,331.860232 229.8948,329.284232 Z" id="Path" fill="#000000" opacity="0.883"></path>
            <path d="M161.8948,348.284232 C167.2278,348.284232 172.5618,348.284232 177.8948,348.284232 C177.8948,356.951232 177.8948,365.617232 177.8948,374.284232 C172.5618,374.284232 167.2278,374.284232 161.8948,374.284232 C161.8948,365.617232 161.8948,356.951232 161.8948,348.284232 Z" id="Path" fill="#000000" opacity="0.942"></path>
        </g>
    </g>
</svg>